<?xml-stylesheet href="svg-fonts.css" type="text/css"?>
<svg xmlns="http://www.w3.org/2000/svg" version="1.1" viewBox="0 0 1920 1080" class="aller-retour">
<g class="build">
<g fill="#ff2d52">
<path d="M347.65 621.965l-24.714-11.734c-2.787-1.317-4.472-3.37-4.472-6.23v-.733c0-2.86 1.685-4.913 4.472-6.234l24.713-11.73c.877-.44 1.684-.734 2.712-.734 2.347-.073 4.472 1.98 4.472 4.62 0 2.124-1.173 3.592-3.08 4.47l-22.144 9.9 22.145 9.9c1.906.88 3.08 2.567 3.08 4.62 0 2.714-2.126 4.62-4.842 4.547-.804 0-1.61-.293-2.344-.662z"/>
<path d="M361.582 632.966l28.673-59.91c.807-1.685 2.126-2.566 3.887-2.566 2.347 0 4.324 1.98 4.324 4.18 0 .807-.292 1.614-.51 2.128l-28.674 59.907c-.807 1.685-2.126 2.566-3.887 2.566-2.347 0-4.325-1.977-4.325-4.178 0-.807.29-1.612.512-2.126z"/>
<path d="M412.912 585.302l24.713 11.73c2.784 1.322 4.472 3.376 4.472 6.235V604c0 2.86-1.685 4.913-4.472 6.23l-24.713 11.735c-.88.44-1.686.733-2.714.733-2.346.072-4.472-1.98-4.472-4.62 0-2.127 1.174-3.593 3.08-4.472l22.145-9.9-22.144-9.9c-1.906-.878-3.08-2.566-3.08-4.62 0-2.713 2.128-4.62 4.84-4.548.806.002 1.613.297 2.346.664z"/>
</g>
<path fill="#333" d="M478.255 529.12a6.915 6.915 0 0 0-6.916-6.916H286.915A6.915 6.915 0 0 0 280 529.12v136.012a6.915 6.915 0 0 0 6.916 6.916H471.34a6.915 6.915 0 0 0 6.915-6.916V529.12zm-153.302-.385a4.996 4.996 0 1 1-.002 9.992 4.996 4.996 0 0 1 .003-9.992zm-13.832 0a4.997 4.997 0 1 1 0 9.993 4.997 4.997 0 0 1 0-9.993zm-13.83 0a4.997 4.997 0 1 1-.002 9.993 4.997 4.997 0 0 1 .002-9.993zm171.744 134.09H289.22V547.563h179.814v115.264z"/>
<text x="1008.324" y="-138.678" style="fill:#ff2d52;font-size:28.504px;font-family:Just Another Hand" transform="matrix(2.83222 0 0 2.83222 -2477.372 1183.004)">
<tspan x="1008.324" y="-138.678" style="text-align:center" text-anchor="middle">Page</tspan>
</text>
<path fill="#333" d="M1540.878 60c-5.108 0-10.126.386-15.026 1.132l-.426-.187c-.042.09-.076.187-.12.278-47.35 7.47-83.56 48.45-83.56 97.9 0 54.748 44.38 99.126 99.128 99.126 54.745 0 99.126-44.38 99.126-99.127C1640 104.38 1595.622 60 1540.877 60zm-20.645 109.376a20.716 20.716 0 0 0-4.98-1.75c.13-12.66 1.12-25.256 2.97-37.625 5.824-1.207 10.742-4.854 13.685-9.81 14.21 4.102 27.864 10.572 40.7 19.113a20.79 20.79 0 0 0-.745 3.133c-18.308 5.568-35.695 14.655-51.63 26.94zm-20.384 36.353a20.84 20.84 0 0 0 5.816 2.51 274.038 274.038 0 0 0 6.455 33.03 86.968 86.968 0 0 1-27.144-15.488c4.66-7.13 9.63-13.822 14.873-20.053zm113.354-57.64c.63-.007 1.258-.032 1.893-.032 4.06 0 8.13.25 12.18.616.415 3.43.65 6.914.65 10.452 0 5.25-.49 10.386-1.388 15.385-4.983-6.665-10.24-12.92-15.75-18.726a20.803 20.803 0 0 0 2.414-7.693zm11.674-11.76c-3.26-.22-6.527-.348-9.78-.348-1.396 0-2.788.036-4.177.075-3.5-6.627-10.454-11.15-18.467-11.15-4.858 0-9.32 1.676-12.867 4.46-14.08-9.408-29.128-16.47-44.803-20.93-.34-6.34-3.49-11.912-8.24-15.51a245.717 245.717 0 0 1 7.186-20.53 87.53 87.53 0 0 1 7.148-.317c40.11-.003 73.953 27.274 84 64.25zm-104.95-61.69a260.968 260.968 0 0 0-4.733 14.1c-.414-.027-.82-.065-1.238-.065-9.154 0-16.916 5.9-19.733 14.097-7 .005-13.994.558-20.93 1.563 11.743-14.452 28.013-25.076 46.634-29.695zm-66.103 84.486a86.507 86.507 0 0 1 10.154-40.743c9.793-2.258 19.783-3.475 29.8-3.517a20.898 20.898 0 0 0 12.403 14.066 285.032 285.032 0 0 0-3.026 39.756c-7.677 3.082-13.105 10.588-13.105 19.37 0 2.998.646 5.848 1.784 8.423-5.528 6.456-10.763 13.397-15.693 20.776-13.86-15.428-22.318-35.807-22.318-58.13zm87.053 87.05c-5.21 0-10.304-.486-15.264-1.368a260.463 260.463 0 0 1-7.83-37.044c8.165-2.835 14.034-10.58 14.034-19.706 0-3.722-.987-7.216-2.696-10.244 13.818-10.4 28.748-18.223 44.408-23.23 3.324 7.132 10.53 12.087 18.92 12.087a20.75 20.75 0 0 0 9.655-2.378c7.246 7.64 14.033 16.098 20.295 25.32-12.382 33.006-44.248 56.564-81.522 56.564z"/>
<text x="1240.748" y="-138.678" style="fill:#ff2d52;font-size:28.504px;font-family:Just Another Hand" transform="matrix(2.83222 0 0 2.83222 -1973.9 769.205)">
<tspan x="1240.748" y="-138.678" style="text-align:center" text-anchor="middle">Réseau</tspan>
</text>
<path fill="none" stroke="#ff2d52" stroke-width="8" d="M550 335.714c288.57-77.143 482.857-10 482.857-10" stroke-linejoin="round" transform="matrix(1.4701 -.451 .42466 1.5613 -400.77 129.148)" stroke-linecap="round"/>
<path fill="#ff2d52" d="M1228.305 197.72l2.285-51.71 57.17 23.023s4.19 2.226 4.027 5.94c-.164 3.714-4.523 5.293-4.523 5.293z"/>
<g>
<path fill="none" stroke="#ff2d52" stroke-width="8" d="M550 335.714c288.57-77.143 482.857-10 482.857-10" stroke-linejoin="round" transform="matrix(-1.4701 .451 -.42466 -1.5613 2297.572 619.295)" stroke-linecap="round"/>
<path fill="#ff2d52" d="M668.498 550.722l-2.285 51.71-57.17-23.022s-4.19-2.226-4.027-5.94c.164-3.714 4.523-5.293 4.523-5.293z"/>
</g>
<text x="1422.229" y="967.315" style="fill:#333;font-size:134.257px;font-family:Just Another Hand" transform="translate(0 27.638)">
<tspan x="1422.229" y="967.315">HTTP</tspan>
</text>
<text class="build" x="532.775" y="967.315" style="fill:#ff2d52;font-size:134.257px;font-family:Just Another Hand" transform="translate(0 27.638)">
<tspan x="532.775" y="967.315">Radio + DNS + TCP + TLS +</tspan>
</text>
</g>
</svg>
