<svg xmlns="http://www.w3.org/2000/svg" version="1.1" viewBox="0 0 335 335">
<defs>
<clipPath id="a" clipPathUnits="userSpaceOnUse">
<g opacity=".48768472" fill-rule="evenodd" transform="matrix(1.0425509,0,0,1.0425509,6771.4966,-514.25428)">
<path d="m-61-4224q-1442 0-2338 935-920 959-1064 2698l-9 47q-3 489 123 1131 63 321 127 544l38 178q54 225 130 455 242 738 618 1260 501 501 796 727 272 208 457 247 233 49 626 152 310 74 533 74 14 0 28 0l452-85 322 25 119-6q728-228 1165-591 166-138 321-321l247-315q94-123 391-1053l277-905q54-206 101-498 96-585 68-1018l-9-47q6-1809-1027-2771-466-433-1111-653-617-210-1347-210h-31q-2 0-3 0z" fill="#fce0ce"/>
</g>
</clipPath>
<clipPath id="b" clipPathUnits="userSpaceOnUse">
<path d="m-10.101532 205.44666a131.31982 65.659912 0 1 1 -262.639648 0 131.31982 65.659912 0 1 1 262.639648 0z" transform="matrix(1.2979992,0,0,2.5959986,333.56482,227.49525)" fill="#000080"/>
</clipPath>
</defs>
<g transform="translate(15.906041,-535.88703)">
<g transform="translate(1.5939462,-1.5939395)">
<path d="m-10.101532 205.44666a131.31982 65.659912 0 0 1 -131.319828 65.65991 131.31982 65.659912 0 0 1 -131.31982 -65.65991 131.31982 65.659912 0 0 1 131.31982 -65.65992 131.31982 65.659912 0 0 1 131.319828 65.65992z" transform="matrix(1.2979992,0,0,2.5959986,333.56482,171.64174)" fill="#3795f1"/>
<g transform="translate(-9.9999994e-8,-55.853514)" clip-path="url(#b)">
<g fill-rule="evenodd" style="enable-background:new" transform="translate(-9.1087424,42)">
<g transform="matrix(.02537133 0 0 .02537133 158.13909 806.7581)" fill="#fccfbd">
<g fill="#fccfbd">
<path d="m1284-1731-2569 94-6 3308 2557 60 24-1986q4-224 0-873l-6-603z" fill="#fccfbd"/>
</g>
</g>
<g transform="matrix(.02537133 0 0 .02537133 158.11372 805.94621)">
<path d="m973-1677-960 7q-959 16-956 58 3 34-24 955l-26 1015 17 1274 1966 46 3-1372q-5-108-20-1983z" fill="#ecb8a0"/>
</g>
<g transform="matrix(.02537133 0 0 .02537133 158.26595 806.2253)">
<path d="m1284-1752q-32 0-55 23t-23 55v1685q0 32 23 55t55 23q33 0 56-23t23-55v-1685q0-32-23-55t-56-23zm-2569 92q-32 0-55 23t-23 55v1698q0 32 23 55t55 23 55-23 23-55v-1698q0-32-23-55t-55-23z"/>
</g>
<g>
<g transform="matrix(.02537133 0 0 .02537133 158.54503 788.41462)" fill="#da9e8e">
<g fill="#da9e8e">
<path d="m243-1037q-144 0-334 25-272 35-380 35-23 0-39-2-33-3-65-3-286 0-428 285-82 165-127 503-34 257-26 393 21 341 218 512 243 212 554 287 162 39 337 39 188 0 390-45 529-119 725-589 61-147 82-312l8-135q-128-889-744-982-75-11-171-11z" fill="#da9e8e"/>
</g>
</g>
<g transform="matrix(.02537133 0 0 .02537133 158.51966 850.29531)" fill="#fbf289">
<path d="m1320-1868q-168 449-398 633-309 249-923 249-579 0-855-135-405-197-466-746h-1318q-169 0-358 91-189 90-350 247-370 362-369 815v2582l7434-1v-2582q-1-458-338-815-149-158-327-247-180-91-348-91z" fill="#fbf289"/>
</g>
<g transform="matrix(.02537133 0 0 .02537133 157.88538 850.62513)" fill="#d7df23">
<path d="m1760-1931-151 12q-176 17-289 82-46 50-89 160l-73 210q-96 279-210 348-213 128-510 160-102 11-229 11-114 0-248-9-869-60-1177-478-97-131-125-281l-10-125-57-59-197 536-490-264 170 484q-123-64-265-128-269-119-368-119-5 0-10 0-287 20-405 138-117 116-177 434-46 243 26 1521 36 639 81 1229l6175-74q-6-6-8-30-8-86 45-360l-32-1312q-25-1005-72-1191-80-244-329-322-106-33-218-33-87 0-178 20-65 14-222 72l-144 55 63-342-444 298 167-643z" fill="#d7df23"/>
</g>
</g>
<g transform="matrix(.02537133 0 0 .02537133 -69.92385 493.11764)">
<path d="m10317 12115q-41 0-70 29t-29 70 29 70 70 29h1517q114 28 237 101 218 128 352 341 147 235 193 635 23 200 16 357v2099h-7211v-2522q3-197 110-415 213-435 732-565h1416q41 0 70-29t29-70-29-70-70-29h-1440l-11 3q-349 84-589 295-182 160-289 381-78 163-110 343-16 91-17 156v2719h7607v-2289q7-192-20-414-54-425-219-689-172-275-459-430-91-49-184-81l-83-23-10-2z"/>
<path d="m10299 12155q-41 0-70 29t-29 70v25q6 441-386 617-289 130-896 138-27 0-53 0-272 0-483-47-306-68-456-228-160-172-139-453 3-41-24-72-26-31-67-34-4 0-8 0-36 0-64 24-31 27-34 67-27 371 192 604 178 188 508 272 255 65 585 65h46q594-8 910-129 575-222 567-826v-23q0-41-29-70t-70-29z"/>
</g>
</g>
<g fill-rule="evenodd" style="enable-background:new" transform="translate(-8.4308614,42)">
<g transform="matrix(-.02537133 0 0 .02537133 245.89854 723.18492)">
<path fill="#fbd2bd" d="m-480-1174q-165 0-265 161-63 101-94 316-37 262 7 535 121 759 791 1240 135 97 267 97 25 0 51-4 88-13 145-58 450-17 435-604-5-206-67-443-52-196-104-287-88-154-481-237l-3-18q-43-194-204-404l-153-171q-95-75-216-107-58-16-109-16z"/>
</g>
<g transform="matrix(-.02537133 0 0 .02537133 252.21601 722.3984)">
<path fill="#ecb8a0" d="m-235-797q-192 0-136 581 58 595 358 863 109 98 231 133l163 6q14-6-32-76-68-105-98-172-123-281 83-494-63-245-172-464l-96-171q-134-164-256-199-24-7-45-7z"/>
</g>
<g transform="matrix(-.02537133 0 0 .02537133 247.14173 729.78146)">
<path fill="#cb8d71" d="m-3-447q-3 0-6 1l-65 27q-97 45-128 122-28 68-28 237 0 164 94 330 90 159 177 170 60 8 112 8 41 0 76-5-118-68-191-193-146-251 80-536-40-48-69-97l-29-52q-9-12-23-12z"/>
</g>
<g transform="matrix(-.02537133 0 0 .02537133 251.37875 723.18492)">
<g>
<path d="m-292-911q-25 0-50 4l-15 2-10 11-32 41q-33 51-53 115-62 201 25 462 6 19 23 27l36 3q18-6 27-23 8-18 2-36-66-200-37-357 18-95 65-155 8-1 17-1 173 0 340 300 125 225 202 513-48 42-82 95-51 79-58 166-18 208 203 422 13 13 33 13 19 0 33-14t13-33q0-20-14-33-189-183-175-346 7-83 67-156l59-58 27-18-8-32q-67-265-183-496-209-416-455-416zm31-346q-35 0-69 6-168 29-270 194-69 111-104 338-42 276 2 563 122 795 828 1302 155 111 318 111 79 0 150-26 60-21 100-55 26-23 30-57 3-35-19-62-22-26-57-29-5-1-10-1-28 0-51 19-42 34-109 42-18 2-35 2-106 0-219-81-634-455-756-1173-44-259-11-505 27-205 86-299 63-102 155-118 20-3 41-3 71 0 157 38 62 28 110 64 75 70 153 174 140 187 177 356 8 34 37 53 20 12 43 12 10 0 20-2 34-7 53-36t11-64q-46-209-214-430l-114-134-54-55-5-4q-60-47-142-84-123-56-232-56z"/>
<path d="m43-580-88 5q-95 17-160 77-14 13-15 32-1 20 12 34 14 15 34 15 19 0 32-12 45-41 115-54l61-4q3 0 5 0 16 0 29-11 15-12 17-31t-11-34l-31-17zm146 346q-9 0-17 4l-106 68q-108 88-153 212-80 223 69 509 13 25 41 25l22-5q17-9 23-27 6-19-3-36-130-250-64-433 35-99 124-173l83-54q18-7 25-25 8-18 0-36-7-18-26-25-9-4-18-4z"/>
<path d="m-269 225q-17 0-29 11-14 13-15 32-2 20 11 34 37 41 104 142 142 208 241 279 95 67 198 67 85 0 175-45 39-19 71-19 23 0 42 10 52 33 78 153 17 82 17 164-1 19 13 33 13 14 33 15 19 0 33-14 14-13 14-32 0-93-17-178-34-164-121-220-43-26-92-26-53 0-112 30-70 34-134 34-73 0-137-44-89-60-224-260-79-114-112-151-13-14-32-15-3 0-5 0z"/>
</g>
</g>
<g transform="matrix(.02537133 0 0 .02537133 70.963184 723.18492)">
<path fill="#fbd2bd" d="m-480-1174q-165 0-265 161-63 101-94 316-37 262 7 535 121 759 791 1240 135 97 267 97 25 0 51-4 88-13 145-58 450-17 435-604-5-206-67-443-52-196-104-287-88-154-481-237l-3-18q-43-194-204-404l-153-171q-95-75-216-107-58-16-109-16z"/>
</g>
<g transform="matrix(.02537133 0 0 .02537133 64.645721 722.3984)">
<path fill="#ecb8a0" d="m-235-797q-192 0-136 581 58 595 358 863 109 98 231 133l163 6q14-6-32-76-68-105-98-172-123-281 83-494-63-245-172-464l-96-171q-134-164-256-199-24-7-45-7z"/>
</g>
<g transform="matrix(.02537133 0 0 .02537133 69.719985 729.78146)">
<path fill="#cb8d71" d="m-3-447q-3 0-6 1l-65 27q-97 45-128 122-28 68-28 237 0 164 94 330 90 159 177 170 60 8 112 8 41 0 76-5-118-68-191-193-146-251 80-536-40-48-69-97l-29-52q-9-12-23-12z"/>
</g>
<g transform="matrix(.02537133 0 0 .02537133 65.482973 723.18492)">
<g>
<path d="m-292-911q-25 0-50 4l-15 2-10 11-32 41q-33 51-53 115-62 201 25 462 6 19 23 27l36 3q18-6 27-23 8-18 2-36-66-200-37-357 18-95 65-155 8-1 17-1 173 0 340 300 125 225 202 513-48 42-82 95-51 79-58 166-18 208 203 422 13 13 33 13 19 0 33-14t13-33q0-20-14-33-189-183-175-346 7-83 67-156l59-58 27-18-8-32q-67-265-183-496-209-416-455-416zm31-346q-35 0-69 6-168 29-270 194-69 111-104 338-42 276 2 563 122 795 828 1302 155 111 318 111 79 0 150-26 60-21 100-55 26-23 30-57 3-35-19-62-22-26-57-29-5-1-10-1-28 0-51 19-42 34-109 42-18 2-35 2-106 0-219-81-634-455-756-1173-44-259-11-505 27-205 86-299 63-102 155-118 20-3 41-3 71 0 157 38 62 28 110 64 75 70 153 174 140 187 177 356 8 34 37 53 20 12 43 12 10 0 20-2 34-7 53-36t11-64q-46-209-214-430l-114-134-54-55-5-4q-60-47-142-84-123-56-232-56z"/>
<path d="m43-580-88 5q-95 17-160 77-14 13-15 32-1 20 12 34 14 15 34 15 19 0 32-12 45-41 115-54l61-4q3 0 5 0 16 0 29-11 15-12 17-31t-11-34l-31-17zm146 346q-9 0-17 4l-106 68q-108 88-153 212-80 223 69 509 13 25 41 25l22-5q17-9 23-27 6-19-3-36-130-250-64-433 35-99 124-173l83-54q18-7 25-25 8-18 0-36-7-18-26-25-9-4-18-4z"/>
<path d="m-269 225q-17 0-29 11-14 13-15 32-2 20 11 34 37 41 104 142 142 208 241 279 95 67 198 67 85 0 175-45 39-19 71-19 23 0 42 10 52 33 78 153 17 82 17 164-1 19 13 33 13 14 33 15 19 0 33-14 14-13 14-32 0-93-17-178-34-164-121-220-43-26-92-26-53 0-112 30-70 34-134 34-73 0-137-44-89-60-224-260-79-114-112-151-13-14-32-15-3 0-5 0z"/>
</g>
</g>
</g>
<g style="enable-background:new" fill-rule="evenodd" transform="translate(-7.8505234,42)">
<g transform="matrix(.02537133 0 0 .02537133 157.83463 689.44104)" fill="#fde8dd">
<path d="m-61-4224q-1442 0-2338 935-920 959-1064 2698l-9 47q-3 489 123 1131 63 321 127 544l38 178q54 225 130 455 242 738 618 1260 501 501 796 727 272 208 457 247 233 49 626 152 310 74 533 74 14 0 28 0l452-85 322 25 119-6q728-228 1165-591 166-138 321-321l247-315q94-123 391-1053l277-905q54-206 101-498 96-585 68-1018l-9-47q6-1809-1027-2771-466-433-1111-653-617-210-1347-210h-31q-2 0-3 0z" fill="#fde8dd"/>
</g>
<g transform="matrix(.02537133 0 0 .02537133 158.08835 695.68239)" fill="#fccfbd">
<path d="m-106-3537q-860 0-1368 392-168 129-276 287l-75 132-550 1796 254 541 120 931-543 694 670 1356 124 148q164 177 366 325 645 473 1424 473t1433-466q328-234 499-467l572-1239-403-824 110-906 201-425-637-1762q-21-59-75-148-108-179-276-330-538-483-1469-507-51-1-101-1z" fill="#fccfbd"/>
</g>
</g>
<g fill-rule="evenodd" style="enable-background:new" transform="translate(-5.0818414,42)">
<g transform="matrix(.02537133 0 0 .02537133 156.64218 734.72887)" fill="#fccfbd">
<g fill="#fccfbd">
<path fill="#fccfbd" d="m-4-622q-154 0-345 313-80 130-124 254-44 128-28 186 28 98 255 304 113 104 221 187 129-69 259-153 262-167 271-240-123-379-208-552-145-292-293-299-4 0-8 0z"/>
</g>
</g>
<g transform="matrix(.02537133 0 0 .02537133 154.35876 734.27219)" fill="#da9e8e">
<g fill="#da9e8e">
<path fill="#da9e8e" d="m49-640q-114 0-241 155-107 130-178 294l-141 406 223-196q237-199 304-212 123-46 249-64l101-9-78-138-91-165q-71-71-148-71zm-332 876q-11 21 2 51l16 27 129 170 201 156 447-282-141-119-324 171-330-174z"/>
</g>
</g>
<g transform="matrix(.02537133 0 0 .02537133 148.34575 737.92566)">
<path d="m183-496-484 580 603 412q-139-145-257-289l-91-115q106-137 178-376l51-212z"/>
</g>
</g>
<g style="enable-background:new" transform="translate(-7.6316094,42)">
<g fill-rule="evenodd" transform="matrix(.02537133 0 0 .02537133 -69.92385 493.11764)" fill="#da9e8e">
<g fill="#da9e8e">
<g transform="translate(7416,7827)">
<g fill="#da9e8e">
<g fill="#da9e8e">
<path fill="#da9e8e" d="m-484-710-609 146 404 366-183 159 148 129-127 218 687 326 176 58 293 16q35 2 70 2 55 0 106-5 269-28 363-177 105-168 188-448l62-247-481-202-1097-341z"/>
</g>
</g>
</g>
<g transform="translate(10482,7877)">
<g fill="#da9e8e">
<g fill="#da9e8e">
<g fill="#da9e8e">
<path d="m-949-740-170 518 518-138-348-380z"/>
<path d="m488-672-996 263-624 133 40 181q54 209 126 354 138 274 526 370 170 43 318 43 21 0 42-1l72-29 223-7 343-80 418-292-49-235 101-73-224-167 329-145-645-315z"/>
</g>
</g>
</g>
</g>
</g>
</g>
</g>
<g fill-rule="evenodd" style="enable-background:new" transform="matrix(.02537133 0 0 .02537133 110.49684 737.85994)">
<g>
<path d="m-27-78q-18 0-24 3-35 18-305 73-53 40-114 58-60 18-113 59 95 45 254 81 192 44 384 44 126 0 252-19 64 3 125 3 81 0 157-5l101-9-64-54q-33-32-106-82-91-64-143-78l-234-52q-123-22-170-22z" fill="#fff"/>
<path d="m75-127q-123 0-192 72l402 13q-32-40-85-62-52-22-115-23-5 0-10 0z" fill="#4a4a4c"/>
</g>
<g transform="translate(78,93)">
<path d="m-195-148q-51 52-52 131-3 94 69 166l373-18q29-31 40-61t12-77q3-76-40-128l-402-13z" fill="#4a4a4c"/>
</g>
<g transform="translate(86,19)">
<path d="m-18-123-81 4q-43 1-82 35l-61 71q-27 36-2 66 23 29 70 29 2 0 3 0l74-11 103-17q7-1 13-1 47 0 95 32 56 38 103 38 61-1 29-82l-45-81 2-9q-6-15-40-42t-111-32z" fill="#232122"/>
</g>
<g transform="translate(78,71)">
<path d="m-2-80q-34 0-59 25-26 26-28 64-1 38 24 64 25 27 62 28 1 0 3 0 34 0 59-25 26-26 27-64 1-37-24-64t-61-28q-1 0-3 0zm-131-103-5 2q-61 29-94 76-34 48-36 109-2 121 77 183l25-32q-64-50-61-150 2-100 103-148 23-3 46-3 49 0 99 13 46 12 136 48l58 22q14 36 12 78-1 43-11 70t-36 54l29 28q31-33 45-67 13-33 14-84 1-54-19-103l-4-7-72-29q-93-38-144-51l-162-9z"/>
</g>
<g transform="translate(202,-18)">
<path d="m-2-85q-32 0-54 24-24 25-24 60-1 35 23 60 23 25 57 26 33 0 57-24 23-25 24-60 0-35-23-61-24-25-57-25-1 0-3 0z" fill="#fff"/>
</g>
<g>
<path d="m-71-284q-338 0-621 185l27 41q272-177 597-177 101 0 207 17 224 37 380 121l24-43q-163-89-397-126-111-18-217-18zm-505 375-61 29q40 40 150 81 198 75 494 83l29 1 207-15 208-11 182-8 80-16-38-50q-67 19-156 19-31 0-64-2l-219 11-228 14q-280-8-459-72-90-33-125-64z"/>
<path d="m102-188-231 9q-142 17-312 99l-147 83q-83 64-115 104-16 20-16 27 15 3 35 3 27 0 64-5 129-17 281-86l222-67q120-33 187-33 4 0 8 0 27-2 52-2 105 0 197 36 62 24 174 98 150 101 195 156l15 9q1 0 2 0 10 0 2-26l-140-155q-82-80-186-146-130-83-287-104z"/>
</g>
</g>
<g fill-rule="evenodd" style="enable-background:new" transform="matrix(.02537133 0 0 .02537133 188.91962 738.08828)">
<g>
<path d="m7-78q-48 0-162 17l-236 44q-52 13-146 73-74 48-108 79l-66 51 101 12 282 12q157 29 314 29 159 0 317-30 157-29 251-70-52-42-107-65-54-23-106-65-268-64-302-83-8-4-32-4z" fill="#fff"/>
<path d="m-101-131q-129 0-196 79h402q-34-37-86-58-52-20-114-21-3 0-6 0z" fill="#4a4a4c"/>
</g>
<g transform="translate(-95,96)">
<path d="m-202-148q-45 51-45 127-1 46 9 76 11 31 39 64l372 30q74-71 74-164 1-78-47-133z" fill="#4a4a4c"/>
</g>
<g transform="translate(-104,10)">
<path d="m-45-119q-76 2-112 28-35 26-40 40-3 8 1 10l-48 80q-35 80 26 82 1 0 3 0 46 0 102-34 46-29 92-29 8 0 16 1 55 6 103 21l73 14q3 0 6 0 45 0 69-27 25-30-1-66l-58-73q-38-36-80-39l-82-6-70-2z" fill="#232122"/>
</g>
<g transform="translate(-95,72)">
<path d="m-1-84q-34 0-59 25-26 27-26 64 0 38 25 64 25 27 62 28 1 0 3 0 34 0 59-26t26-64q0-38-25-64-26-27-62-27-1 0-3 0zm71-105q-45 0-92 10-52 11-146 46l-65 24-9 2-3 8q-21 43-23 102 0 50 12 84 12 35 42 69l30-27q-25-28-34-55t-9-71q0-42 15-77l58-21q90-33 137-43l146-5q99 52 98 151 0 101-66 148l24 33q81-60 83-180 0-127-123-190l-6-2q-34-6-69-6z"/>
</g>
<g transform="translate(30,-17)">
<path d="m-2-85q-32 0-54 24-24 25-24 60-1 35 23 60 23 25 57 26 33 0 57-24 23-25 24-60 0-35-23-61-24-25-57-25-1 0-3 0z" fill="#fff"/>
</g>
<g>
<path d="m24-283q-85 0-175 11-147 19-288 67l-113 46 23 44q2-1 109-44 134-46 275-64 85-11 166-11 349 0 632 198l29-41q-295-206-658-206zm519 405q-32 27-119 53-171 51-443 51-5 0-11 0l-228-22-218-18-158-10-61-14-18 54 68 16 171 11 208 18 236 22h14q290 0 483-65 115-39 147-74l-71-22z"/>
<path d="m-33-195q-37 0-76 4-158 15-291 94-106 63-191 139-53 49-145 151-10 25 1 25 1 0 2 0 7-1 16-8l42-39q62-51 158-110 114-70 177-93 84-30 179-30 35 0 71 4 68 1 193 40l220 75q203 93 331 102 14 1 27 1 43 0 61-11-38-20-168-127l-145-88q-167-88-308-109-71-20-154-20z"/>
</g>
</g>
<g style="enable-background:new" transform="translate(-7.4540094,42)">
<g fill-rule="evenodd" transform="matrix(.02537133 0 0 .02537133 -69.92385 493.11764)" fill="#cc7226">
<g fill="#cc7226">
<g transform="translate(10552,7421)">
<g fill="#cc7226">
<g fill="#cc7226">
<path fill="#cc7226" d="m661-334-33 53 169 127q182 153 256 297l56-28q-80-154-267-314l-181-135zm354 172-46 42q153 169 208 307l58-23q-59-150-220-326zm-627-131q-11 0-21 2-143 30-1498 419l-104 207 771-154q730-142 832-142 7 0 12 1l639 146q-20-72-59-124-48-65-257-207-217-148-315-148z"/>
</g>
</g>
</g>
<g transform="translate(7293,7349)">
<g fill="#cc7226">
<g fill="#cc7226">
<path fill="#cc7226" d="m-826-398q-84 43-193 143-103 97-137 158l55 30q29-53 127-144 101-93 176-132l-28-55zm242-50q-104 54-213 129-214 147-284 273l55 30q63-115 272-257 105-71 199-120l-29-55zm124 90q-169 95-240 129-44 21-192 151l-139 126 610-43q2 0 4 0 80 0 797 212 373 109 777 232l-18-96q-13-50-13-66-1041-482-1210-545-106-40-251-74l-125-26z"/>
</g>
</g>
</g>
</g>
</g>
</g>
<g style="enable-background:new" transform="translate(-7.8505594,42)">
<g fill-rule="evenodd" transform="matrix(.02433583 0 0 .02433583 -6.9553242 701.95584)" clip-path="url(#a)" fill="#cc7226">
<g fill="#cc7226" transform="translate(6982,3892)">
<g fill="#cc7226">
<path d="m-73-1925 181 280 46-30-181-280-46 30z"/>
<path d="m143-1905 189 299 47-30-190-298-46 29z"/>
<path d="m590-1565-167-286-47 28 167 286 47-28z"/>
<path d="m559-1810 190 226 42-35-191-226-41 35z"/>
<path d="m865-1785 190 226 42-35-190-226-42 35z"/>
<path d="m1135-1743 148 208 44-32-148-208-44 32z"/>
<path d="m1381-1207-191-226-42 36 191 225 42-35z"/>
<path d="m1117-1109 191 226 42-36-191-225-42 35z"/>
<path d="m1484-1085 87 281 53-16-88-281-52 16z"/>
<path d="m1838-1032-115-171-45 30 114 171 46-30z"/>
<path d="m2076-1061-115-171-46 31 115 171 46-31z"/>
<path d="m2136-1024 82 188 50-21-82-189-50 22z"/>
<path d="m2333-965 82 189 51-22-82-189-51 22z"/>
<path d="m2496-969 133 157 42-35-133-158-42 36z"/>
<path d="m2818-1064-132-158-42 36 133 157 41-35z"/>
<path d="m2211-661 133 157 42-35-133-157-42 35z"/>
<path d="m2951-851 133 157 42-36-133-157-42 36z"/>
<path d="m2432-386 133 157 42-35-133-157-42 35z"/>
<path d="m2171-1435 161 124 34-43-162-124-33 43z"/>
<path d="m2445-1486 130 156 43-35-130-156-43 35z"/>
<path d="m2364-1809 114 167 46-31-115-167-45 31z"/>
<path d="m2325-2122 114 167 45-31-114-167-45 31z"/>
<path d="m2255-1946-114-168-45 31 114 167 45-30z"/>
<path d="m2370-2391 114 167 45-31-114-167-45 31z"/>
<path d="m1353-811 118 270 50-22-118-270-50 22z"/>
<path d="m1372-436-82-283-52 15 81 283 53-15z"/>
<path d="m1580-149 50-24-128-265-50 24 128 265z"/>
<path d="m1375-1498 137 261 49-26-138-261-48 26z"/>
<path d="m1362-1707 221 196 36-41-221-196-36 41z"/>
<path d="m1800-1547 179 235 43-33-179-235-43 33z"/>
<path d="m1795-1693 259 144 26-48-259-144-26 48z"/>
<path d="m2370-1578-225-193-35 41 224 194 36-42z"/>
<path d="m1866-1980 177 185 40-37-177-186-40 38z"/>
<path d="m1572-1998 141 215 46-31-142-214-45 30z"/>
<path d="m2531-2028 224 194 36-42-224-194-36 42z"/>
<path d="m2771-2028 224 194 36-42-224-194-36 42z"/>
<path d="m2562-1787 151 147 38-39-151-148-38 40z"/>
<path d="m2723-1436 130 157 42-36-130-156-42 35z"/>
<path d="m2920-1484 108 173 46-29-107-173-47 29z"/>
<path d="m2840-1737 151 147 38-39-151-147-38 39z"/>
<path d="m2582-2957 91 195 49-23-90-195-50 23z"/>
<path d="m3018-2903-151-147-38 39 151 148 38-40z"/>
<path d="m3132-2739 151 147 38-39-151-147-38 39z"/>
<path d="m2644-3096 132 164 43-35-133-163-42 34z"/>
<path d="m2857-3100 38-39-151-147-38 39 151 147z"/>
<path d="m2918-3540 151 147 38-39-151-147-38 39z"/>
<path d="m2956-3779 151 147 38-39-151-147-38 39z"/>
<path d="m2716-3488 143 108 33-44-144-107-32 43z"/>
<path d="m2766-3720 144 108 33-44-144-108-33 44z"/>
<path d="m3080-3160-151-147-38 39 151 148 38-40z"/>
<path d="m3918-2834 200 66 17-52-200-66-17 52z"/>
<path d="m2561-2364 121 172 45-32-121-172-45 32z"/>
<path d="m3149-2073-166-127-33 44 166 127 33-44z"/>
<path d="m3171-2128 166 127 33-44-166-127-33 44z"/>
<path d="m3063-1885 166 128 34-44-167-127-33 43z"/>
<path d="m3097-1653 184 100 26-48-184-100-26 48z"/>
<path d="m3119-1484 133 160 42-35-133-160-42 35z"/>
<path d="m2726-2477 120 172 45-32-121-172-44 32z"/>
<path d="m2756-2724 121 172 45-31-121-172-45 31z"/>
<path d="m3135-2612-162-134-35 42 162 134 35-42z"/>
<path d="m2959-2403 150 147 39-40-151-146-38 39z"/>
<path d="m3146-2484 163 132 35-43-164-132-34 43z"/>
<path d="m3038-2992 174 117 31-46-175-117-30 46z"/>
<path d="m2530-2683 121 172 45-31-121-172-45 31z"/>
<path d="m2332-1134-221-196-36 41 221 196 36-41z"/>
<path d="m2619-1115-163-172-40 38 163 172 40-38z"/>
<path d="m1912-997 138 261 48-26-137-261-49 26z"/>
<path d="m1675-883 137 261 49-26-138-261-48 26z"/>
<path d="m1947-648 99 280 52-19-99-279-52 18z"/>
<path d="m2153-407 155 251 47-28-155-252-47 29z"/>
<path d="m2722-624 133 204 45-30-132-204-46 30z"/>
<path d="m2977-603 133 204 46-30-133-204-46 30z"/>
<path d="m2498-651 123 271 50-23-123-270-50 22z"/>
<path d="m2734-921 108 170 46-29-108-170-46 29z"/>
<path d="m2880-1126 198 165 35-42-198-165-35 42z"/>
<path d="m1652-1385 161 121 32-44-160-121-33 44z"/>
<path d="m1376-1857 161 121 33-44-161-121-33 44z"/>
<path d="m866-1470 123 152 43-34-124-152-42 34z"/>
<path d="m625-1108 189 182 38-40-189-181-38 39z"/>
<path d="m637-858 123 152 43-35-123-152-43 35z"/>
<path d="m999-1117 42-35-115-142-43 34 116 143z"/>
<path d="m885-1059 207 278 44-33-208-278-43 33z"/>
<path d="m877-793 200 251 43-34-200-251-43 34z"/>
<path d="m1111-459 129 183 45-32-130-182-44 31z"/>
<path d="m1443-48-38-226-54 9 38 226 54-9z"/>
<path d="m1822-63-69-218-52 16 69 219 52-17z"/>
<path d="m2131-97-125-192-46 30 125 192 46-30z"/>
<path d="m1123-85-68-175-51 20 68 175 51-20z"/>
<path d="m1516-35 53 178 53-16-54-178-52 16z"/>
<path d="m1211-64 38 179 54-12-38-179-54 12z"/>
<path d="m1608-629 68 176 51-20-68-175-51 19z"/>
<path d="m1819-445 49 182 52-14-48-182-53 14z"/>
<path d="m805-585 200 250 43-34-200-250-43 34z"/>
<path d="m584-669 113 150 43-33-112-150-44 33z"/>
<path d="m773-134-132-293-50 22 132 293 50-22z"/>
<path d="m928-127-132-293-50 22 132 293 50-22z"/>
<path d="m670 63-132-292-50 22 132 293 50-23z"/>
<path d="m749 19 55 284 54-11-56-284-53 11z"/>
<path d="m896-24 116 262 50-22-116-262-50 22z"/>
<path d="m1147 125 55 281 54-11-56-281-53 11z"/>
<path d="m1360 120 33 280 54-6-33-280-54 6z"/>
<path d="m512 8-132-293-50 23 132 293 50-23z"/>
<path d="m219-112 132 293 50-23-132-292-50 22z"/>
<path d="m116 8-132-293-50 23 132 293 50-23z"/>
<path d="m-126-119-72-313-53 12 72 313 53-12z"/>
<path d="m-237 102-72-312-53 12 72 313 53-13z"/>
<path d="m-476 75 43-318-54-7-43 318 54 7z"/>
<path d="m-705-67 148-285-49-25-148 284 49 26z"/>
<path d="m-931 46 113-297-51-20-113 298 51 19z"/>
<path d="m-823 249 51 19 112-298-51-19-112 298z"/>
<path d="m-114-22 38 315 54-6-37-315-55 6z"/>
<path d="m87 180 80 304 53-14-80-304-53 14z"/>
<path d="m269 253 80 304 53-14-80-304-53 14z"/>
<path d="m500 192 80 304 53-14-80-304-53 14z"/>
<path d="m682 326 51 187 53-14-51-188-53 15z"/>
<path d="m1686 72 66 177 51-19-66-177-51 19z"/>
<path d="m1885-3 125 192 46-30-125-192-46 30z"/>
<path d="m-1192 76 155-284-48-26-156 283 49 27z"/>
<path d="m-188-1908 108 255 51-22-108-254-51 21z"/>
<path d="m-552-1664 50 21 114-268-50-22-114 269z"/>
<path d="m-749-1650 47 29 160-266-47-28-160 265z"/>
<path d="m-950-1617 48 27 146-259-48-27-146 259z"/>
<path d="m-952-1879-177 260 45 31 177-260-45-31z"/>
<path d="m-1373-1594 41 35 191-226-42-35-190 226z"/>
<path d="m-1605-1619 37 41 199-181-37-41-199 181z"/>
<path d="m-1620-1126 117-177-45-30-118 177 46 30z"/>
<path d="m-1626-919 42 36 191-226-42-35-191 225z"/>
<path d="m-1900-820 52 16 88-281-53-16-87 281z"/>
<path d="m-2069-1002 115-171-45-30-115 171 45 30z"/>
<path d="m-2305-1030 113-171-44-31-115 171 46 31z"/>
<path d="m-2544-857 51 21 82-188-50-22-83 189z"/>
<path d="m-2641-1354 34 43 161-124-33-43-162 124z"/>
<path d="m-2893-1365 42 35 130-156-42-35-130 156z"/>
<path d="m-2685-1840-114 167 45 31 115-167-46-31z"/>
<path d="m-2645-2153-115 167 45 31 115-167-45-31z"/>
<path d="m-2531-1946 46 30 114-167-45-31-115 168z"/>
<path d="m-2657-2425-114 167 45 31 114-167-45-31z"/>
<path d="m-1797-563 50 22 118-270-51-22-117 270z"/>
<path d="m-1648-436 53 15 81-283-52-15-82 283z"/>
<path d="m-1808-1205 49 26 137-261-48-25-138 260z"/>
<path d="m-1903-1511 221-196-36-41-221 196 36 41z"/>
<path d="m-2298-1345 44 33 178-235-43-33-179 235z"/>
<path d="m-2360-1594 35 42 178-149-35-42-178 149z"/>
<path d="m-2645-1578 36 42 224-194-36-41-224 193z"/>
<path d="m-2358-1832 40 37 175-185-39-38-176 186z"/>
<path d="m-1848-1998-46-30-141 214 45 31 142-215z"/>
<path d="m-3066-1876 36 42 224-194-36-42-224 194z"/>
<path d="m-3026-1679 38 39 151-147-38-40-151 148z"/>
<path d="m-3088-2807 26 48 184-99-26-48-184 99z"/>
<path d="m-3415-2327 34 43 167-134-35-43-166 134z"/>
<path d="m-3488-2418-35-43-166 134 34 43 167-134z"/>
<path d="m-3668-2036 167-134-35-43-166 134 34 43z"/>
<path d="m-3294-2903 39 40 151-148-39-39-151 147z"/>
<path d="m-3114-2916 42 34 133-163-43-35-132 164z"/>
<path d="m-3132-3100 151-147-38-39-151 147 38 39z"/>
<path d="m-3317-3121 151-147-38-39-151 147 38 39z"/>
<path d="m-3244-3422 38 39 151-147-38-39-151 147z"/>
<path d="m-3406-3462 39 39 151-147-39-40-151 148z"/>
<path d="m-3285-3725 39 39 151-147-39-39-151 147z"/>
<path d="m-3702-3696 39 40 150-148-38-39-151 147z"/>
<path d="m-3466-3745 38 39 151-147-38-39-151 147z"/>
<path d="m-3002-2224 45 32 121-172-45-32-121 172z"/>
<path d="m-3166-2337 44 32 121-172-45-32-120 172z"/>
<path d="m-3250-2012 38 39 151-146-38-40-151 147z"/>
<path d="m-3417-2007 151-147-38-39-151 146 38 40z"/>
<path d="m-3197-2540 45 32 120-172-45-32-120 172z"/>
<path d="m-3390-2561 45 31 121-172-45-31-121 172z"/>
<path d="m-3397-2963-177 110 29 46 177-110-29-46z"/>
<path d="m-3839-2819 37 40 154-141-37-40-154 141z"/>
<path d="m-3556-3128 178-110-29-46-178 110 29 46z"/>
<path d="m-2971-2542 45 31 120-172-44-31-121 172z"/>
<path d="m-2571-1093 221-196-37-41-221 196 37 41z"/>
<path d="m-2854-1077 163-172-40-38-163 172 40 38z"/>
<path d="m-2681-1024-163 172 40 38 163-173-40-37z"/>
<path d="m-3121-1407 35 43 169-140-35-43-169 140z"/>
<path d="m-3378-1703 34 42 170-140-35-42-169 140z"/>
<path d="m-3562-1722 170-140-35-42-169 140 34 42z"/>
<path d="m-4136-1464 28 47 189-112-28-47-189 112z"/>
<path d="m-3494-2665-170 140 35 43 170-140-35-43z"/>
<path d="m-3835-2571 43 34 136-172-43-34-136 172z"/>
<path d="m-4060-2122 82-204-51-20-82 204 51 20z"/>
<path d="m-3895-2308 43 34 136-172-43-34-136 172z"/>
<path d="m-4099-2561 30 46 183-122-30-46-183 122z"/>
<path d="m-3601-1415 170-140-35-42-170 140 35 42z"/>
<path d="m-3373-1457 35 42 169-140-35-42-169 140z"/>
<path d="m-3050-1060 128-178-44-32-128 179 44 31z"/>
<path d="m-3089-790 45 32 128-178-45-32-128 178z"/>
<path d="m-2676-784-128 179 45 32 128-179-45-32z"/>
<path d="m-3033-544 45 32 128-178-45-32-128 178z"/>
<path d="m-2847-232 51 18 75-206-52-19-74 207z"/>
<path d="m-3034-284 46 30 122-186-46-30-122 186z"/>
<path d="m-3402-818 34 43 179-140-34-43-179 140z"/>
<path d="m-3671-1250 38 40 121-115-37-40-122 115z"/>
<path d="m-3341-1144 205-121-28-47-205 121 28 47z"/>
<path d="m-3519-1184-145 100 31 45 145-100-31-45z"/>
<path d="m-3501-946 44 33 95-128-44-32-95 127z"/>
<path d="m-3246-683 35 42 90-75-36-42-89 75z"/>
<path d="m-2640-503 50 21 92-222-50-21-92 222z"/>
<path d="m-2634-258 45 33 141-195-44-32-142 194z"/>
<path d="m-2521-30 142-194-44-32-142 194 44 32z"/>
<path d="m-2296 187 49 25 106-216-49-24-106 215z"/>
<path d="m-119 586 55 8 24-171-55-8-24 171z"/>
<path d="m-954 522 55 2 4-180-55-1-4 179z"/>
<path d="m-2374-762 49 26 136-261-47-26-138 261z"/>
<path d="m-2137-648 49 26 137-261-49-26-137 261z"/>
<path d="m-2400-485 43 34 132-168-42-34-133 168z"/>
<path d="m-2251-105 152-314-50-24-152 315 50 23z"/>
<path d="m-1854-85 59-282-53-12-60 282 54 12z"/>
<path d="m-2049 85 60-282-54-12-59 282 53 12z"/>
<path d="m-1287 519 54 1 8-288-55-2-7 289z"/>
<path d="m-1117 446 54 1 8-288-55-2-7 289z"/>
<path d="m-628 531 52 15 77-278-53-15-76 278z"/>
<path d="m-440 529 55 3 15-287-55-3-15 287z"/>
<path d="m-276 202 44 187 54-13-45-186-53 12z"/>
<path d="m-820 361 25 190 54-7-25-190-54 7z"/>
<path d="m-1709 170 92-340-53-14-92 339 53 15z"/>
<path d="m-1617 374 53 14 93-339-53-14-93 339z"/>
<path d="m-2093-1308 33 44 161-121-33-44-161 121z"/>
<path d="m-1824-1814 32 44 161-121-32-43-161 120z"/>
<path d="m-1436-1315 42 34 124-152-43-35-123 153z"/>
<path d="m-1413-813 45 31 174-253-46-31-173 253z"/>
<path d="m-1396-576 42 34 200-251-42-34-200 251z"/>
<path d="m-1561-308 44 32 130-183-45-31-129 182z"/>
<path d="m-1349-65 69-175-51-20-69 175 51 20z"/>
<path d="m-2004-473 52 20 68-176-51-19-69 175z"/>
<path d="m-1324-369 42 34 201-250-43-34-200 250z"/>
<path d="m-1032-575-131 292 50 23 131-293-50-22z"/>
<path d="m-967-373 50 23 132-293-50-22-132 292z"/>
<path d="m-229-857 58 279 53-11-58-279-53 11z"/>
<path d="m-738-471 50 23 131-293-50-22-131 292z"/>
<path d="m-459-456 55 4 13-231-55-3-13 230z"/>
<path d="m-52-658 82 217 51-20-81-217-52 20z"/>
<path d="m169-544 82 217 51-19-82-217-51 19z"/>
<path d="m301-763 155 356 50-22-155-356-50 22z"/>
<path d="m2248-54 70 140 49-24-70-140-49 24z"/>
<path d="m2645 9-170-250-45 30 170 250 45-30z"/>
<path d="m2897 3-120-260-49 22 120 260 49-22z"/>
<path d="m2776-334 130 100 33-44-130-100-33 44z"/>
<path d="m1236 430 70 290 53-12-70-290-53 12z"/>
<path d="m1477 544 90 240 51-20-90-240-51 20z"/>
<path d="m1637 333 70 200 51-18-70-200-51 18z"/>
<path d="m1886 260 70 340 53-12-70-340-53 12z"/>
<path d="m2128 336 140 290 49-24-140-290-49 24z"/>
<path d="m2121 121 130 160 43-34-130-160-43 34z"/>
<path d="m2437 243 80 240 51-18-80-240-51 18z"/>
<path d="m2421 41 130 170 43-34-130-170-43 34z"/>
<path d="m2769 136-53 16 90 310 53-16-90-310z"/>
<path d="m2923-57 160 160 39-38-160-160-39 38z"/>
<path d="m2918 206 130 260 49-24-130-260-49 24z"/>
<path d="m3243-44-160-190-41 36 160 190 41-36z"/>
<path d="m3163-656 177 228 43-34-177-227-43 33z"/>
<path d="m3190-832 190 100 25-48-190-100-25 48z"/>
<path d="m3290-1047-200-160-35 42 200 160 35-42z"/>
<path d="m3573-974-210-230-41 36 210 230 41-36z"/>
<path d="m3354-1456 180 170 37-40-180-170-37 40z"/>
<path d="m3352-1681 220 90 21-50-220-90-21 50z"/>
<path d="m3294-1880 250 80 17-52-250-80-17 52z"/>
<path d="m3608-2099-210-140-31 46 210 140 31-46z"/>
<path d="m3349-2452 200 110 27-48-200-110-27 48z"/>
<path d="m3286-2740 214 111 25-49-214-110-25 48z"/>
<path d="m3133-3084 200 60 15-52-200-60-15 52z"/>
<path d="m3161-3276 192 60 16-52-191-60-17 52z"/>
<path d="m3153-3494 175 96 26-48-175-96-26 48z"/>
<path d="m3490-3467 193 51 14-52-193-52-14 53z"/>
<path d="m3246-3715 134 148 41-37-135-148-40 37z"/>
<path d="m3647-3069-200-120-29 46 200 120 29-46z"/>
<path d="m3388-2953 140 90 29-46-140-90-29 46z"/>
<path d="m3484-2756 220 200 37-40-220-200-37 40z"/>
<path d="m3628-2873 200 130 29-46-200-130-29 46z"/>
<path d="m3701-3051 230 110 23-50-230-110-23 50z"/>
<path d="m3490-3284 259 55 11-54-258-54-12 53z"/>
<path d="m3811-2356-180-160-37 40 180 160 37-40z"/>
<path d="m3585-2205 230 200 35-42-230-200-35 42z"/>
<path d="m3759-2482 210 120 27-48-210-120-27 48z"/>
<path d="m3843-2641 230 90 19-51-230-90-19 51z"/>
<path d="m3904-3100 260 80 17-52-260-80-17 52z"/>
<path d="m4072-2115-170-180-39 38 170 180 39-38z"/>
<path d="m3662-1968 190 210 41-36-190-210-41 36z"/>
<path d="m3825-1622-140-190-45 32 140 190 45-32z"/>
<path d="m3567-1494 240 170 31-44-240-170-31 44z"/>
<path d="m3793-1034-170-190-41 36 170 190 41-36z"/>
<path d="m3483-837 160 170 39-38-160-170-39 38z"/>
<path d="m3418-583 240 150 29-46-240-150-29 46z"/>
<path d="m3614-43-200-250-43 34 200 250 43-34z"/>
<path d="m3268-113 130 250 49-26-130-250-49 26z"/>
<path d="m3169 219 140 220 47-30-140-220-47 30z"/>
<path d="m2927 514 90 220 51-20-90-220-51 20z"/>
<path d="m2696 480 60 290 53-12-60-290-53 12z"/>
<path d="m2548 856 49-24-150-320-49 24 150 320z"/>
<path d="m2127 685 140 320 51-22-140-320-51 22z"/>
<path d="m1860 1041-40-320-55 6 40 320 55-6z"/>
<path d="m2167 1171-200-380-49 26 200 380 49-26z"/>
<path d="m3604-275 260 230 37-42-260-230-37 42z"/>
<path d="m3748-563 220 140 29-46-220-140-29 46z"/>
<path d="m3821-816-160-150-37 40 160 150 37-40z"/>
<path d="m3766-1154 250 180 33-44-250-180-33 44z"/>
<path d="m3857-1483 290 190 31-46-290-190-31 46z"/>
<path d="m3939-1652 270 160 27-48-270-160-27 48z"/>
<path d="m3885-1975 180 150 35-42-180-150-35 42z"/>
<path d="m4264-2116 37-40-220-210-37 40 220 210z"/>
<path d="m4160-2452 220 110 25-49-220-110-25 49z"/>
<path d="m4134-2640 290 100 17-52-290-100-17 52z"/>
<path d="m4139-2922 260 150 27-48-260-150-27 48z"/>
<path d="m3966-3269 280 70 13-54-280-70-13 54z"/>
<path d="m3786-3479 300 70 13-54-300-70-13 54z"/>
<path d="m4243-3410 260 100 19-52-260-100-19 52z"/>
<path d="m4628-3088-230-160-31 44 230 160 31-44z"/>
<path d="m4658-2869-290-200-31 46 290 200 31-46z"/>
<path d="m4912-3091 21-50-300-130-21 50 300 130z"/>
<path d="m4695-2985 240 190 35-42-240-190-35 42z"/>
<path d="m4826-2620-230-130-27 48 230 130 27-48z"/>
<path d="m4761-2366-190-180-37 40 190 180 37-40z"/>
<path d="m4751-2126-250-240-37 40 250 240 37-40z"/>
<path d="m4632-1995-260-260-39 38 260 260 39-38z"/>
<path d="m4201-1969 190 240 43-34-190-240-43 34z"/>
<path d="m4269-1671 200 320 47-30-200-320-47 30z"/>
<path d="m4498-1843 230 150 29-46-230-150-29 46z"/>
<path d="m4476-1574 210 160 33-44-210-160-33 44z"/>
<path d="m4244-1336 190 170 37-40-190-170-37 40z"/>
<path d="m4119-1113 170 300 47-27-170-300-47 27z"/>
<path d="m3991-849 170 210 43-34-170-210-43 34z"/>
<path d="m4041-499 200 260 43-34-200-260-43 34z"/>
<path d="m4133-74-170-200-41 36 170 200 41-36z"/>
<path d="m3722 12 147 277 49-25-148-277-48 25z"/>
<path d="m3467 104 110 290 51-20-110-290-51 20z"/>
<path d="m3398 366 100 200 49-24-100-200-49 24z"/>
<path d="m3702 362 210 230 41-36-210-230-41 36z"/>
<path d="m3944 130 297 151 25-48-297-151-25 48z"/>
<path d="m4122-128 210 230 41-36-210-230-41 36z"/>
<path d="m4256-504 250 190 33-44-250-190-33 44z"/>
<path d="m4326-704 240 180 33-44-240-180-33 44z"/>
<path d="m4314-1086 220 210 37-40-220-210-37 40z"/>
<path d="m4858-1129-270-180-31 46 270 180 31-46z"/>
<path d="m4688-1573 240 150 29-46-240-150-29 46z"/>
<path d="m4712-1921 240 100 21-50-240-100-21 50z"/>
<path d="m5021-2111 23-50-200-90-23 50 200 90z"/>
<path d="m4793-2420 270 100 19-52-270-100-19 52z"/>
<path d="m4897-2633 264 60 12-53-263-60-13 53z"/>
<path d="m4988-2483 230 140 29-46-230-140-29 46z"/>
<path d="m5035-2739 255 43 9-54-254-43-10 54z"/>
<path d="m4959-2929 180 20 7-54-180-20-7 54z"/>
<path d="m4753-3340 200 70 19-52-200-70-19 52z"/>
<path d="m5023-3100 290 110 19-52-290-110-19 52z"/>
<path d="m5217-2853 220 150 31-46-220-150-31 46z"/>
<path d="m5273-2547 210 210 39-38-210-210-39 38z"/>
<path d="m-1842 522 49 24 130-280-49-24-130 280z"/>
<path d="m-1947 367 134-278-49-24-135 278 50 24z"/>
<path d="m-2663-75-49-24-90 190 49 24 90-190z"/>
<path d="m-2472 225 51 18 90-250-51-18-90 250z"/>
<path d="m-2334 626 46 30 173-265-46-30-173 265z"/>
<path d="m-2084 779 53 10 50-280-53-10-50 280z"/>
<path d="m-1833 986 120-250-49-24-120 250 49 24z"/>
<path d="m-1341 1091 90-320-53-14-90 320 53 14z"/>
<path d="m-1075 814h55v-240h-55v240z"/>
<path d="m-830 997 30-250-55-6-30 250 55 6z"/>
<path d="m-1083 1145 51 18 90-260-51-18-90 260z"/>
<path d="m-645 646 10 180 55-4-10-180-55 4z"/>
<path d="m-773 1275 51 18 100-290-51-18-100 290z"/>
<path d="m-370 853-10-220-55 2 10 220 55-2z"/>
<path d="m-534 1256 53 16 80-280-53-16-80 280z"/>
<path d="m-130 870-40-300-55 8 40 300 55-8z"/>
<path d="m76 561 60 240 53-14-60-240-53 14z"/>
<path d="m40 1055 10-280-55-2-10 280 55 2z"/>
<path d="m428 895-80-240-51 18 80 240 51-18z"/>
<path d="m245 1212 55 4 20-360-55-4-20 360z"/>
<path d="m598 783-80-190-51 22 80 190 51-22z"/>
<path d="m590 926-55-4-20 280 55 4 20-280z"/>
<path d="m769 868-22-100-22-51-50 23 19 43 22 97 53-12z"/>
<path d="m837 344 110 290 51-20-110-290-51 20z"/>
<path d="m900 1075 10-330-55-2-10 330 55 2z"/>
<path d="m991 972 65 317 53-10-76-372-57 45 15 20z"/>
<path d="m95 1431 55 6 21-205-54-6-22 205z"/>
<path d="m-235 1046 20 220 55-4-20-220-55 4z"/>
<path d="m-404 1559 53 10 60-310-53-10-60 310z"/>
<path d="m-94 1446 51 17 89-260-52-18-88 261z"/>
<path d="m-705 1479 55 9 40-240-55-9-40 240z"/>
<path d="m-974 1488 53 12 70-290-53-12-70 290z"/>
<path d="m-1308 1318 52 17 80-250-52-17-80 250z"/>
<path d="m-1669 1176 44 32 137-190-44-32-137 190z"/>
<path d="m-1651 892 80-270-53-16-80 270 53 16z"/>
<path d="m-1440 867 40-360-55-6-40 360 55 6z"/>
<path d="m-1518 1622 51 21 125-304-50-21-126 304z"/>
<path d="m-1224 1669 53 10 60-340-53-10-60 340z"/>
<path d="m-798 1502 7 219 55-1-7-220-55 2z"/>
<path d="m-950 1858 30-220-55-8-30 220 55 8z"/>
<path d="m-544 1622 54 3 14-214-55-4-13 215z"/>
<path d="m-570 2006 20-270-55-4-20 270 55 4z"/>
<path d="m-216 1420 11 215 55-2-12-216-54 3z"/>
<path d="m-311 2007 22-270-54-5-22 271 54 4z"/>
<path d="m55 1526 20 290 55-4-20-290-55 4z"/>
<path d="m236 1371 60 240 53-14-60-240-53 14z"/>
<path d="m346 1181 80 320 53-14-80-320-53 14z"/>
<path d="m420 1946 20-250-55-4-20 250 55 4z"/>
<path d="m556 1349 50 260 53-10-50-260-53 10z"/>
<path d="m637 1094 100 260 51-20-100-260-51 20z"/>
<path d="m878 1878 167 223 44-32-167-224-44 33z"/>
<path d="m715 1525 10 290 55-2-10-290-55 2z"/>
<path d="m909 1298 37 172 53-12-37-172-53 12z"/>
<path d="m977 1576 40 230 53-10-40-230-53 10z"/>
<path d="m1327 992-120-250-49 24 120 250 49-24z"/>
<path d="m1251 1171 30 320 55-5-30-320-55 5z"/>
<path d="m1427 885 100 240 51-22-100-240-51 22z"/>
<path d="m1406 1212 60 200 53-16-60-200-53 16z"/>
<path d="m1627 943 80 240 51-18-80-240-51 18z"/>
<path d="m1625 1614h55v-280h-55v280z"/>
<path d="m1837 1203 90 250 51-18-90-250-51 18z"/>
<path d="m1766 1409 70 350 53-10-70-350-53 10z"/>
<path d="m2046 1442 70 230 53-16-70-230-53 16z"/>
<path d="m2421 953 59 285 54-11-59-285-54 11z"/>
<path d="m2536 1454 218 192 37-42-219-191-36 41z"/>
<path d="m2285 1265 18 276 55-3-19-276-54 3z"/>
<path d="m2599 1098 170 290 47-28-170-290-47 28z"/>
<path d="m2668 867 140 270 49-26-140-270-49 26z"/>
<path d="m2868 857 120 230 49-26-120-230-49 26z"/>
<path d="m2966 1231 70 270 53-14-70-270-53 14z"/>
<path d="m3089 997 130 230 47-26-130-230-47 26z"/>
<path d="m3445 923-227-334-46 31 228 334 45-31z"/>
<path d="m3657 945-118-260-50 23 118 259 50-22z"/>
<path d="m3829 823-110-260-51 21 110 260 51-21z"/>
<path d="m3777 953 90 250 51-18-90-250-51 18z"/>
<path d="m4047 867-36-208-54 9 36 209 54-10z"/>
<path d="m3999 436 285 126 22-50-285-126-22 50z"/>
<path d="m4346 930-160-260-47 28 160 260 47-28z"/>
<path d="m4616 1019-170-270-47 30 170 270 47-30z"/>
<path d="m4304 164 190 180 37-40-190-180-37 40z"/>
<path d="m4335 451 140 180 43-34-140-180-43 34z"/>
<path d="m4444-56 190 170 37-40-190-170-37 40z"/>
<path d="m4586-134 290 210 33-44-290-210-33 44z"/>
<path d="m4713 203 200 200 39-38-200-200-39 38z"/>
<path d="m4538 197 150 290 49-26-150-290-49 26z"/>
<path d="m4775-145 35-42-200-160-35 42 200 160z"/>
<path d="m4599-672 280 160 27-48-280-160-27 48z"/>
<path d="m4746-375 190 150 33-43-190-150-33 43z"/>
<path d="m4673-860 200 70 19-52-200-70-19 52z"/>
<path d="m5041-1126-170-160-37 40 170 160 37-40z"/>
<path d="m5025-1335 150 130 35-42-150-130-35 42z"/>
<path d="m4892-1657 130 140 41-38-130-140-41 38z"/>
<path d="m5055-1675 200 170 35-42-200-170-35 42z"/>
<path d="m5018-1923 230 140 29-46-230-140-29 46z"/>
<path d="m5110-2052 270 140 25-48-270-140-25 48z"/>
<path d="m5212-2211 160 70 21-50-160-70-21 50z"/>
<path d="m5653-2134-191-157-35 43 191 157 35-43z"/>
<path d="m5444-2066 200 180 37-40-200-180-37 40z"/>
<path d="m5424-1796 260 250 37-40-260-250-37 40z"/>
<path d="m5524-1533-160-200-43 34 160 200 43-34z"/>
<path d="m5604-1173-200-250-43 34 200 250 43-34z"/>
<path d="m5564-933-210-260-43 34 210 260 43-34z"/>
<path d="m5441-866-210-190-37 40 210 190 37-40z"/>
<path d="m5031-889 190 230 43-34-190-230-43 34z"/>
<path d="m4993-636 280 270 39-40-280-270-39 40z"/>
<path d="m5348-139-280-190-31 46 280 190 31-46z"/>
<path d="m5073 13 200 210 39-38-200-210-39 38z"/>
<path d="m4961 222 250 300 43-36-250-300-43 36z"/>
<path d="m4839 559 170 270 47-30-170-270-47 30z"/>
<path d="m4908 1013-130-310-51 22 130 310 51-22z"/>
<path d="m4657 964 140 360 51-20-140-360-51 20z"/>
<path d="m4356 1061 100 380 53-14-100-380-53 14z"/>
<path d="m4066 989 60 340 53-10-60-340-53 10z"/>
<path d="m3945 1238 50 320 55-8-50-320-55 8z"/>
<path d="m4267 1313 100 300 51-18-100-300-51 18z"/>
<path d="m4744 1377-170-210-43 34 170 210 43-34z"/>
<path d="m4906 1186 230 180 33-44-230-180-33 44z"/>
<path d="m5026 1006 290 210 33-44-290-210-33 44z"/>
<path d="m3019 1727-70-250-53 14 70 250 53-14z"/>
<path d="m3319 1936-90-280-53 16 90 280 53-16z"/>
<path d="m3252 1402 190 220 41-36-190-220-41 36z"/>
<path d="m3398 1075 110 240 49-22-110-240-49 22z"/>
<path d="m3547 1554 100 260 51-20-100-260-51 20z"/>
<path d="m3680 1220 120 170 45-32-120-170-45 32z"/>
<path d="m3776 1599 50 290 53-10-50-290-53 10z"/>
<path d="m4099 1577 130 230 47-26-130-230-47 26z"/>
<path d="m4006 1840 60 290 53-12-60-290-53 12z"/>
<path d="m4544 1927-130-160-43 34 130 160 43-34z"/>
<path d="m4703 1666-150-170-41 36 150 170 41-36z"/>
<path d="m4785 1547 92 218 51-22-109-256-46 48 12 12z"/>
<path d="m4883 1403 160 160 39-38-160-160-39 38z"/>
<path d="m5178 1833-90-210-51 22 90 210 51-22z"/>
<path d="m5445 1518-210-300-45 32 210 300 45-32z"/>
<path d="m5333 926-140-160-41 36 140 160 41-36z"/>
<path d="m5335 625 290 250 35-42-290-250-35 42z"/>
<path d="m5035 515 130 110 35-42-130-110-35 42z"/>
<path d="m5321 389 330 150 23-50-330-150-23 50z"/>
<path d="m5419 138 250 140 27-48-250-140-27 48z"/>
<path d="m5658-129-240-160-31 46 240 160 31-46z"/>
<path d="m5659-388-300-220-33 44 300 220 33-44z"/>
<path d="m5431-631 390 190 23-50-390-190-23 50z"/>
<path d="m5744-356 220 200 37-40-220-200-37 40z"/>
<path d="m5983 26-210-250-41 36 210 250 41-36z"/>
<path d="m5770 90 230 330 45-32-230-330-45 32z"/>
<path d="m5594-690 230 80 17-52-230-80-17 52z"/>
<path d="m5685-915 200 160 35-42-200-160-35 42z"/>
<path d="m5896-1104 33-44-200-150-33 44 200 150z"/>
<path d="m5774-1440 310 100 17-52-310-100-17 52z"/>
<path d="m5730-1752 230 120 25-48-230-120-25 48z"/>
<path d="m5697-1994 292 50 9-54-292-50-9 54z"/>
<path d="m5601-2431 300 140 23-50-300-140-23 50z"/>
<path d="m5567-2609 270 60 11-54-270-60-11 54z"/>
<path d="m5468-2923 200 130 29-46-200-130-29 46z"/>
<path d="m5660-3082 25-48-193-100-25 48 193 100z"/>
<path d="m5106-3314 220 170 33-44-220-170-33 44z"/>
<path d="m5697-2929 330 70 11-54-330-70-11 54z"/>
<path d="m5807-2719 310 60 11-54-310-60-11 54z"/>
<path d="m6280-2412-280-80-15 52 280 80 15-52z"/>
<path d="m6275-2180-270-140-25 48 270 140 25-48z"/>
<path d="m5971-2091 23-50-240-110-23 50 240 110z"/>
<path d="m6056-1974 240 180 33-44-240-180-33 44z"/>
<path d="m5983-1817 245 188 34-44-246-188-33 44z"/>
<path d="m6088-1523 160 100 29-46-160-100-29 46z"/>
<path d="m6113-1130 280 100 19-52-280-100-19 52z"/>
<path d="m6260-887-210-170-35 42 210 170 35-42z"/>
<path d="m6225-632-190-270-45 32 190 270 45-32z"/>
<path d="m5951-619 190 240 43-34-190-240-43 34z"/>
<path d="m6251-167-240-210-37 42 240 210 37-42z"/>
<path d="m6218-473 290 180 29-46-290-180-29 46z"/>
<path d="m6221-681 180 80 23-50-180-80-23 50z"/>
<path d="m6351-841 260 120 23-50-260-120-23 50z"/>
<path d="m6325-1260 300 90 15-52-300-90-15 52z"/>
<path d="m6437-1419 190 40 11-54-190-40-11 54z"/>
<path d="m6347-1659 320 60 11-54-320-60-11 54z"/>
<path d="m6357-1949 320 70 11-54-320-70-11 54z"/>
<path d="m6546-2100-180-100-27 48 180 100 27-48z"/>
<path d="m6364-2290 160 50 17-52-160-50-17 52z"/>
<path d="m6495-2593-280-30-5 54 280 30 5-54z"/>
<path d="m6400-2803-240 20 5 54 240-20-5-54z"/>
<path d="m6380-3003-290 30 5 54 290-30-5-54z"/>
<path d="m5823-3069h270v-54h-270v54z"/>
<path d="m5700-3249 320 30 5-54-320-30-5 54z"/>
<path d="m4266 2002 80 260 53-16-80-260-53 16z"/>
<path d="m4629 1888 140 240 47-28-140-240-47 28z"/>
<path d="m4585 2088 50 300 55-9-50-300-55 9z"/>
<path d="m4987 1923 110 300 51-18-110-300-51 18z"/>
<path d="m5441 1694-190-170-37 40 190 170 37-40z"/>
<path d="m5348 1815-51 18 100 300 51-18-100-300z"/>
<path d="m5528 1427 150 280 49-26-150-280-49 26z"/>
<path d="m5417 1087 270 180 31-46-270-180-31 46z"/>
<path d="m5628 997 160 100 29-46-160-100-29 46z"/>
<path d="m-3281-409 49 26 80-150-49-26-80 150z"/>
<path d="m-3346-57 213-232-40-38-214 232 41 38z"/>
<path d="m-3474-387-190 160 35 42 190-160-35-42z"/>
<path d="m-3398-601-270 120 23 50 270-120-23-50z"/>
<path d="m-3487-720-19-52-270 100 19 52 270-100z"/>
<path d="m-4056-265 39 38 270-270-39-38-270 270z"/>
<path d="m-3825-129 140-170-43-34-140 170 43 34z"/>
<path d="m-3747 175 41 38 149-161 34-53-47-30-29 47-148 159z"/>
<path d="m-3238 76 50 22 90-206-50-22-90 206z"/>
<path d="m-2997 35 42 35 150-180-42-35-150 180z"/>
<path d="m-3239 269 28 47 228-137-29-47-227 137z"/>
<path d="m-3039 568 51 22 97-226-51-22-97 226z"/>
<path d="m-2663 146-100 310 53 16 100-310-53-16z"/>
<path d="m-2593 485-157 275 47 28 158-276-48-27z"/>
<path d="m-2473 570 52 16 93-290-52-16-93 290z"/>
<path d="m-2635 1087 191-264-44-32-191 264 44 32z"/>
<path d="m-2382 1147 169-330-48-26-170 330 49 26z"/>
<path d="m-2248 1217 42 34 190-250-43-34-189 250z"/>
<path d="m-2073 1465 51 18 90-250-51-18-90 250z"/>
<path d="m-1849 1266 50 21 100-230-50-21-100 230z"/>
<path d="m-1787 1515-240 240 39 38 240-240-39-38z"/>
<path d="m-1784 1958 150-260-47-28-150 260 47 28z"/>
<path d="m-1532 2074 120-320-51-20-120 320 51 20z"/>
<path d="m-1334 2068 53 12 40-170-53-12-40 170z"/>
<path d="m-1060 2068-55-9-50 300 55 9 50-300z"/>
<path d="m-875 2190 55 8 30-220-55-8-30 220z"/>
<path d="m-799 2476q25 12 50 23l145-308-50-19-9 24-3-2-133 282z"/>
<path d="m-516 2412 54 6 37-302-54-6-37 302z"/>
<path d="m-281 2385 52 19 108-294-52-19-108 294z"/>
<path d="m-17 1957-40-210-54 10 40 210 54-10z"/>
<path d="m75 1998 50 340 55-8-50-340-55 8z"/>
<path d="m-64 2549 53 10 40-220-53-10-40 220z"/>
<path d="m286 2307 53 14 50-200-53-14-50 200z"/>
<path d="m515 1938 40 240 55-9-40-240-55 9z"/>
<path d="m697 1973 80 240 51-18-80-240-51 18z"/>
<path d="m605 2483 55 2 10-240-55-2-10 240z"/>
<path d="m365 2700 55 8 50-380-55-8-50 380z"/>
<path d="m160 2829 60-350-55-10-60 350 55 10z"/>
<path d="m-3684-3466 256-111-22-50-256 111 22 50z"/>
<path d="m-3846-3312 19 52 220-80-19-52-220 80z"/>
<path d="m-4001-2934 280-200-31-44-280 200 31 44z"/>
<path d="m-4322-3202 18 52 273-97-18-51-273 96z"/>
<path d="m-4338-2960 290-90-17-52-290 90 17 52z"/>
<path d="m-4210-2750 27 48 230-130-27-48-230 130z"/>
<path d="m-4448-2460 256-27-6-55-256 27 6 55z"/>
<path d="m-4335-2190 209-154-33-44-208 154 32 44z"/>
<path d="m-4294-2101-290 90 16 52 290-90-16-52z"/>
<path d="m-4270-1854 33 44 220-169-33-43-220 168z"/>
<path d="m-3884-1996 120-160-43-33-120 160 43 33z"/>
<path d="m-3982-1663 48 26 116-219-49-26-115 219z"/>
<path d="m-3745-1835 37 41 156-138-36-41-157 138z"/>
<path d="m-4165-1723-201 71 19 52 200-72-18-51z"/>
<path d="m-3870-1533 50 22 82-189-50-21-82 188z"/>
<path d="m-4646-961 29 46 295-186-29-46-295 186z"/>
<path d="m-3924-1001 110-169-46-30-109 169 45 30z"/>
<path d="m-4194-707 35 42 230-200-35-42-230 200z"/>
<path d="m-4263-477 24 49q140-68 279-137l-24-49-279 137z"/>
<path d="m-4632-629 31 46 250-170-31-46-250 170z"/>
<path d="m-4139-1071-220 110 25 49 220-110-25-49z"/>
<path d="m-3906-785 39 38 180-190-39-38-180 190z"/>
<path d="m-4375 1 220-270-43-34-220 270 43 34z"/>
<path d="m-4172 137 51 20 90-230-51-20-90 230z"/>
<path d="m-3990 309 47 30 140-220-47-30-140 220z"/>
<path d="m-4205 714 37 40 280-250-37-40-280 250z"/>
<path d="m-3758 608 43 32 180-240-43-32-180 240z"/>
<path d="m-3505 261 173-111-29-46-173 111 29 46z"/>
<path d="m-3395 890 46-279-54-9-46 280 54 8z"/>
<path d="m-3280 556 52 19 61-170-52-18-61 169z"/>
<path d="m-3868 1004 220-210-37-40-220 210 37 40z"/>
<path d="m-3758 1238 43 32 180-240-43-32-180 240z"/>
<path d="m-3240 1042 80-250-53-16-80 250 53 16z"/>
<path d="m-2960 1051 80-290-53-14-80 290 53 14z"/>
<path d="m-3407 1396 41 36 190-210-41-36-190 210z"/>
<path d="m-3200 1609 47 30 160-250-47-30-160 250z"/>
<path d="m-2854 1370 55 8 30-190-55-8-30 190z"/>
<path d="m-2582 1365 51 18 70-190-51-18-70 190z"/>
<path d="m-2982 1947 279-181-29-46-280 181 30 46z"/>
<path d="m-2592 1987 140-270-49-26-140 270 49 26z"/>
<path d="m-2313 1678 53 12 49-240-52-12-50 240z"/>
<path d="m-2202 1865 120-270-51-22-119 270 50 22z"/>
<path d="m-2527 2136 41 36 190-220-41-36-190 220z"/>
<path d="m-1652 1481 50 24 115-238-49-24-116 238z"/>
<path d="m-2169 2167 43 34 200-250-43-34-200 250z"/>
<path d="m-1923 2386 110-230-49-24-110 230 49 24z"/>
<path d="m-1754 2238 53 12 40-190-53-12-40 190z"/>
<path d="m-1742 2601 49 26 180-350-49-26-180 350z"/>
<path d="m-1394 2535 53 11 57-260-54-11-56 260z"/>
<path d="m-1092 2681 49 26 140-270-49-26-140 270z"/>
<path d="m-1294 2888 140-230-47-28-140 230 47 28z"/>
<path d="m-922 2884 70-170-51-20-70 170 51 20z"/>
<path d="m-634 2524 5 231 55-1-5-231-55 1z"/>
<path d="m-781 3140 47 28 150-260-47-28-150 260z"/>
<path d="m-391 2899 50-290-53-10-50 290 53 10z"/>
<path d="m-190 2954v-250h-55v250h55z"/>
<path d="m-502 3223 49 22 120-260-49-22-120 260z"/>
<path d="m-20 2926 20-240-55-4-20 240 55 4z"/>
<path d="m-179 3338 53 12 65-270-53-12-65 270z"/>
<path d="m255 3020 55 8 30-210-55-8-30 210z"/>
<path d="m560 2911-20-210-55 6 20 210 55-6z"/>
<path d="m645 2586 20 220 55-4-20-220-55 4z"/>
<path d="m966 2280 40 190 53-12-40-190-53 12z"/>
<path d="m1287 1825 51-22-110-250-51 22 110 250z"/>
<path d="m1433 1653 150 150 39-38-150-150-39 38z"/>
<path d="m1509 1966-60-190-53 16 60 190 53-16z"/>
<path d="m1379 2178-50-210-53 12 50 210 53-12z"/>
<path d="m-4645-2289 18 52 199-68-18-52-199 68z"/>
<path d="m-4869-2050 25 48 210-110-25-48-210 110z"/>
<path d="m-4657-1683 41 36 180-200-41-36-180 200z"/>
<path d="m-5108-1751 23 50 326-152-22-50-26 12v1l-301 139z"/>
<path d="m-4747-1342 39 39 170-170-39-39-170 170z"/>
<path d="m-5119-1366 21 51 303-124-21-51-303 124z"/>
<path d="m-4847-1191-330 140 21 50 330-140-21-50z"/>
<path d="m-4759-1079 223-90-20-51-223 91 20 50z"/>
<path d="m-4915-1005-334 181 26 48 334-181-26-48z"/>
<path d="m-4865-616 37 40 270-240-37-40-270 240z"/>
<path d="m-4976-602-340 130 19 52 340-130-19-52z"/>
<path d="m-4983-336 23 50 210-100-23-50-210 100z"/>
<path d="m-4629-222 45 32 190-260-45-32-190 260z"/>
<path d="m-4725 34 37 40 200-190-37-40-200 190z"/>
<path d="m-5046 48 19 52 280-100-19-52-280 100z"/>
<path d="m-5030 330 27 48 220-130-27-48-220 130z"/>
<path d="m-4946 565 39 38 240-240-39-38-240 240z"/>
<path d="m-4658 577 43 34 190-240-43-34-190 240z"/>
<path d="m-4683 207 13 54 260-60-13-54-260 60z"/>
<path d="m-4317 553 180-190-39-38-180 190 39 38z"/>
<path d="m-4774 868 260-140-25-48-260 140 25 48z"/>
<path d="m-4495 941 170-210-43-34-170 210 43 34z"/>
<path d="m-4940 1100 27 48 240-130-27-48-240 130z"/>
<path d="m-4279 1055-35-42-210 180 35 42 210-180z"/>
<path d="m-4187 1198 45 31 176-259-45-31-176 259z"/>
<path d="m-4122 897 260-170-29-46-260 170 29 46z"/>
<path d="m-4162 1372 31 44 170-120-31-44-170 120z"/>
<path d="m-3452 1276-49-24-90 180 49 24 90-180z"/>
<path d="m-4091 1591 29 46 270-170-29-46-270 170z"/>
<path d="m-3909 1789 45 30 170-250-45-30-170 250z"/>
<path d="m-4415 1799 230-110-23-50-230 110 23 50z"/>
<path d="m-3616 1852 170-200-41-36-170 200 41 36z"/>
<path d="m-3402 1785 51 18 60-170-51-18-60 170z"/>
<path d="m-3181 1934 90-230-51-20-90 230 51 20z"/>
<path d="m-2687 1361-120 200 47 29 120-200-47-29z"/>
<path d="m-3541 2146 210-150-31-44-210 150 31 44z"/>
<path d="m-3950 2100 27 48 250-140-27-48-250 140z"/>
<path d="m-4080 1990 27 48 270-150-27-48-270 150z"/>
<path d="m-4254 1947-270 160 28 47 270-160-28-47z"/>
<path d="m-3887 2416 41 36 190-220-41-36-190 220z"/>
<path d="m-3478 2407 43 34 190-250-43-34-190 250z"/>
<path d="m-3201 2372 49 24 140-280-49-24-140 280z"/>
<path d="m-2923 2398 53 12 80-360-53-12-80 360z"/>
<path d="m-2550 1589 47 30 150-240-47-30-150 240z"/>
<path d="m-2977 1166 41 36 190-220-41-36-190 220z"/>
<path d="m-4237-1231 21 50 290-120-21-50-290 120z"/>
<path d="m-4276-1548-217 86 20 51 217-86-20-51z"/>
<path d="m-5230-1529 350-80-13-54-350 80 13 54z"/>
<path d="m-5133-1218-260 200 33 44 260-200-33-44z"/>
<path d="m-5685-1200 14 53 290-80-14-53-290 80z"/>
<path d="m-5530-1383 7 54 270-30-7-54-270 30z"/>
<path d="m-5440-1793 7 54 218-32-8-54-217 32z"/>
<path d="m-5263-1991 283 83 15-53-282-83-16 53z"/>
<path d="m-4850-2193-290-70-13 54 290 70 13-54z"/>
<path d="m-5033-2380 230 60 13-53-230-60-13 53z"/>
<path d="m-4885-2560 310 100 17-52-310-100-17 52z"/>
<path d="m-4781-2763 9 54 350-60-9-54-350 60z"/>
<path d="m-4676-2975 19 51 230-86-19-52-230 87z"/>
<path d="m-4429-2619 180-160-36-41-180 160 36 41z"/>
<path d="m-5047-2674 33 44 212-164-33-44-212 164z"/>
<path d="m-4944-2887-275-80-15 53 274 79 16-52z"/>
<path d="m-4913-3199 280 70 13-54-280-70-13 54z"/>
<path d="m-5414-2572 15 52 270-80-15-52-270 80z"/>
<path d="m-5390-2320 27 48 202-115-28-48-201 115z"/>
<path d="m-5719-1971 25 49 320-160-25-49-320 160z"/>
<path d="m-5714-1842 15 52 240-67-15-53-240 68z"/>
<path d="m-5865-1552 17 52 330-110-17-52-330 110z"/>
<path d="m-5525-1476 37 40 190-170-37-40-190 170z"/>
<path d="m-5980-1124 270-210-33-44-270 210 33 44z"/>
<path d="m-5939-815 240-200-35-42-240 200 35 42z"/>
<path d="m-5718-753 43 34 190-250-43-34-190 250z"/>
<path d="m-5690-610 27 48 233-134-27-48-233 134z"/>
<path d="m-5570-490 27 48 222-131-27-47-222 130z"/>
<path d="m-5366-58 190-220-41-36-190 220 41 36z"/>
<path d="m-5e3 -741 27 48 215-118-27-48-215 118z"/>
<path d="m-5782-2124 260-20-4-55-260 20 4 55z"/>
<path d="m-6128-1969 330 20 3-54-330-20-3 54z"/>
<path d="m-6119-1570 220-60-15-52-220 60 15 52z"/>
<path d="m-6221-1237 320-110-18-52-320 110 18 52z"/>
<path d="m-6028-516 240-230-37-40-240 230 37 40z"/>
<path d="m-5996-278 238-150-29-46-238 150 29 46z"/>
<path d="m-4984-183-177 130 32 44 177-130-32-44z"/>
<path d="m-5387 416 41 36 210-240-41-36-210 240z"/>
<path d="m-5379 728 45 32 200-270-45-32-200 270z"/>
<path d="m-5209 935 220-190-35-42-220 190 35 42z"/>
<path d="m-5051 951-360 220 29 46 360-220-29-46z"/>
<path d="m-4907 796 41 36 200-230-41-36-200 230z"/>
<path d="m-4789 1309 45 30 160-240-45-30-160 240z"/>
<path d="m-4940 1270-340 200 27 48 340-200-27-48z"/>
<path d="m-4994 1733 35 42 230-190-35-42-230 190z"/>
<path d="m-4510 1560 47 28 150-260-47-28-150 260z"/>
<path d="m-4808 1984 270-250-37-40-270 250 37 40z"/>
<path d="m-4865 2234 37 40 220-207-37-40-220 207z"/>
<path d="m-4275 2232-43-36-200 240 43 36 200-240z"/>
<path d="m-4231 2451 49 26 160-310-49-26-160 310z"/>
<path d="m-4127 1863 140-140-39-38-140 140 39 38z"/>
<path d="m-5752 732 31 44 270-190-31-44-270 190z"/>
<path d="m-5909 469 16 53 321-96-16-52-321 95z"/>
<path d="m-5680 227 7 54 340-50-7-54-340 50z"/>
<path d="m-5498-10-17-52-299 90 15 52 301-90z"/>
<path d="m-5710-230 27 48 220-130-27-48-220 130z"/>
<path d="m-6013-72 240-140-27-48-240 140 27 48z"/>
<path d="m-5914 27-38-40-213 204 37 39 214-203z"/>
<path d="m-5878 209-234 133 27 48 235-134-28-47z"/>
<path d="m-5754 633-240 190 35 42 240-190-35-42z"/>
<path d="m-5783 1052 33 44 260-190-33-44-260 190z"/>
<path d="m-5589 1278 45 32 220-320-45-32-220 320z"/>
<path d="m-5508 1628 43 32 210-280-43-32-210 280z"/>
<path d="m-5236 1862 220-260-41-36-220 260 41 36z"/>
<path d="m-5099 2058 45 32 140-200-45-32-140 200z"/>
<path d="m-4811 2552 49 24 140-280-49-24-140 280z"/>
<path d="m-4281 2405-51-22-140 320 51 22 140-320z"/>
<path d="m-4121 2681 49 26 140-260-49-26-140 260z"/>
<path d="m-3799 2728 45 32 200-270-45-32-200 270z"/>
<path d="m-3502 2785 51 18 110-310-51-18-110 310z"/>
<path d="m-3144 2649 55 9 40-240-55-9-40 240z"/>
<path d="m-2863 2767 53 14 60-240-53-14-60 240z"/>
<path d="m-2562 2494 51 20 90-220-51-20-90 220z"/>
<path d="m-2681 2232-80 160 49 24 80-160-49-24z"/>
<path d="m-2390 2546 37 40 229-211-37-40-229 211z"/>
<path d="m-2434 2969 190-290-45-30-190 290 45 30z"/>
<path d="m-2075 2742 55 4 20-240-55-4-20 240z"/>
<path d="m-1883 2614 51 20 70-180-51-20-70 180z"/>
<path d="m-1803 3201 51 20 70-180-51-20-70 180z"/>
<path d="m-1870 2819-170 260 45 30 170-260-45-30z"/>
<path d="m-1561 2960 60-280-53-12-60 280 53 12z"/>
<path d="m-1320 3129 45 30 130-200-45-30-130 200z"/>
<path d="m-1519 3289 49 24 90-187-49-24-90 187z"/>
<path d="m-1041 3050-130 220 47 28 130-220-47-28z"/>
<path d="m-884 3117 53 14 60-230-53-14-60 230z"/>
<path d="m-1e3 3339-150 230 45 30 150-230-45-30z"/>
<path d="m-754 3506 53 16 110-350-53-16-110 350z"/>
<path d="m-394 3608 53 12 50-240-53-12-50 240z"/>
<path d="m5 3096 20 240 55-4-20-240-55 4z"/>
<path d="m245 3128 40 240 55-9-40-240-55 9z"/>
<path d="m115 3529 55 9 40-240-55-9-40 240z"/>
<path d="m425 3138 30 200 55-8-30-200-55 8z"/>
<path d="m586 3012 70 240 53-16-70-240-53 16z"/>
<path d="m825 2497 30 270 55-6-30-270-55 6z"/>
<path d="m1067 2825 51-22-80-190-51 22 80 190z"/>
<path d="m1127 2193 80 240 51-18-80-240-51 18z"/>
<path d="m1409 2228 150 250 47-28-150-250-47 28z"/>
<path d="m1482 2042 150 170 41-36-150-170-41 36z"/>
<path d="m1630 1880 90 130 45-32-90-130-45 32z"/>
<path d="m1768 1856 130 270 49-24-130-270-49 24z"/>
<path d="m1390 2811-40-340-55 6 40 340 55-6z"/>
<path d="m1220 2872-20-250-55 4 20 250 55-4z"/>
<path d="m1035 3334h55v-320h-55v320z"/>
<path d="m795 3092 55 4 20-260-55-4-20 260z"/>
<path d="m806 3251 100 370 53-14-100-370-53 14z"/>
<path d="m555 3685 55 8 45-300-55-8-45 300z"/>
<path d="m1716 2271 50 190 53-14-50-190-53 14z"/>
<path d="m1960 2381 110 280 51-20-110-280-51 20z"/>
<path d="m2245 2078-140-190-45 32 140 190 45-32z"/>
<path d="m2494 1997-200-260-43 34 200 260 43-34z"/>
<path d="m2658 1924-100-260-51 20 100 260 51-20z"/>
<path d="m2695 1995 10 350 55-2-10-350-55 2z"/>
<path d="m2465 2422 55 4 20-320-55-4-20 320z"/>
<path d="m2315 2454h55v-320h-55v320z"/>
<path d="m2186 2458-23-227-54 6 23 226 54-5z"/>
<path d="m1905 3074h55v-250h-55v250z"/>
<path d="m2935 2013-41-279-54 8 40 279 55-8z"/>
<path d="m3019 1959 150 240 47-30-150-240-47 30z"/>
<path d="m2875 2497h55v-260h-55v260z"/>
<path d="m3046 2341 73 286 53-13-73-287-53 14z"/>
<path d="m3356 2212 90 280 53-16-90-280-53 16z"/>
<path d="m3431 2e3 120 160 43-32-120-160-43 32z"/>
<path d="m3619 1948 180 100 27-48-180-100-27 48z"/>
<path d="m3818 2434-120-310-51 20 120 310 51-20z"/>
<path d="m3645 2386 20 320 55-4-20-320-55 4z"/>
<path d="m3859 2178 140 240 47-28-140-240-47 28z"/>
<path d="m4091 2340 150 200 43-32-150-200-43 32z"/>
<path d="m3956 2540 60 260 53-12-60-260-53 12z"/>
<path d="m4616 2521-90-160-47 26 90 160 47-26z"/>
<path d="m4499 2858-70-290-53 12 70 290 53-12z"/>
<path d="m4886 2412 60 200 53-16-60-200-53 16z"/>
<path d="m4898 2197 120 220 49-26-120-220-49 26z"/>
<path d="m-2641 2953 80-230-51-18-80 230 51 18z"/>
<path d="m-2373 3258 53 12 60-260-53-12-60 260z"/>
<path d="m-5539-2710h320v-55h-320v55z"/>
<path d="m-5683-2939 330 80 13-54-330-80-13 54z"/>
<path d="m-6052-2742 331 53 9-54-332-53-8 54z"/>
<path d="m-5945-2443 350-40-6-54-350 40 6 54z"/>
<path d="m-5732-2342 17 52 240-80-17-52-240 80z"/>
<path d="m-6319-2259 330 30 5-54-330-30-5 54z"/>
<path d="m-6421-2509 290 50 9-54-290-50-9 54z"/>
<path d="m-6509-2760 320 120 19-52-320-120-19 52z"/>
<path d="m-6238-3071 360 160 23-50-360-160-23 50z"/>
<path d="m-5445-3111-300-140-23 50 300 140 23-50z"/>
<path d="m-5099-3217-244-101-21 50 244 102 21-51z"/>
<path d="m-4862-3058-262-32-7 54 262 32 7-54z"/>
<path d="m-6607-2369h330v-54h-330v54z"/>
<path d="m-6598-2123 3 54 420-30-3-54-420 30z"/>
<path d="m-6464-1871 6 55 260-30-6-55-260 30z"/>
<path d="m-6324-1662 29 46 275-172-29-47-275 173z"/>
<path d="m-6510-1412 11 54 261-50-10-54-262 50z"/>
<path d="m-6438-981 23 50 260-120-23-50-260 120z"/>
<path d="m-6367-681 21 50 250-100-21-50-250 100z"/>
<path d="m-6455-396 37 40 170-160-37-40-170 160z"/>
<path d="m-6370 139 41 36 180-210-41-36-180 210z"/>
<path d="m-6407 576 41 36 150-170-41-36-150 170z"/>
<path d="m-6354 733 35 42 250-200-35-42-250 200z"/>
<path d="m-6331 1021 29 46 260-160-29-46-260 160z"/>
<path d="m-5884 1049-45-30-210 310 45 30 210-310z"/>
<path d="m-5946 1495 39 38 220-230-39-38-220 230z"/>
<path d="m-5751 1702 49 24 110-220-49-24-110 220z"/>
<path d="m-5605 1943 37 42 160-140-37-42-160 140z"/>
<path d="m-5474 2273 35 42 210-180-35-42-210 180z"/>
<path d="m-5131 2731 49 26 130-240-49-26-130 240z"/>
<path d="m-4312 2713-80 190 51 22 80-190-51-22z"/>
<path d="m-4800 2916 229-227-38-39-229 227 38 39z"/>
<path d="m-4251 3113 49 22 120-260-49-22-120 260z"/>
<path d="m-3879 2954v-190h-55v190h55z"/>
<path d="m-3733 3167 53 14 90-320-53-14-90 320z"/>
<path d="m-3383 3108 53 12 60-290-53-12-60 290z"/>
<path d="m-3111 2835-70-210-51 18 70 210 51-18z"/>
<path d="m-2979 3175 20-400-55-2-20 400 55 2z"/>
<path d="m-2833 3438 53 12 80-360-53-12-80 360z"/>
<path d="m-2624 3500 55 8 50-370-55-8-50 370z"/>
<path d="m-2194 2909 40 210 53-10-40-210-53 10z"/>
<path d="m-2184 3668 53 12 80-360-53-12-80 360z"/>
<path d="m-1975 3562 55 4 30-360-55-4-30 360z"/>
<path d="m-1735 3468 30 230 55-8-30-230-55 8z"/>
<path d="m-1524 3470 50 210 53-12-50-210-53 12z"/>
<path d="m-1002 3813 50-150-51-18-50 150 51 18z"/>
<path d="m-592 3823 60-180-51-18-60 180 51 18z"/>
<path d="m-100 3836 20-300-55-4-20 300 55 4z"/>
<path d="m211 3840-170-295-47 28 170 295 47-28z"/>
<path d="m509 3876-90-310-53 16 90 310 53-16z"/>
<path d="m820 3831-20-200-55 6 20 200 55-6z"/>
<path d="m1076 3521 50 190 53-14-50-190-53 14z"/>
<path d="m1468 3615-120-340-51 18 120 340 51-18z"/>
<path d="m1428 3096 140 300 49-24-140-300-49 24z"/>
<path d="m1520 2899 170 250 45-30-170-250-45 30z"/>
<path d="m1815 2848-140-190-45 32 140 190 45-32z"/>
<path d="m1773 2573 100 100 39-38-100-100-39 38z"/>
<path d="m2138 2734-29 376 55 4 29-376-55-4z"/>
<path d="m2418 2857-90-230-51 20 90 230 51-20z"/>
<path d="m2480 2550 160 220 45-32-160-220-45 32z"/>
<path d="m2918 2824-180-240-44 33 180 240 44-33z"/>
<path d="m2488 2885 10 270 55-2-10-270-55 2z"/>
<path d="m2726 2910 50 230 53-12-50-230-53 12z"/>
<path d="m3230 3061-160-300-48 26 160 300 48-26z"/>
<path d="m3378 2535 110 240 49-22-110-240-49 22z"/>
<path d="m3455 2946 20 250 55-4-20-250-55 4z"/>
<path d="m3757 2835 100 240 51-22-100-240-51 22z"/>
<path d="m4017 2821-100-190-49 26 100 190 49-26z"/>
<path d="m4145 2846 20 270 55-4-20-270-55 4z"/>
<path d="m4568 2657 110 200 49-26-110-200-49 26z"/>
<path d="m4717 2525 100 240 51-22-100-240-51 22z"/>
<path d="m5236 2142 120 390 53-16-120-390-53 16z"/>
<path d="m5389 2217 100 180 47-26-100-180-47 26z"/>
<path d="m5965 848-190-260-45 32 190 260 45-32z"/>
<path d="m5823 503 200 210 39-38-200-210-39 38z"/>
<path d="m6079 158 220 120 27-48-220-120-27 48z"/>
<path d="m6182 29 210 90 21-50-210-90-21 50z"/>
<path d="m6343-110 240 90 19-52-240-90-19 52z"/>
<path d="m6514-485 160 140 37-42-160-140-37 42z"/>
<path d="m6595-635 220 190 35-42-220-190-35 42z"/>
<path d="m6609-1002 200 110 27-48-200-110-27 48z"/>
<path d="m6702-1121 260 110 21-50-260-110-21 50z"/>
<path d="m6151 401 210 270 43-34-210-270-43 34z"/>
<path d="m6337 376 170 120 31-44-170-120-31 44z"/>
<path d="m6459 258 170 100 27-48-170-100-27 48z"/>
<path d="m6257 1062-140-290-49 24 140 290 49-24z"/>
<path d="m6363 916-170-190-41 36 170 190 41-36z"/>
<path d="m5928 1176 100 210 49-24-100-210-49 24z"/>
<path d="m6306 1630-170-290-47 28 170 290 47-28z"/>
<path d="m5848 1325 150 330 49-22-150-330-49 22z"/>
<path d="m5929 1858-50-230-53 12 50 230 53-12z"/>
<path d="m5597 1864 100 270 51-20-100-270-51 20z"/>
<path d="m5782 2003 130 140 41-38-130-140-41 38z"/>
<path d="m-5492 2041 31 46 120-80-31-46-120 80z"/>
<path d="m-5436 2505 39 38 193-203-39-38-193 203z"/>
<path d="m-5134 2470 160-230-45-32-160 230 45 32z"/>
<path d="m-5350 2817 111-179-47-28-111 178 47 29z"/>
<path d="m-5074 3029 200-300-45-30-200 300 45 30z"/>
<path d="m-5119 3239 45 30 150-220-45-30-150 220z"/>
<path d="m-4688 3114 54 12 50-230-54-12-50 230z"/>
<path d="m-4695 3441 49 24 180-370-49-24-180 370z"/>
<path d="m-4292 3175-100 300 51 18 100-300-51-18z"/>
<path d="m-4223 3576 53 16 80-270-53-16-80 270z"/>
<path d="m-4004 3036 20 270 55-4-20-270-55 4z"/>
<path d="m-3460 3301-53-14-60 230 53 14 60-230z"/>
<path d="m-3432 3625 51 18 100-290-51-18-100 290z"/>
<path d="m-3184 3671 55 6 30-290-55-6-30 290z"/>
<path d="m-2934 3702 55 4 10-140-55-4-10 140z"/>
<path d="m-2694 3577 9 94 58-3-12-97-55 6z"/>
<path d="m-6605-1051 250-120-23-50-250 120 23 50z"/>
<path d="m-6760-790 27 48 240-130-27-48-240 130z"/>
<path d="m-6472-748 31 44 280-200-31-44-280 200z"/>
<path d="m-6741-469 29 46 210-130-29-46-210 130z"/>
<path d="m-6793-132 220-140-30-46-220 140 30 46z"/>
<path d="m-6586-27 222-140-30-46q-110 70-221 139l29 47z"/>
<path d="m-6624 284 48 27 140-250-48-27-140 250z"/>
<path d="m-6247-148 100-190-49-26-100 190 49 26z"/>
<path d="m-6643 551 45 31 166-240-45-31-166 240z"/>
<path d="m-6693 938 260-150-27-48-260 150 27 48z"/>
<path d="m-6694 1143 35 42 230-200-35-42-230 200z"/>
<path d="m-6565 1394 37 40 280-250-37-40-280 250z"/>
<path d="m-6340 1631 47 26 130-230-47-26-130 230z"/>
<path d="m-6112 1453v282h55l-1-282h-54z"/>
<path d="m-6228 2007 43 34 131-165-42-34-132 165z"/>
<path d="m-5877 1916-160 190 41 36 160-190-41-36z"/>
<path d="m-5832 2095 51 18 80-220-51-18-80 220z"/>
<path d="m-5868 2427 43 34 151-191-41-36-11 11 1 1-143 181z"/>
<path d="m-5776 2655 39 38 180-190-39-38-180 190z"/>
<path d="m-5610 3090 47 28 130-210-47-28-130 210z"/>
<path d="m-6969-1849 360 30 5-54-360-30-5 54z"/>
<path d="m-6820-1181 219-288-44-33-218 287 43 34z"/>
<path d="m-6736-1629 13 54 255-60-13-53-255 59z"/>
<path d="m-6982-2039 320 60 11-54-320-60-11 54z"/>
<path d="m-6590-2643-280 40 7 54 280-40-7-54z"/>
<path d="m-6609-2266-276-61-12 54 276 61 12-54z"/>
<path d="m-6556-2933-290-10-1 54 290 10 1-54z"/>
<path d="m-6471-3022 245 163 30-46-245-163-30 46z"/>
</g>
</g>
</g>
</g>
<g fill-rule="evenodd" style="enable-background:new" transform="translate(-7.9351044,42)">
<g transform="matrix(.02537133 0 0 .02537133 157.93612 769.71595)" fill="#f2cab2">
<path d="m-29-633q-172 136-421 152l-216 7q-134 5-234 27-119 27-184 141-61 108-56 259 6 154 78 296 79 154 216 251 143 101 242 108 6 0 13 0 72 0 142-51l134-117q87-71 179-90 66-14 127-14 114 0 208 49 93 48 335 214 58 34 121 34 53 0 110-24 112-46 211-171 94-120 138-262 45-149 13-260-68-235-203-325-123-81-357-81-37 0-77 2-35 2-69 2-201 0-339-67-50-24-86-54l-25-26z" fill="#f2cab2"/>
</g>
<g transform="matrix(.02537133 0 0 .02537133 157.63166 775.27227)">
<path d="m-894-461 46 168 336 38q245 20 473 20 152 0 297-9 464-27 592-82 64-27 35-49l-41-37q-321 41-669 41-260 0-536-23l-387-43-146-24zm884 481q-117 0-279 15l-295 35 58 121 83 157q27 37 198 75 173 38 336 40 1 0 3 0 151 0 293-116 131-107 129-188-1-60-82-80l-255-44q-72-14-189-14z" fill="#cb8d71"/>
</g>
<g transform="matrix(.02537133 0 0 .02537133 157.70778 767.15345)">
<path fill-opacity="0" d="m438-337q-111 0-378 42-116 19-206 19-97 0-165-22-111-36-220-36-139 0-275 58-170 73-226 157 37 135 122 223 114 118 329 169 267 65 668 65 6 0 12 0 493-2 669-132 159-117 228-218l36-78q-75-58-184-118-217-120-388-129-10 0-22 0z"/>
</g>
<g transform="matrix(.02450687 .0065666 -.0065666 .02450687 173.23504 769.8428)">
<path fill-opacity="0" d="m43-85q-35 0-73 17-47 21-71 56t-11 63q13 29 55 34 8 1 16 1 35 0 73-17 47-21 70-56 24-34 11-63-12-28-54-34-8-1-16-1z"/>
</g>
<g transform="matrix(.02537133 0 0 .02537133 157.63166 773.29331)">
<path d="m-836-437q-16 0-29 9-21 13-26 37-6 23 7 44t37 26q105 24 266 45 310 42 628 42 423 0 800-73 24-5 37-25 14-20 9-44-4-24-25-38-15-10-33-10-5 0-11 1-368 71-771 71-180 0-367-14l-366-43-141-26q-8-2-15-2zm1015 551-424 13q-145 20-208 39l17 67 197-36 410-13 8-70zm131 75q-160 6-363 45l-180 41 18 68 172-39q201-40 356-45l-3-70zm-1 112q-75 0-209 34l-125 36 22 67 116-34q128-33 196-33v-70z"/>
</g>
</g>
<g style="enable-background:new" transform="translate(-8.6592064,42)">
<g fill-rule="evenodd" transform="matrix(.02537133 0 0 .02537133 158.64652 689.41566)">
<path d="m-60-4140q1520 0 2392 801 872 802 1030 2345l36 489q-51 586-158 1100-53 258-98 403l-2 6-41 183q-43 192-61 290l-2 11-12 118q-20 146-58 302-118 496-367 908-398 659-1058 992t-1569 333q-830 0-1463-327t-1057-975q-267-407-422-900-49-155-81-300l-23-117v-5l-101-515-3-7q-34-97-78-354-88-514-141-1326l8-46q131-1625 994-2517t2305-892zm-30-168q-718 0-1321 226-604 225-1049 660-475 464-751 1136-275 672-346 1538l-9 53 1 10q51 794 136 1312 48 288 91 419l98 502q31 199 114 458 159 499 434 919 392 604 973 952 722 432 1691 432 1055 0 1800-438 599-353 971-969 254-422 379-922 68-270 82-477 17-91 57-272l42-186q53-176 108-441 105-513 155-1101l1-7-37-503v-3q-167-1619-1081-2458-914-840-2509-840z"/>
</g>
</g>
<g style="enable-background:new" fill-rule="evenodd" transform="translate(-10.118095,42)">
<path d="m72.206374 694.99736-0.05078 1.09097 0.735772 2.02971-0.685028-3.12068z" fill="#262425"/>
<path d="m242.9301 682.00724-2.68937 4.89667 5.17576 7.94122 5.81003-7.71288-8.29642-5.12501z" fill="#cc7226"/>
<path d="m155.4751 569.35851q-8.75311 0-17.68382 1.44617l-6.52043 1.44616-6.31747 1.75062q-1.49691 0.45668-3.80569 0.45668-0.32984 0-0.68503 0-0.3552-0.0254-0.68503-0.0254-1.95359 0-2.94308 0.5328-0.35519 0.20297-0.91336 2.02971-0.50743 1.72525-1.2432 1.92822-0.30446 0.0761-0.60891 0.0761-1.26856 0-2.53714-1.42079-0.88799-1.01485-1.72525-1.01485-0.45668 0-0.88799 0.30446-0.7104 0.48205-2.10582 3.90717-1.37006 3.34902-2.08045 3.78033-8.169569 4.94742-15.324292 13.5483-7.078603 8.4994-12.076755 19.25684-5.099633 11.01117-7.20546 22.65661-2.207306 12.3051-0.735763 23.77294 2.08045 16.23765 2.283419 23.69683 0.10148 3.70422-0.202969 4.18627l0.735764 3.32364q0.126856-2.30879 4.186268-13.72589 3.932563-11.11264 3.932563-16.31377 0-10.02168 3.856443-21.97157 4.74444-14.81687 12.584182-20.4493 4.08478-2.94308 12.88864-5.45484 7.66214-2.18194 16.94805-3.57736 8.65163-1.26857 14.69-1.29394 0.10149 0 0.22835 0 6.013 0 5.86078 1.37006 0.63428-1.97897 4.7698-3.57736 4.18627-1.62377 10.47837-2.3088 4.00866-0.4313 8.01734-0.4313 11.13801 0 22.19992 3.32364 18.62256 5.55632 29.43075 18.95239 13.1931 16.31376 12.91401 42.37012-0.10148 8.4994 4.71907 12.50807 2.41027 1.97897 4.82055 2.28343l3.04456-0.40595q2.33416-18.29273 2.86696-27.7816 0.1776-3.0192-1.11634-12.63493-1.39542-10.17391-1.39542-12.22899-0.0254-3.75495 0.65965-5.96226 0.25371-0.888-0.93874-5.78467-0.32983-1.31931-2.66399-2.66399-2.41027-1.39542-2.81621-2.58787-4.05941-12.05139-12.4827-20.2717-7.63678-7.4338-21.38804-13.95423-20.6269-9.76797-39.75688-12.22899-6.59655-0.83725-13.26921-0.83725z" fill="#f4b230"/>
<path d="m151.87237 581.05469q-11.46785 0-22.93569 3.17142-28.87258 7.9666-44.704296 34.02296-4.744439 7.789-7.86511 18.1405-2.866958 9.565-3.957931 19.84039l0.659659 6.64729 2.917702 6.34284-4.237013 3.70421q-0.126856 5.83541 0.02539 11.7723 1.573023-0.78651 2.562508-1.59839 1.243198-1.04023 1.90285-2.38491 0.279081-0.55817-1.268567-1.95359-1.496911-1.37006-1.268566-1.59839 2.232675-1.92823 5.78466-4.59222l6.089126-4.54147-3.044559-3.90719q-0.304457-4.1609 0.710396-9.9963 2.055074-11.62007 8.803851-19.81501 5.404098-7.00249 10.90968-8.95608 1.90285-0.65966 3.2729-0.65966 0.60891 0 1.14171 0.12685l1.14171 0.40595 3.29828 0.98948 0.38057 0.10149q1.39542-8.87997 7.02785-15.7556 5.20113-6.31746 13.47218-10.32614 7.76363-3.78032 17.1764-4.99815 4.18627-0.55817 8.37254-0.55817 4.94741 0 9.84408 0.78651 2.28341 0.25372 6.08912 1.776 3.8057 1.52227 6.08912 1.77599 0.96411 0.22834-14.23332 13.64978-15.32429 13.49755-14.25869 14.03035 1.69988 1.06559 5.45483 1.06559 2.15657 0 5.02353-0.3552 3.95793-0.48205 15.45114-2.81621 10.14854-2.05508 14.66463-2.33417 0.98949-0.0508 1.85212-0.0508 5.17575 0 6.34283 2.18194l0.32982 0.86262q3.88182-1.26857 5.9369-2.15656 2.9177 0.78651 6.44431 2.89233 6.26672 3.67884 11.01117 9.79334 5.02352 6.49506 7.23083 17.43011 1.09096 5.45483 1.19245 9.61573l-2.30879 3.12067q1.44616 0.30446 0 3.24754-0.68503 1.44616-0.76114 2.00433-0.12686 0.91337 0.88799 0.98948 0 0.58354 2.89234 2.00434 2.89233 1.42079 2.89233 1.59839 0.20297 0.27908 2.28342 6.01301 1.80136 4.89667 2.9177 5.20112l0.7104-16.06006 2.71473-6.03837-4.13552-2.63862q0.60891-2.51176 0.86263-6.7234 0.55816-8.44866-1.09098-16.92268-5.22649-27.14734-30.36948-44.65356-5.75929-4.00867-12.91402-6.77414-6.59654-2.53714-13.39606-3.65348l-7.94123 10.42762-2.96844-7.94122-6.95175 7.43379-4.97278-11.89915q-4.59222-0.50743-9.18442-0.50743z" fill="#f4b230"/>
<path d="m154.48562 567.55714q-8.55014 0-16.49137 1.80137-4.89667 1.09096-8.42328 2.5625l-5.7593-1.24319-1.92822 3.90719-6.57118-2.74011-1.19245 6.013-5.02352-3.06992-2.86696 6.49505q-24.153518 18.57182-32.881257 39.22409-4.034044 9.53962-5.556323 20.88061-1.31931 9.9202-0.887996 23.11328l-0.152225 1.26857 0.02539 0.1776q2.004338 21.21044 5.530955 36.81381l3.095303-0.7104q-3.526617-15.62874-5.454842-36.25563l0.126856-1.16709v-0.12686q-0.405938-12.86326 0.862629-22.47899 1.471535-11.03654 5.404098-20.32245 8.52477-20.06873 32.145482-38.13311l0.30445-0.25371 1.75063-3.93257 5.81004 3.52662 1.31931-6.64729 5.75929 2.41028 2.13119-4.36387 4.36386 0.93874 0.48206-0.20297 1.80137-0.7104q2.28342-0.83726 4.99815-1.52228 8.29643-2.08045 17.32863-2.08045 0.32982 0 0.63428 0h0.83725l2.99382 0.0508 7.86511 0.55817q13.06624 1.31931 24.86391 4.84593 15.93321 4.74444 27.65476 13.16772 15.37503 11.08728 21.92083 27.5279l0.1776 0.43132 4.43999 3.27289-2.28342 4.84593 4.74444 3.24753-2.05509 6.08912 0.0508 0.38057 0.93874 8.09346q0.98948 9.86945 1.44617 19.33296 0.32982 6.46969-0.96411 14.48703-0.63428 4.00867-1.37006 6.77414l-0.25371 0.93874 2.79085 2.48639-4.43999 4.8713-2.66398 13.24384 3.12067 0.63428 2.48638-12.38121 6.01302-6.62192-3.75496-3.32364q0.93874-3.88182 1.54765-8.29643 0.96411-7.05323 0.65965-12.96476-0.68503-14.46165-2.35953-27.32492l2.58788-7.68752-4.5161-3.06993 2.25805-4.76981-5.81004-4.28776q-6.08912-14.94371-19.18073-25.67579-13.11698-10.73207-32.27234-16.46599-12.1275-3.62811-25.34596-4.94742l-8.04271-0.58354-3.29828-0.0508h-0.78651q-0.3552 0-0.68503 0z" fill="#9b4b1a"/>
<path d="m156.89589 596.37898q-3.57735 0-7.15471 0.38057-9.43814 0.96411-17.12565 4.38924-17.68383 7.83974-20.42393 25.16837 6.03838 1.82673 14.08109 3.19679 10.17391 1.72525 21.26118 2.23267l2.56251 4.13553 0.22834-2.99382 4.05942 4.56684 1.77599-4.18627 1.21782 2.51177 4.08479-3.60273q11.72155-0.53281 23.26551-2.79085 8.62625-1.69988 16.16154-4.13553l-0.32983-0.86262q-3.57735-7.53529-5.6578-10.96042-3.52662-5.81004-8.70237-9.05757-0.7104-0.3552-2.68937-1.69988l-7.48454 5.17576 1.29394-7.61141-0.3552-0.17759-3.90718 4.05941-1.29394-5.91153q-1.92822-0.68502-3.83107-0.93874-5.53096-0.88799-11.03654-0.88799zm-71.318819 71.64865-6.089126 4.54147q-3.551985 2.66399-5.78466 4.59222l2.537132 3.55198-4.465358 3.9833 0.304458 6.74878q0.177601 2.79084 0.126857 3.55198l0.685027 3.12068 1.674512 4.49072 6.82489 2.05508 0.685019-15.70486 3.425137-4.26238-6.190607-3.6281 9.564991-8.80386-3.298272-4.23701zm144.819579-2.08045-4.54147 6.1145 10.19928 7.05323-4.36387 4.18627 3.6281 3.32364-0.48205 20.2717 8.04271-2.61325 3.37439-10.25001-6.01301-7.12935 2.68937-4.89667-5.2265-3.22216 3.39976-5.98763-10.70671-6.85027z" fill="#cc7226"/>
</g>
</g>
</g>
</g>
</svg>
