<?xml-stylesheet href="svg-fonts.css" type="text/css"?>
<svg xmlns="http://www.w3.org/2000/svg" version="1.1" viewBox="0 0 1920 1080" class="kitchen-wifi">
<style>
.kitchen-wifi .s0{fill:#ccc}
.kitchen-wifi .s1{fill:#ff2d52}
.kitchen-wifi .sbars.bespoke-bullet-inactive{visibility:visible}
.kitchen-wifi .sbars.bespoke-bullet-active .s1{fill:#ccc}
svg.active:root .bespoke-bullet-current .ondes,.bespoke-active .kitchen-wifi .bespoke-bullet-current .ondes{animation:2s linear 0s infinite alternate kitchen-wifi-flux}
@keyframes kitchen-wifi-flux{0%,14.99%{opacity:1}15%,84.99%{opacity:0}85%,100%{opacity:1}}
</style>
<defs>
<clipPath id="kitchen-wifi-a">
<path fill="navy" d="M320.49 760.718a170.427 170.453 0 1 1-340.855 0 170.427 170.453 0 1 1 340.855 0z"/>
</clipPath>
<clipPath id="kitchen-wifi-b"/>
</defs>
<g transform="translate(0 27.64)" class="build">
<rect width="1920" height="1080" y="-27.64" fill="#fff" ry="28.27"/>
<path fill="#eee" stroke="#555" stroke-width="5" d="M586.8 945.1h988.5V79.7h-1231v865.4h88.57v-18.37h-70.2V98.03h653.5v717.5h23.16V98.03h517.2v828.7h-970.2z" stroke-linecap="square"/>
<text x="479.896" y="179.45" style="fill:#333;line-height:125%;font-size:80.73px;font-family:Just Another Hand">
<tspan x="479.896" y="179.45" style="text-align:center" text-anchor="middle">Open space</tspan>
</text>
<path fill="#3795f1" d="M816.57 345.564a124.43 124.448 0 0 1-124.43 124.448 124.43 124.448 0 0 1-124.43-124.448 124.43 124.448 0 0 1 124.43-124.448 124.43 124.448 0 0 1 124.43 124.448z"/>
<g clip-path="url(#kitchen-wifi-a)" transform="matrix(.73 0 0 .73 582.58 -209.8)">
<g fill-rule="evenodd">
<path fill="#fccfbd" d="M181.566 804.885l-65.175 2.384-.152 83.923 64.87 1.522.61-50.384q.102-5.682 0-22.147l-.152-15.298z"/>
<path fill="#ecb8a0" d="M173.676 805.355l-24.355.177q-24.33.406-24.253 1.472.076.862-.61 24.228l-.658 25.75.43 32.322 49.877 1.167.076-34.807q-.126-2.74-.507-50.308z"/>
<path d="M181.766 803.752q-.812 0-1.395.583t-.583 1.396v42.75q0 .81.584 1.394t1.396.584q.837 0 1.42-.584t.584-1.395v-42.75q0-.81-.583-1.395t-1.42-.583zm-65.175 2.334q-.81 0-1.395.583t-.583 1.395v43.078q0 .812.583 1.395t1.396.584 1.396-.584.583-1.395v-43.078q0-.812-.584-1.396t-1.395-.584z"/>
<path fill="#da9e8e" d="M155.556 804.09q-3.653 0-8.474.636-6.9.888-9.64.888-.584 0-.99-.05-.837-.077-1.65-.077-7.255 0-10.857 7.23-2.08 4.186-3.222 12.76-.863 6.52-.66 9.972.533 8.65 5.53 12.988 6.166 5.38 14.056 7.28 4.11.99 8.55.99 4.768 0 9.893-1.14 13.42-3.02 18.393-14.944 1.548-3.73 2.08-7.915l.203-3.426q-3.248-22.554-18.876-24.914-1.903-.28-4.338-.28z"/>
<path fill="#fbf289" d="M182.88 844.91q-4.263 11.39-10.098 16.058-7.84 6.317-23.416 6.317-14.69 0-21.692-3.425-10.275-4.998-11.822-18.926H82.414q-4.287 0-9.082 2.31-4.795 2.282-8.88 6.265-9.387 9.183-9.36 20.676v65.505l188.6-.024V874.16q-.026-11.62-8.576-20.676-3.78-4.01-8.296-6.266-4.566-2.31-8.83-2.31z"/>
<path fill="#d7df23" d="M193.442 843.61l-3.83.305q-4.466.43-7.333 2.08-1.168 1.27-2.26 4.06l-1.85 5.327q-2.436 7.078-5.328 8.83-5.404 3.246-12.94 4.058-2.587.28-5.81.28-2.89 0-6.29-.23-22.047-1.52-29.86-12.126-2.462-3.323-3.172-7.13l-.254-3.17-1.446-1.497-4.998 13.598-12.43-6.697 4.312 12.28q-3.12-1.625-6.723-3.25-6.824-3.018-9.335-3.018h-.254q-7.28.508-10.274 3.5-2.968 2.944-4.49 11.012-1.168 6.165.66 38.588.912 16.21 2.054 31.18l156.66-1.878q-.152-.152-.203-.76-.203-2.183 1.142-9.134l-.813-33.286q-.635-25.496-1.827-30.215-2.03-6.19-8.347-8.17-2.69-.837-5.53-.837-2.208 0-4.516.508-1.65.355-5.632 1.826l-3.654 1.396 1.6-8.677-11.265 7.56 4.237-16.312z"/>
<path d="M182.79 842.584q-1.04 0-1.776.736t-.736 1.776.736 1.776 1.775.736h38.486q2.892.71 6.012 2.562 5.53 3.247 8.93 8.65 3.73 5.963 4.897 16.11.584 5.075.406 9.058v53.252H58.58v-63.983q.076-4.998 2.79-10.53 5.404-11.035 18.57-14.333h35.925q1.04 0 1.776-.736t.735-1.776-.736-1.775-1.777-.736H79.33l-.28.077q-8.853 2.13-14.94 7.484-4.62 4.06-7.333 9.667-1.98 4.135-2.79 8.702-.407 2.308-.432 3.957v68.98h192.99v-58.07q.177-4.872-.508-10.504-1.37-10.783-5.556-17.48-4.363-6.977-11.644-10.91-2.31-1.243-4.668-2.054l-2.106-.585-.254-.05z"/>
<path d="M182.282 843.6q-1.04 0-1.776.735t-.736 1.776v.635q.153 11.188-9.792 15.653-7.332 3.298-22.732 3.5H145.9q-6.9 0-12.252-1.19-7.764-1.726-11.57-5.785-4.058-4.364-3.525-11.493.076-1.04-.61-1.827-.66-.786-1.7-.862h-.202q-.912 0-1.623.61-.786.685-.862 1.7-.685 9.412 4.87 15.323 4.517 4.77 12.89 6.9 6.468 1.65 14.84 1.65h1.167q15.07-.203 23.087-3.273 14.587-5.632 14.384-20.956v-.583q0-1.04-.736-1.775t-1.776-.736z"/>
</g>
<g fill-rule="evenodd">
<path fill="#fbd2bd" d="M249.647 735.416q4.186 0 6.723 4.084 1.598 2.563 2.384 8.017.94 6.647-.177 13.573-3.07 19.256-20.068 31.46-3.426 2.46-6.775 2.46-.634 0-1.293-.102-2.233-.33-3.68-1.47-11.416-.432-11.035-15.325.127-5.226 1.7-11.24 1.32-4.97 2.638-7.28 2.233-3.907 12.203-6.012l.076-.456q1.09-4.922 5.176-10.25l3.88-4.338q2.41-1.903 5.48-2.714 1.473-.406 2.767-.406z"/>
<path fill="#ecb8a0" d="M249.73 744.18q4.872 0 3.45 14.74-1.47 15.095-9.08 21.894-2.767 2.487-5.862 3.375l-4.135.15q-.355-.15.812-1.927 1.725-2.664 2.486-4.364 3.122-7.13-2.105-12.534 1.6-6.215 4.364-11.77l2.435-4.34q3.4-4.16 6.494-5.048.608-.178 1.14-.178z"/>
<path fill="#cb8d71" d="M238.745 760.46q.076 0 .152.025l1.65.685q2.46 1.142 3.247 3.095.71 1.725.71 6.013 0 4.16-2.385 8.372-2.284 4.034-4.49 4.313-1.523.203-2.843.203-1.04 0-1.928-.127 2.993-1.726 4.845-4.897 3.704-6.368-2.03-13.6 1.015-1.217 1.75-2.46l.737-1.32q.228-.303.583-.303z"/>
<path d="M250.377 742.088q.634 0 1.27.1l.38.052.253.28.812 1.04q.837 1.293 1.344 2.917 1.573 5.1-.634 11.72-.152.483-.584.686l-.913.076q-.457-.153-.685-.585-.203-.456-.05-.913 1.674-5.074.938-9.057-.457-2.41-1.65-3.932-.202-.026-.43-.026-4.39 0-8.626 7.61-3.17 5.71-5.125 13.016 1.218 1.066 2.08 2.41 1.294 2.005 1.472 4.212.456 5.277-5.15 10.706-.33.33-.838.33-.482 0-.837-.355t-.33-.837q0-.507.355-.837 4.795-4.642 4.44-8.777-.178-2.106-1.7-3.958l-1.497-1.47-.685-.458.203-.812q1.7-6.723 4.644-12.583 5.302-10.554 11.543-10.554zm-.786-8.778q.89 0 1.75.152 4.263.736 6.85 4.922 1.752 2.816 2.64 8.575 1.065 7-.05 14.282-3.096 20.17-21.008 33.032-3.932 2.816-8.067 2.816-2.005 0-3.806-.66-1.523-.532-2.538-1.395-.66-.583-.76-1.446-.077-.89.48-1.574.56-.66 1.447-.736.126-.025.253-.025.71 0 1.294.482 1.065.863 2.765 1.066.457.05.888.05 2.69 0 5.556-2.055 16.085-11.543 19.18-29.76 1.116-6.57.28-12.81-.686-5.2-2.183-7.586-1.598-2.588-3.932-2.994-.507-.076-1.04-.076-1.8 0-3.983.964-1.572.71-2.79 1.624-1.903 1.776-3.882 4.414-3.552 4.744-4.49 9.032-.203.862-.94 1.345-.506.305-1.09.305-.254 0-.507-.05-.863-.178-1.345-.914t-.28-1.623q1.168-5.302 5.43-10.91l2.892-3.398 1.37-1.397.127-.1q1.522-1.194 3.603-2.132 3.12-1.42 5.886-1.42z"/>
<path d="M241.878 750.485l2.233.127q2.41.432 4.06 1.954.355.33.38.812.026.507-.304.862-.355.38-.863.38-.482 0-.81-.304-1.143-1.04-2.92-1.37l-1.547-.1h-.126q-.406 0-.736-.28-.38-.305-.43-.787t.278-.863l.786-.432zm-3.704 8.778q.228 0 .43.102l2.69 1.725q2.74 2.233 3.882 5.378 2.03 5.658-1.75 12.914-.33.634-1.04.634l-.56-.127q-.43-.23-.582-.686-.152-.482.076-.913 3.298-6.342 1.624-10.984-.888-2.512-3.146-4.39l-2.106-1.37q-.457-.177-.634-.634-.203-.456 0-.913.177-.458.66-.635.228-.102.456-.102z"/>
<path d="M249.794 770.908q.43 0 .735.28.354.33.38.81.05.51-.28.864-.938 1.04-2.638 3.602-3.602 5.277-6.114 7.08-2.41 1.698-5.023 1.698-2.157 0-4.44-1.14-.99-.483-1.8-.483-.585 0-1.067.252-1.32.838-1.98 3.882-.43 2.08-.43 4.16.025.483-.33.838-.33.355-.837.38-.48 0-.836-.355-.355-.33-.355-.812 0-2.36.43-4.516.863-4.16 3.07-5.582 1.09-.66 2.334-.66 1.344 0 2.84.762 1.777.862 3.4.862 1.853 0 3.477-1.116 2.258-1.522 5.683-6.596 2.005-2.893 2.842-3.83.33-.356.812-.382h.127z"/>
<path fill="#fbd2bd" d="M50.35 735.416q-4.185 0-6.722 4.084-1.598 2.563-2.384 8.017-.94 6.647.177 13.573 3.07 19.256 20.07 31.46 3.424 2.46 6.773 2.46.634 0 1.293-.102 2.233-.33 3.68-1.47 11.416-.432 11.035-15.325-.126-5.226-1.7-11.24-1.318-4.97-2.637-7.28-2.233-3.907-12.203-6.012l-.076-.456q-1.09-4.922-5.176-10.25l-3.88-4.338q-2.412-1.903-5.48-2.714-1.473-.406-2.767-.406z"/>
<path fill="#ecb8a0" d="M50.257 744.18q-4.87 0-3.45 14.74 1.47 15.095 9.082 21.894 2.765 2.487 5.86 3.375l4.135.15q.355-.15-.812-1.927-1.725-2.664-2.486-4.364-3.12-7.13 2.106-12.534-1.6-6.215-4.364-11.77l-2.437-4.34q-3.4-4.16-6.494-5.048-.61-.178-1.143-.178z"/>
<g>
<path fill="#cb8d71" d="M61.213 760.46q-.076 0-.152.025l-1.648.685q-2.46 1.142-3.248 3.095-.71 1.725-.71 6.013 0 4.16 2.385 8.372 2.282 4.034 4.49 4.313 1.52.203 2.84.203 1.04 0 1.93-.127-2.995-1.726-4.847-4.897-3.704-6.368 2.03-13.6-1.015-1.217-1.75-2.46l-.737-1.32q-.228-.303-.583-.303z"/>
</g>
<g>
<path d="M49.64 742.088q-.633 0-1.268.1l-.38.052-.254.28-.812 1.04q-.837 1.293-1.344 2.917-1.573 5.1.634 11.72.152.483.584.686l.913.076q.456-.153.685-.585.203-.456.05-.913-1.674-5.074-.938-9.057.457-2.41 1.65-3.932.202-.026.43-.026 4.39 0 8.626 7.61 3.17 5.71 5.125 13.016-1.217 1.066-2.08 2.41-1.293 2.005-1.47 4.212-.458 5.277 5.15 10.706.33.33.836.33.482 0 .837-.355t.33-.837q0-.507-.355-.837-4.795-4.642-4.44-8.777.178-2.106 1.7-3.958l1.497-1.47.685-.458-.203-.812q-1.7-6.723-4.643-12.583-5.302-10.554-11.543-10.554zm.787-8.778q-.888 0-1.75.152-4.262.736-6.85 4.922-1.75 2.816-2.638 8.575-1.067 7 .05 14.282 3.094 20.17 21.006 33.032 3.932 2.816 8.067 2.816 2.005 0 3.806-.66 1.52-.532 2.536-1.395.66-.583.76-1.446.077-.89-.48-1.574-.56-.66-1.447-.736-.128-.025-.255-.025-.71 0-1.294.482-1.064.863-2.764 1.066-.457.05-.888.05-2.69 0-5.556-2.055-16.085-11.543-19.18-29.76-1.116-6.57-.28-12.81.686-5.2 2.183-7.586 1.598-2.588 3.932-2.994.508-.076 1.04-.076 1.802 0 3.984.964 1.573.71 2.79 1.624 1.904 1.776 3.883 4.414 3.552 4.744 4.49 9.032.203.862.94 1.345.506.305 1.09.305.254 0 .507-.05.863-.178 1.345-.914t.28-1.623q-1.168-5.302-5.43-10.91l-2.892-3.398-1.37-1.397-.127-.1q-1.522-1.194-3.603-2.132-3.12-1.42-5.886-1.42z"/>
<path d="M58.14 750.485l-2.233.127q-2.41.432-4.06 1.954-.354.33-.38.812-.025.507.305.862.355.38.863.38.482 0 .81-.304 1.143-1.04 2.92-1.37l1.547-.1h.126q.406 0 .736-.28.38-.305.43-.787t-.278-.863l-.786-.432zm3.704 8.778q-.228 0-.43.102l-2.69 1.725q-2.74 2.233-3.882 5.378-2.03 5.658 1.75 12.914.33.634 1.04.634l.56-.127q.43-.23.582-.686.152-.482-.076-.913-3.298-6.342-1.624-10.984.888-2.512 3.146-4.39l2.106-1.37q.457-.177.634-.634.203-.456 0-.913-.177-.458-.66-.635-.228-.102-.456-.102z"/>
<path d="M50.224 770.908q-.43 0-.735.28-.356.33-.382.81-.05.51.28.864.938 1.04 2.638 3.602 3.602 5.277 6.114 7.08 2.41 1.698 5.023 1.698 2.157 0 4.44-1.14.99-.483 1.8-.483.585 0 1.067.252 1.32.838 1.98 3.882.43 2.08.43 4.16-.025.483.33.838.33.355.837.38.482 0 .837-.355.355-.33.355-.812 0-2.36-.432-4.516-.863-4.16-3.07-5.582-1.09-.66-2.334-.66-1.344 0-2.84.762-1.777.862-3.4.862-1.853 0-3.477-1.116-2.257-1.522-5.682-6.596-2.005-2.893-2.842-3.83-.33-.356-.812-.382h-.126z"/>
</g>
</g>
<g fill-rule="evenodd">
<path fill="#fde8dd" d="M148.4 624.237q-36.582 0-59.314 23.72-23.34 24.33-26.993 68.45l-.23 1.192q-.075 12.405 3.122 28.692 1.598 8.144 3.222 13.8l.964 4.517q1.37 5.708 3.3 11.543 6.14 18.723 15.678 31.966 12.71 12.71 20.194 18.443 6.9 5.277 11.594 6.266 5.91 1.242 15.882 3.856 7.865 1.877 13.522 1.877h.71l11.468-2.157 8.17.635 3.018-.152q18.47-5.784 29.556-14.993 4.21-3.5 8.144-8.144l6.266-7.99q2.385-3.12 9.92-26.715l7.027-22.96q1.37-5.226 2.562-12.634 2.435-14.84 1.725-25.826l-.23-1.192q.154-45.895-26.054-70.3-11.822-10.986-28.186-16.567-15.653-5.328-34.173-5.328h-.863z"/>
<path fill="#fccfbd" d="M147.56 647.966q-21.818 0-34.706 9.945-4.263 3.274-7.003 7.283l-1.9 3.348-13.955 45.566 6.444 13.725 3.044 23.62-13.776 17.607 16.998 34.402 3.145 3.754q4.162 4.49 9.287 8.245 16.364 12 36.127 12t36.355-11.823q8.32-5.937 12.66-11.848l14.51-31.435-10.224-20.904 2.79-22.985 5.1-10.782-16.16-44.702q-.533-1.496-1.903-3.754-2.74-4.54-7.002-8.372-13.648-12.253-37.268-12.862-1.294-.026-2.562-.026z"/>
</g>
<g fill-rule="evenodd">
<path fill="#fccfbd" d="M151.417 760.92q-3.907 0-8.753 7.94-2.03 3.3-3.146 6.445-1.116 3.247-.71 4.718.71 2.487 6.47 7.713 2.866 2.638 5.606 4.744 3.272-1.75 6.57-3.88 6.648-4.238 6.876-6.09-3.12-9.615-5.277-14.005-3.68-7.408-7.434-7.585h-.203z"/>
<path fill="#da9e8e" d="M150.56 760.063q-2.89 0-6.113 3.933-2.715 3.298-4.516 7.458l-3.576 10.3 5.657-4.972q6.014-5.05 7.714-5.378 3.12-1.167 6.317-1.624l2.563-.228-1.978-3.5-2.31-4.188q-1.8-1.8-3.754-1.8zm-8.422 22.224q-.28.533.05 1.294l.407.686 3.273 4.313 5.1 3.957 11.34-7.155-3.578-3.02-8.22 4.34-8.372-4.415z"/>
<path d="M147.86 767.316l-12.278 14.715 15.298 10.454q-3.527-3.68-6.52-7.332l-2.31-2.918q2.69-3.476 4.517-9.54l1.294-5.378z"/>
</g>
<g fill="#da9e8e" fill-rule="evenodd">
<path d="M98.313 715.658l-15.45 3.704 10.25 9.286-4.644 4.034 3.754 3.272-3.222 5.53 17.43 8.272 4.464 1.47 7.434.407q.888.05 1.776.05 1.395 0 2.69-.126 6.823-.71 9.208-4.49 2.664-4.263 4.77-11.366l1.573-6.266-12.203-5.125-27.83-8.652z"/>
<path d="M164.3 716.166l-4.313 13.14 13.142-3.5-8.83-9.64z"/>
<path d="M200.757 717.89l-25.27 6.673-15.83 3.374 1.015 4.592q1.37 5.302 3.197 8.98 3.5 6.952 13.344 9.387 4.312 1.09 8.067 1.09.534 0 1.067-.024l1.826-.736 5.658-.178 8.703-2.03 10.604-7.408-1.243-5.962 2.563-1.852-5.683-4.237 8.347-3.678-16.363-7.99z"/>
</g>
<g fill-rule="evenodd">
<path fill="#fff" d="M109.815 735.92q-.457 0-.61.077-.887.457-7.737 1.852-1.344 1.014-2.892 1.47-1.522.457-2.867 1.498 2.41 1.14 6.443 2.055 4.87 1.116 9.742 1.116 3.197 0 6.394-.483 1.622.076 3.17.076 2.055 0 3.983-.127l2.562-.228-1.623-1.37q-.838-.812-2.69-2.08-2.308-1.624-3.628-1.98l-5.936-1.32q-3.12-.557-4.313-.557z"/>
<path fill="#4a4a4c" d="M112.403 734.678q-3.12 0-4.87 1.827l10.197.33q-.81-1.015-2.156-1.573-1.32-.56-2.918-.584h-.253z"/>
<path fill="#4a4a4c" d="M107.532 736.505q-1.294 1.32-1.32 3.323-.076 2.385 1.75 4.212l9.464-.457q.736-.787 1.015-1.548t.305-1.953q.076-1.928-1.015-3.248l-10.198-.33z"/>
<path fill="#232122" d="M112.225 735.262l-2.055.1q-1.09.026-2.08.89l-1.548 1.8q-.685.914-.05 1.675.583.735 1.775.735h.077l1.877-.28 2.614-.43q.178-.025.33-.025 1.192 0 2.41.81 1.42.966 2.613.966 1.548-.026.736-2.08l-1.142-2.056.052-.228q-.152-.382-1.015-1.067t-2.816-.81z"/>
<path d="M112.428 737.672q-.862 0-1.497.634-.658.66-.71 1.624-.024.964.61 1.623.634.685 1.573.71h.076q.86 0 1.496-.634.66-.66.685-1.624.026-.94-.608-1.624t-1.548-.71h-.076zm-3.323-2.613l-.127.05q-1.548.735-2.385 1.927-.863 1.218-.913 2.766-.05 3.07 1.953 4.642l.634-.81q-1.623-1.27-1.547-3.807.05-2.537 2.613-3.755.583-.076 1.167-.076 1.243 0 2.512.33 1.167.304 3.45 1.218l1.47.558q.357.913.306 1.98-.026 1.09-.28 1.775t-.913 1.37l.736.71q.788-.837 1.143-1.7.33-.837.355-2.13.025-1.37-.482-2.614l-.1-.178-1.828-.735q-2.36-.963-3.653-1.293l-4.11-.228z"/>
<path fill="#fff" d="M115.574 735.287q-.812 0-1.37.61-.61.633-.61 1.52-.024.89.585 1.523.582.634 1.445.66.837 0 1.446-.61.584-.633.61-1.52 0-.89-.584-1.55-.61-.633-1.446-.633h-.076z"/>
<path d="M108.7 730.695q-8.576 0-15.756 4.693l.685 1.04q6.9-4.49 15.145-4.49 2.562 0 5.25.43 5.684.94 9.642 3.07l.61-1.09q-4.136-2.258-10.073-3.196-2.816-.457-5.505-.457zm-12.813 9.514l-1.548.734q1.014 1.015 3.805 2.055 5.023 1.902 12.533 2.105l.735.025 5.252-.38 5.277-.28 4.617-.202 2.03-.406-.965-1.27q-1.7.483-3.958.483-.786 0-1.624-.05l-5.556.28-5.784.354q-7.104-.204-11.645-1.828-2.283-.837-3.17-1.623z"/>
<path d="M113.088 733.13l-5.86.23q-3.603.43-7.916 2.51l-3.73 2.106q-2.105 1.624-2.917 2.64-.406.506-.406.684.38.076.887.076.685 0 1.624-.127 3.273-.432 7.13-2.183l5.632-1.7q3.044-.837 4.744-.837h.203q.684-.05 1.318-.05 2.664 0 4.998.913 1.573.608 4.414 2.486 3.806 2.56 4.948 3.957l.38.228h.05q.255 0 .052-.66l-3.552-3.932q-2.08-2.03-4.72-3.704-3.297-2.107-7.28-2.64z"/>
</g>
<g fill-rule="evenodd">
<path fill="#fff" d="M189.078 736.12q-1.218 0-4.11.432l-5.988 1.117q-1.32.33-3.704 1.85-1.877 1.218-2.74 2.005l-1.674 1.294 2.562.303 7.155.305q3.982.735 7.965.735 4.034 0 8.042-.76 3.983-.736 6.368-1.777-1.32-1.065-2.715-1.65-1.37-.582-2.69-1.648-6.798-1.623-7.66-2.105-.204-.102-.812-.102z"/>
<path fill="#4a4a4c" d="M186.338 734.777q-3.273 0-4.973 2.004h10.2q-.864-.938-2.183-1.47-1.32-.508-2.892-.533h-.152z"/>
<path fill="#4a4a4c" d="M181.365 736.78q-1.142 1.295-1.142 3.223-.025 1.167.23 1.928.278.787.988 1.625l9.44.76q1.876-1.8 1.876-4.16.026-1.98-1.192-3.374z"/>
<path fill="#232122" d="M185.12 735.335q-1.928.05-2.842.71-.888.66-1.014 1.015-.076.203.025.254l-1.22 2.03q-.887 2.03.66 2.08h.077q1.167 0 2.588-.863 1.167-.735 2.334-.735.202 0 .405.026 1.395.153 2.613.533l1.852.355h.152q1.142 0 1.75-.685.635-.76-.025-1.674l-1.47-1.853q-.965-.913-2.03-.99l-2.08-.152-1.777-.05z"/>
<path d="M186.464 737.796q-.862 0-1.496.634-.66.685-.66 1.623 0 .965.634 1.624.635.685 1.573.71h.076q.864 0 1.498-.66t.66-1.623q0-.964-.634-1.623-.66-.684-1.573-.684h-.076zm1.802-2.664q-1.142 0-2.334.253-1.32.28-3.704 1.167l-1.65.61-.228.05-.076.203q-.533 1.09-.583 2.588 0 1.268.305 2.13.305.89 1.066 1.75l.762-.684q-.634-.71-.863-1.396t-.23-1.8q0-1.067.38-1.955l1.473-.534q2.283-.837 3.476-1.09l3.703-.127q2.51 1.318 2.486 3.83 0 2.562-1.676 3.754l.61.838q2.054-1.523 2.105-4.567 0-3.222-3.122-4.82l-.152-.05q-.862-.153-1.75-.153z"/>
<path fill="#fff" d="M189.61 735.512q-.81 0-1.37.61-.608.633-.608 1.52-.026.89.583 1.524.584.634 1.446.66.838 0 1.447-.61.584-.634.61-1.522 0-.888-.584-1.547-.61-.635-1.447-.635h-.076z"/>
<path d="M189.51 730.92q-2.158 0-4.44.28-3.73.48-7.307 1.7l-2.867 1.166.583 1.116q.05-.025 2.765-1.116 3.4-1.167 6.976-1.624 2.158-.28 4.213-.28 8.854 0 16.034 5.025l.735-1.04q-7.484-5.227-16.693-5.227zm13.166 10.275q-.812.685-3.02 1.345-4.337 1.294-11.238 1.294h-.28l-5.783-.56-5.53-.455-4.01-.255-1.547-.355-.457 1.37 1.726.406 4.34.28 5.276.456 5.987.558h.354q7.357 0 12.254-1.65 2.917-.99 3.73-1.877l-1.802-.558z"/>
<path d="M188.063 733.153q-.94 0-1.928.1-4.01.382-7.383 2.386-2.69 1.597-4.846 3.526-1.344 1.243-3.678 3.83-.254.635.025.635h.05q.178-.025.407-.202l1.065-.99q1.573-1.294 4.01-2.79 2.89-1.776 4.49-2.36 2.13-.76 4.54-.76.888 0 1.802.1 1.725.026 4.896 1.015l5.582 1.903q5.15 2.36 8.397 2.588.355.025.685.025 1.09 0 1.548-.28-.965-.507-4.263-3.222l-3.678-2.232q-4.237-2.233-7.814-2.766-1.8-.507-3.907-.507z"/>
</g>
<g fill="#cc7226" fill-rule="evenodd">
<path d="M207.1 714.897l-.837 1.345 4.287 3.222q4.617 3.88 6.495 7.535l1.42-.712q-2.03-3.907-6.773-7.966l-4.592-3.425zm8.98 4.364l-1.166 1.066q3.88 4.288 5.277 7.79l1.472-.585q-1.497-3.804-5.58-8.27zm-15.906-3.323q-.28 0-.533.05-3.627.762-38.003 10.63l-2.64 5.253 19.562-3.907q18.52-3.603 21.106-3.603.178 0 .305.026l16.212 3.704q-.507-1.827-1.497-3.146-1.217-1.65-6.52-5.252-5.505-3.755-7.99-3.755z"/>
<path d="M86.694 711.447q-2.13 1.09-4.897 3.628-2.613 2.46-3.475 4.008l1.395.76q.736-1.343 3.222-3.652 2.56-2.358 4.464-3.348l-.71-1.395zm6.14-1.27q-2.64 1.37-5.404 3.274-5.43 3.73-7.206 6.927l1.396.76q1.598-2.916 6.9-6.52 2.664-1.8 5.05-3.043l-.737-1.396zm3.145 2.285q-4.288 2.41-6.09 3.272-1.116.533-4.87 3.83l-3.527 3.198 15.476-1.09h.1q2.03 0 20.22 5.377 9.463 2.765 19.713 5.885l-.457-2.435q-.33-1.27-.33-1.675-26.41-12.228-30.698-13.826-2.69-1.016-6.368-1.88l-3.17-.658z"/>
</g>
<g fill-rule="evenodd">
<path fill="#f2cab2" d="M149.23 795.64q-4.364 3.45-10.68 3.857l-5.48.178q-3.4.126-5.938.685-3.02.685-4.668 3.577-1.548 2.74-1.42 6.57.15 3.908 1.978 7.51 2.004 3.907 5.48 6.368 3.628 2.562 6.14 2.74h.33q1.826 0 3.602-1.294l3.4-2.967q2.207-1.8 4.54-2.284 1.675-.356 3.223-.356 2.892 0 5.277 1.243 2.36 1.218 8.5 5.43 1.47.862 3.068.862 1.345 0 2.79-.61 2.842-1.167 5.354-4.338 2.385-3.044 3.5-6.647 1.143-3.78.33-6.596-1.724-5.963-5.15-8.246-3.12-2.055-9.056-2.055-.94 0-1.954.05-.888.05-1.75.05-5.1 0-8.6-1.7-1.27-.608-2.182-1.37l-.635-.66z"/>
<path fill="#cb8d71" d="M126.984 805.604l1.167 4.263 8.526.964q6.215.508 12 .508 3.856 0 7.534-.228 11.772-.685 15.02-2.08 1.623-.686.887-1.244l-1.04-.938q-8.143 1.04-16.972 1.04-6.596 0-13.6-.584l-9.817-1.09-3.704-.61zm22.427 12.203q-2.967 0-7.077.38l-7.484.89 1.47 3.07 2.106 3.982q.685.937 5.023 1.902 4.388.964 8.524 1.014h.076q3.83 0 7.433-2.943 3.324-2.714 3.273-4.77-.025-1.52-2.08-2.03l-6.47-1.115q-1.826-.355-4.795-.355z"/>
<path fill-opacity="0" d="M160.877 800.65q-2.816 0-9.59 1.066-2.943.482-5.226.482-2.46 0-4.185-.558-2.816-.914-5.58-.914-3.528 0-6.978 1.472-4.313 1.852-5.734 3.983.94 3.426 3.095 5.658 2.892 2.994 8.347 4.288 6.774 1.65 16.947 1.65h.305q12.507-.052 16.972-3.35 4.033-2.968 5.784-5.53l.913-1.98q-1.903-1.47-4.668-2.993-5.507-3.044-9.845-3.273h-.558z"/>
<path fill-opacity="0" d="M166.877 810q-.858-.23-1.9-.064-1.29.206-2.11.907t-.682 1.472q.128.796 1.125 1.194.19.076.385.13.858.228 1.9.06 1.29-.205 2.085-.912.81-.675.683-1.47-.11-.767-1.1-1.19-.19-.076-.386-.13z"/>
<path d="M128.456 804.213q-.406 0-.736.23-.533.328-.66.937-.152.584.178 1.117t.94.66q2.662.608 6.747 1.14 7.865 1.066 15.932 1.066 10.732 0 20.296-1.852.61-.125.94-.633.354-.507.227-1.116-.1-.608-.634-.963-.38-.254-.837-.254-.128 0-.28.025-9.336 1.802-19.56 1.802-4.567 0-9.31-.355l-9.287-1.09-3.577-.66q-.203-.052-.38-.052zm25.75 13.98l-10.757.33q-3.68.506-5.278.988l.432 1.7 4.998-.912 10.4-.33.204-1.776zm3.324 1.902q-4.06.152-9.21 1.142l-4.566 1.04.456 1.725 4.364-.99q5.1-1.014 9.032-1.14l-.076-1.777zm-.026 2.84q-1.902 0-5.302.864l-3.17.912.557 1.7 2.942-.863q3.247-.838 4.972-.838v-1.776z"/>
</g>
<path fill-rule="evenodd" d="M148.42 626.368q38.56 0 60.684 20.322 22.122 20.346 26.13 59.492l.914 12.406q-1.294 14.867-4.008 27.907-1.345 6.546-2.486 10.224l-.05.15-1.04 4.644q-1.092 4.87-1.55 7.357l-.05.28-.304 2.994q-.508 3.704-1.472 7.662-2.993 12.583-9.31 23.036-10.098 16.72-26.842 25.167t-39.805 8.447q-21.056 0-37.116-8.296t-26.816-24.735q-6.774-10.325-10.706-22.833-1.243-3.932-2.055-7.61l-.583-2.97v-.126L69.39 756.82l-.075-.177q-.862-2.46-1.98-8.98-2.23-13.04-3.576-33.64l.202-1.168q3.324-41.227 25.218-63.857t58.478-22.63zm-.762-4.262q-18.216 0-33.514 5.734-15.324 5.708-26.613 16.744-12.05 11.772-19.052 28.82-6.977 17.05-8.778 39.02l-.228 1.344.025.254q1.294 20.143 3.45 33.285 1.218 7.307 2.31 10.63l2.485 12.736q.787 5.048 2.892 11.62 4.034 12.66 11.01 23.314 9.946 15.324 24.686 24.152 18.317 10.96 42.9 10.96 26.766 0 45.667-11.113 15.196-8.955 24.634-24.583 6.445-10.706 9.616-23.39 1.725-6.85 2.08-12.103.432-2.308 1.447-6.9l1.065-4.718q1.345-4.465 2.74-11.19 2.664-13.013 3.932-27.93l.026-.178-.94-12.762v-.076q-4.236-41.074-27.424-62.36-23.188-21.31-63.653-21.31z"/>
<g fill-rule="evenodd">
<path fill="#262425" d="M62.09 737l-.05 1.09.735 2.03-.685-3.12z"/>
<path fill="#cc7226" d="M232.78 724l-2.69 4.897 5.177 7.94 5.81-7.712L232.78 724z"/>
<path fill="#f4b230" d="M145.38 611.4q-8.753 0-17.68 1.446l-6.52 1.446-6.317 1.75q-1.497.458-3.806.458h-.685q-.355-.026-.685-.026-1.954 0-2.943.533-.355.203-.913 2.03-.507 1.725-1.242 1.928-.305.076-.61.076-1.268 0-2.536-1.42-.888-1.015-1.725-1.015-.457 0-.888.305-.712.482-2.107 3.907-1.37 3.35-2.08 3.78-8.17 4.947-15.32 13.55-7.08 8.5-12.08 19.26-5.1 11.01-7.205 22.66-2.207 12.31-.736 23.77 2.08 16.24 2.283 23.7.1 3.704-.203 4.186l.736 3.324q.127-2.31 4.186-13.73 3.933-11.11 3.933-16.31 0-10.02 3.856-21.97 4.744-14.82 12.58-20.45 4.085-2.943 12.89-5.455 7.662-2.182 16.95-3.577 8.652-1.27 14.69-1.294h.228q6.014 0 5.862 1.37.634-1.978 4.77-3.576 4.186-1.624 10.48-2.31 4.01-.43 8.017-.43 11.14 0 22.2 3.323 18.62 5.556 29.43 18.95 13.19 16.31 12.91 42.37-.102 8.5 4.718 12.51 2.41 1.98 4.82 2.283l3.046-.406q2.334-18.29 2.867-27.78.18-3.02-1.115-12.63-1.395-10.17-1.395-12.23-.025-3.755.66-5.962.253-.888-.94-5.785-.33-1.32-2.663-2.664-2.41-1.395-2.816-2.588-4.058-12.05-12.48-20.27-7.636-7.434-21.39-13.95-20.63-9.768-39.76-12.23-6.596-.837-13.27-.837z"/>
<path fill="#f4b230" d="M141.78 623.1q-11.47 0-22.94 3.17-28.87 7.968-44.7 34.02-4.744 7.79-7.865 18.14-2.867 9.566-3.958 19.84l.66 6.648 2.918 6.343-4.237 3.705q-.127 5.835.025 11.77 1.573-.786 2.563-1.598 1.243-1.04 1.903-2.385.278-.558-1.27-1.954-1.497-1.37-1.27-1.598 2.234-1.928 5.786-4.592l6.09-4.54-3.046-3.908q-.304-4.16.71-9.996 2.055-11.62 8.804-19.82 5.404-7.002 10.91-8.956 1.903-.66 3.273-.66.61 0 1.142.127l1.14.406 3.3.99.38.102q1.395-8.88 7.028-15.76 5.2-6.317 13.47-10.33 7.764-3.78 17.18-4.998 4.186-.558 8.373-.558 4.948 0 9.845.786 2.283.254 6.09 1.776t6.088 1.776q.964.23-14.23 13.65-15.32 13.5-14.26 14.03 1.7 1.066 5.455 1.066 2.157 0 5.024-.355 3.958-.482 15.45-2.816 10.15-2.056 14.66-2.335.99-.05 1.852-.05 5.176 0 6.343 2.18l.33.864q3.882-1.27 5.937-2.158 2.918.786 6.444 2.892 6.267 3.68 11.01 9.793 5.024 6.495 7.23 17.43 1.092 5.455 1.193 9.616l-2.308 3.12q1.446.305 0 3.25-.685 1.445-.76 2.003-.128.913.887.99 0 .583 2.89 2.003 2.893 1.42 2.893 1.597.203.28 2.283 6.013 1.8 4.897 2.918 5.2l.71-16.06 2.715-6.037-4.137-2.64q.61-2.51.863-6.722.558-8.448-1.09-16.92-5.227-27.148-30.37-44.648-5.76-4.01-12.91-6.774-6.598-2.537-13.4-3.653l-7.942 10.43-2.968-7.94-6.952 7.432-4.973-11.9q-4.59-.507-9.183-.507z"/>
<path fill="#9b4b1a" d="M144.38 609.6q-8.55 0-16.49 1.8-4.897 1.092-8.423 2.563l-5.76-1.243-1.927 3.907-6.57-2.74-1.193 6.013-5.024-3.07-2.867 6.495q-24.15 18.57-32.88 39.22-4.034 9.54-5.556 20.88-1.32 9.92-.888 23.11l-.152 1.27.025.177q2.004 21.21 5.53 36.81l3.096-.71q-3.58-15.7-5.51-36.3l.128-1.168v-.127q-.406-12.86.863-22.48 1.473-11.04 5.405-20.32 8.525-20.07 32.15-38.13l.304-.253 1.75-3.933 5.81 3.528 1.32-6.647 5.758 2.41 2.13-4.363 4.365.938.482-.203 1.8-.71q2.284-.837 5-1.522 8.295-2.08 17.33-2.08h1.471l2.994.05 7.865.56q13.07 1.318 24.86 4.845 15.93 4.744 27.65 13.17 15.38 11.09 21.92 27.53l.177.43 4.44 3.274-2.283 4.845 4.743 3.248-2.055 6.09.05.38.94 8.093q.99 9.87 1.446 19.33.33 6.47-.964 14.49-.635 4.01-1.37 6.774l-.254.938 2.79 2.486-4.44 4.87-2.663 13.24 3.12.636 2.487-12.38 6.013-6.622-3.755-3.324q.94-3.882 1.548-8.296.964-7.053.66-12.96-.685-14.46-2.36-27.32l2.588-7.688-4.516-3.07 2.258-4.77-5.81-4.288q-6.09-14.94-19.18-25.68-13.12-10.73-32.27-16.47-12.13-3.628-25.35-4.947l-8.043-.584-3.298-.05h-1.472z"/>
<path fill="#cc7226" d="M146.78 638.4q-3.577 0-7.155.38-9.438.965-17.13 4.39-17.68 7.84-20.42 25.17 6.038 1.827 14.08 3.197 10.17 1.725 21.26 2.233l2.563 4.136.228-2.994 4.06 4.567 1.775-4.187 1.22 2.512 4.084-3.603q11.72-.533 23.27-2.79 8.626-1.7 16.16-4.137l-.33-.863q-3.577-7.535-5.658-10.96-3.527-5.81-8.702-9.058-.71-.355-2.69-1.7l-7.484 5.176 1.294-7.61-.355-.18-3.908 4.06-1.294-5.912q-1.928-.685-3.83-.938-5.532-.888-11.04-.888zm-71.32 71.65l-6.09 4.54q-3.55 2.665-5.784 4.593l2.537 3.552-4.465 3.983.305 6.75q.177 2.79.126 3.55l.684 3.122 1.675 4.49 6.824 2.056.685-15.7 3.424-4.262-6.19-3.628 9.564-8.804-3.298-4.237zm144.8-2.08l-4.54 6.114 10.2 7.053-4.365 4.186 3.628 3.324-.482 20.27 8.044-2.613 3.374-10.25-6.013-7.13 2.69-4.896-5.227-3.222 3.4-5.988-10.71-6.85z"/>
</g>
</g>
<path d="M656.8 756.1s12.29-16.06 35.24-16.06 35.24 16.06 35.24 16.06l-35.24 35.24z" class="s1"/>
<g class="build sbars">
<path d="M626.1 715.8c-3.022 3.012-4.53 5.016-4.53 5.016l21.12 21.12s17.21-22.47 49.34-22.47 49.32 22.49 49.32 22.49l21.15-21.15s-24.59-32.13-70.49-32.13c-34.43 0-56.85 18.08-65.92 27.11z" class="s1"/>
<path d="M593.2 678.1c-4.532 4.518-6.828 7.535-6.828 7.535l21.15 21.15s29.49-38.56 84.57-38.56 84.57 38.56 84.57 38.56l21.15-21.15s-36.86-48.17-105.7-48.17c-51.64 0-85.29 27.08-98.88 40.64z" class="s1"/>
<path d="M560.2 640.3c-6.043 6.024-9.104 10.03-9.104 10.03l21.15 21.15s41.76-54.6 119.8-54.6c78.03 0 119.8 54.6 119.8 54.6l21.15-21.15s-49.16-64.24-141-64.24c-68.85 0-113.7 36.13-131.9 54.2z" class="s1"/>
</g>
<text x="1411.257" y="179.45" class="build" style="fill:#333;line-height:125%;font-size:80.73px;font-family:Just Another Hand">
<tspan x="1411.257" y="179.45" style="text-align:center" text-anchor="middle">Salle de pause</tspan>
</text>
<g class="build">
<rect width="235.1" height="140.8" x="1178" y="456.7" fill="none" stroke="#333" stroke-width="6.575" ry="11.96"/>
<rect width="175.8" height="105.3" x="1195" y="474.4" fill="none" stroke="#333" stroke-width="4.916" ry="8.938"/>
<path fill="#ff2d52" d="M1251 571.2c-5.926-.293-10.26-1.802-13.62-4.746-1.34-1.174-2.888-3.26-3.606-4.86l-.26-.58-.06-1.49c-.124-3.083.1-6.432.786-11.82.463-3.63.582-4.634.71-6.038.33-3.56.31-6.594-.062-9.32-.376-2.77-.79-3.937-2.905-8.214-1.367-2.765-1.773-3.69-2.246-5.115-.62-1.87-.87-3.497-.815-5.314.044-1.44.253-2.563.69-3.706.164-.424.902-1.514 1.54-2.273.284-.338 1.262-1.375 2.174-2.305 2.186-2.23 2.655-2.793 3.337-4 .927-1.636 1.318-3.2 1.384-5.535l.033-1.138.278-.29c.57-.597 1.866-1.673 2.947-2.45 6.863-4.938 17.47-7.824 32.15-8.752 3.842-.243 6.968-.33 11.7-.33 5.647 0 10.05.13 18.44.545 2.586.128 2.657.13 3.892.024 3.373-.285 4.5-.17 6.092.627 1.377.692 2.798 1.79 4.48 3.47 1.195 1.19 1.95 2.057 2.88 3.302 1.314 1.76 1.755 2.625 2.934 5.763 1.71 4.547 2.5 5.63 6.994 9.585.74.65 1.693 1.51 2.116 1.905 1.344 1.26 2.604 2.8 3.3 4.032.608 1.076 1.085 2.634 1.256 4.1.17 1.47.104 3.59-.152 4.865-.392 1.947-1.46 3.978-3.04 5.786-.216.247-1.31 1.38-2.433 2.515-2.14 2.166-2.69 2.758-3.473 3.742-1.157 1.452-1.898 2.772-2.605 4.64-.655 1.73-1.134 2.888-1.406 3.4-.636 1.198-2.022 2.9-3.688 4.533-1.63 1.598-3.363 2.974-5.637 4.48-3.6 2.383-6.697 4-14.92 7.79-5.418 2.5-6.648 3.098-10.99 5.36-.774.404-1.878.957-2.455 1.23-3.294 1.558-4.436 1.877-10.04 2.81-2.385.397-3.437.61-5.935 1.205-5.945 1.413-10.32 2.158-14.59 2.48-.864.066-4.382.12-5.18.082zm6.796-2.684c5.7-.486 11.7-1.64 15.12-2.907 4.71-1.75 5.91-2.016 7.975-1.773 1.02.12 1.58.122 2.02.008.962-.25 3.202-1.333 6.68-3.233 2.67-1.457 3.877-2.053 8.862-4.37 8.177-3.802 12.03-5.842 15.63-8.28 4.497-3.045 7.74-6.407 9.077-9.41a24.6 24.6 0 0 0 .585-1.5l.64-1.826c.427-1.215.82-2.047 1.322-2.804.53-.796.933-1.185 1.87-1.805.43-.285.784-.53.784-.546a5.53 5.53 0 0 0-.266-.546c-.01-.008-.3.158-.652.37-.728.436-.917.498-1.154.374l-.164-.086.714-.364c4.228-2.155 7.288-5.76 8.1-9.537.408-1.902.297-4.094-.294-5.767-.628-1.78-1.498-3.185-2.81-4.543-1.23-1.27-2.183-1.97-3.683-2.706-1.844-.904-3.433-1.294-5.627-1.382-.863-.034-2.612.044-3.023.136-.126.028-.114.01.074-.125.72-.506 1.64-.606 3.907-.423 1.165.094 2.522.118 2.565.045.015-.025-.2-.328-.48-.673-.278-.346-.743-.98-1.032-1.407-1.07-1.58-1.4-2.205-4.183-7.873-1.067-2.173-2.07-3.86-3.115-5.237-.623-.82-2.116-2.3-2.824-2.8-1.135-.8-2.293-1.35-3.506-1.663-1.233-.32-2.964-.447-6.88-.51-1.25-.02-2.733-.06-3.293-.09s-2.566-.084-4.46-.12c-7.66-.146-16.08.19-24.28.964-4.547.43-11.93 1.35-11.61 1.447.232.072 1.086.223 1.767.312 1.33.173 2.442.232 4.34.23 3.043-.003 4.785-.164 11.81-1.093 4.776-.632 6.197-.744 9.42-.747 2.79-.002 3.34.035 5.266.36 3.303.557 6.773 1.772 9.828 3.44 1.934 1.057 4.518 2.72 6.71 4.318 1.405 1.024 4.127 3.117 4.095 3.15-.046.045-1.385-.666-2.34-1.244a204.31 204.31 0 0 1-3.34-2.117c-2.83-1.826-3.89-2.48-5.192-3.207-3.936-2.196-7.68-3.48-11.64-3.997-.676-.09-1.246-.11-2.934-.11-2.86.003-4.342.14-9.64.9-7.867 1.124-9.46 1.192-15.39.654-3.267-.296-4.752-.362-6.142-.276-5.913.367-12.11 3.44-16.44 8.15l-.743.81.037.748c.09 1.836-.24 3.644-.918 4.997-.602 1.2-1.234 1.995-3.227 4.046-.753.774-1.54 1.62-1.746 1.878-1.174 1.46-1.798 2.815-2.143 4.653-.13.687-.176 2.666-.084 3.563.247 2.43.563 3.222 2.415 6.046 1.3 1.983 1.692 2.72 2.14 4.017.417 1.212.69 2.437.925 4.18.238 1.752.288 2.866.252 5.535-.04 2.972-.15 4.46-.676 9.1-.827 7.3-1.025 9.91-.97 12.72.024 1.22.038 1.356.19 1.856a8.623 8.623 0 0 0 1.357 2.664c2.424 3.27 6.986 5.098 13.8 5.53.928.06 5.57-.017 6.646-.11zm-5.09-7.344c-4.91-.31-8.187-1.49-10.4-3.742-.477-.487-1.09-1.266-1.253-1.6-.116-.234-.292-1.588-.285-2.195.01-.625.09-.834.402-1.006l.254-.14V555.958l.404.354c1.113.98 2.102 1.606 3.517 2.233 3.67 1.624 9.143 2.38 15.66 2.164 12.44-.413 23.88-2.823 35.5-7.48 3.576-1.433 7.292-3.157 11.05-5.126 2.11-1.107 3.27-1.593 4.58-1.92.615-.155 1.544-.303 1.592-.255.016.015-.3.243-.706.505-3.98 2.58-10.42 5.654-16.48 7.87-11.27 4.12-23.18 6.4-35.92 6.874-1.87.07-6.763.066-7.902-.007zm4.24-3.646c-1.693-.097-3.45-.33-4.568-.605-2.82-.695-4.724-2.057-5.518-3.95-.175-.416-.5-1.552-.418-1.456.027.03.18.244.34.474.393.57 1.26 1.45 1.915 1.945 1.43 1.084 3.397 1.935 5.743 2.487 1.488.35 4.123.727 6.052.866 1.062.077 4.374.077 5.358 0 .41-.032 1.88-.098 3.263-.147 8.333-.298 11.28-.654 15.4-1.862 3.124-.916 5.947-2.1 11.69-4.906 4.114-2.01 5.702-2.73 7.432-3.372 1.44-.535 3.156-.976 4.132-1.062l.38-.033-.838.325c-2.27.882-4.025 1.688-8.862 4.068-3.83 1.884-5.154 2.506-7.026 3.3-4.534 1.925-8.44 3.045-12.13 3.48-1.454.17-3.35.24-4.45.16-1.408-.1-2.437-.088-4.26.053-2.21.172-11.85.34-13.63.237zm6.538-3.172c-1.447-.057-2.533-.184-3.332-.39l-.56-.145 5.69.02c4.64.02 5.9.007 6.854-.066 1.416-.11 3.112-.077 3.767.07.244.055.608.163.808.24l.365.14-2.544.007c-1.398.004-3.217.033-4.04.063-2.357.086-5.63.115-7.005.06zm.988-2.52c-6.535-.27-11.76-1.027-15.34-2.22-2.76-.918-3.918-1.822-5.205-4.062-1.496-2.604-2.502-6.657-2.806-11.31-.18-2.784.058-7.338.49-9.306.29-1.332.892-2.814 1.945-4.8.35-.66.674-1.305.722-1.437.047-.133.125-.625.172-1.094.108-1.078.178-1.36.378-1.52.14-.11.208-.12.635-.085.262.023.496.072.52.11.103.168.35 1.02.436 1.512.05.296.134 1.158.183 1.916.104 1.583.17 2.154.328 2.784.11.44.124.46.61.914 3.635 3.396 9.047 5.518 15.62 6.124 1.42.13 5.128.182 6.77.093 10.93-.592 24.48-4.376 40.14-11.2a330.51 330.51 0 0 0 5.487-2.473l.458-.21.02-.918c.02-.86.033-.94.188-1.256.228-.465.458-.596 1.196-.68l.343-.038v.35c0 1.028.32 2.192.794 2.906.577.872 1.364 1.49 3.53 2.77.517.305 1.167.733 1.445.95.477.372 1.055.97 1.055 1.094 0 .093-.61.428-.918.505-.4.098-1.343.037-2.226-.144-1.414-.292-1.645-.274-1.966.153-.27.357-.806 1.51-.88 1.892a2.81 2.81 0 0 0 .12 1.452c.066.177.122.385.122.462 0 .098-.198.335-.676.808-1.365 1.35-2.472 2.807-4.785 6.3-2.232 3.37-3.798 5.345-5.743 7.24-1.1 1.075-1.705 1.587-3.136 2.653-4.935 3.682-10.88 6.66-15.91 7.97-3.647.95-8.628 1.548-15.02 1.802-1.677.066-7.45.063-9.1-.006zm1.697-2.55c.543-.045.515.054.335-1.188-.314-2.16-.808-3.368-1.742-4.258-.695-.662-1.51-.972-2.686-1.023-1.04-.045-2.634.186-2.634.38 0 .163.38 1.077.942 2.267.686 1.45.91 1.99 1.126 2.694.09.296.17.544.173.55 0 .006.235.077.515.158.713.206 1.575.344 2.483.396l.905.054c.07.006.33-.01.583-.03zm9.557-.165c.47-.092 1.44-.332 1.486-.368.01-.01-.06-.268-.16-.575-.345-1.08-.387-1.82-.284-5.005.03-.93.033-1.69.01-1.69-.024 0-.44.108-.923.24-1.06.292-2.65.618-3.64.745-1.033.133-2.68.207-3.576.16-.422-.02-.778-.022-.79 0-.03.05.153 1.172.515 3.135.164.89.36 2.02.436 2.515l.14.898.863.035c.476.02 1.888.03 3.14.02 1.816-.01 2.377-.032 2.783-.11zm-16.94-.542c0-.208-.345-1.152-.733-2.01-.694-1.53-.944-2.322-.944-2.996v-.295h-.344c-.435-.002-.915-.115-1.91-.45-.864-.293-1.637-.415-1.637-.26 0 .166.472 1.065.993 1.888 1 1.584 1.17 2.1.926 2.82-.07.21-.11.407-.09.443.074.117.892.46 1.405.587.498.124 1.846.344 2.167.355.106.003.165-.026.165-.082zm23.92-.183c1.576-.184 3.396-.623 6.076-1.466 1.088-.343 3.163-.952 3.555-1.044.166-.04.17-.05.135-.314-.077-.56-.474-1.568-1.07-2.714-.858-1.652-.93-1.81-1.066-2.302-.16-.58-.24-1.528-.194-2.323.02-.354.014-.643-.014-.643s-.767.273-1.642.607c-3.838 1.465-6.224 2.173-8.657 2.568-.426.07-.785.135-.796.147-.01.01-.044.285-.072.61-.055.63 0 1.792.153 3.102.127 1.1.172 2.488.1 3.052-.036.263-.055.486-.046.496.026.027.942.194 1.363.25.61.078 1.342.07 2.173-.028zm-30.36-1.66c-.768-2.212-1.65-3.797-2.764-4.965l-.408-.428-.116.234c-.084.167-.116.353-.114.653 0 .37.037.494.29 1.047.532 1.166.64 1.577.522 2.01-.055.204-.114.27-.35.4-.157.083-.44.186-.632.228l-.347.076-.298-.29c-.163-.162-.297-.273-.297-.25 0 .128.38.77.5.85.312.204 1.207.514 2.14.74 1.253.303 1.98.472 2.074.48.045.006-.03-.285-.203-.786zm-5.525-2.14c.148-.69-.073-1.288-1.083-2.91a33.206 33.206 0 0 1-.81-1.365l-.255-.473-.04.383a2.36 2.36 0 0 0 .025.672c.036.16.41.968.832 1.796.422.83.828 1.71.903 1.956.204.675.19.65.277.45a3.2 3.2 0 0 0 .15-.507zm49.01-.362c1.466-.765 2.492-1.422 5.323-3.41 1.905-1.34 2.672-1.856 3.544-2.39l.61-.373-.387-.46c-.59-.703-.993-1.54-1.2-2.496-.117-.535-.17-1.686-.098-2.17.03-.206.034-.374.01-.374-.025 0-.687.317-1.47.705-3.32 1.643-6.226 2.796-8.76 3.476l-.87.234-.04.263c-.06.4-.055 1.176.013 1.61.123.78.443 1.54 1.213 2.874.693 1.202 1.06 2.16 1.06 2.77 0 .213.012.23.136.193.073-.022.487-.224.918-.45zm-15.12-8.444c.956-.097 2.205-.348 4.337-.873 1.12-.276 2.483-.574 3.026-.663.543-.088.996-.165 1.006-.172.01-.007-.036-.224-.103-.483a52.755 52.755 0 0 1-.397-1.88c-.24-1.22-.545-2.57-.592-2.618-.033-.034-2.7.432-4.405.77-1.87.37-5.895 1.247-6.442 1.402l-.305.086-.038.67c-.042.733.018 3.758.074 3.77.02.004.4.027.843.05.896.05 2.124.026 2.994-.062zm-16.25-.612c-.134-2.146-.13-2.214.178-2.692l.142-.222-.385-.12c-.788-.242-1.28-.306-3.744-.485-1.466-.107-2.494-.326-3.262-.696-.163-.08-.33-.13-.37-.115-.082.03-.29.412-.412.76-.045.128-.14.612-.21 1.077-.15.99-.276 1.394-.56 1.79l-.206.286.73.242c1.716.57 3.3.764 6.35.78l1.788.008-.038-.614zm10.08-1.64v-2.255l-.674.037c-.37.02-1.388.157-2.26.306-1.972.335-2.784.42-3.598.37l-.635-.037-.035.374c-.036.38-.1.607-.48 1.694-.233.67-.313 1.153-.25 1.52l.04.244H1274.544v-2.254zm32.7 1.953c1.233-.612 2.005-1.482 3.6-4.05.793-1.278 1.245-1.89 1.84-2.497l.463-.472-.42.04c-1.05.098-2.303.467-3.37.993-1.45.713-2.39 1.512-2.933 2.487-.57 1.024-.596 2.004-.087 3.326.214.556.164.546.908.176zm-53.69-.342c-.27-.63-.337-.903-.316-1.274.02-.342.08-.51.48-1.347.488-1.012.646-1.49.646-1.954v-.284l-.434-.126c-1.25-.36-2.02-.745-2.848-1.422l-.238-.195-.254.285c-.14.156-.328.447-.42.645-.39.852-.388 1.7.012 3.757l.263 1.363.337-.038c.458-.053 1.154.095 1.987.422.76.3.853.318.788.166zm-6.44-1.856c.22-.822.496-2.034.614-2.69.223-1.245.183-3.728-.068-4.2-.028-.054-.17.116-.422.505-1.08 1.67-1.614 3.11-1.635 4.424-.01.598 0 .69.146.992.085.182.246.434.356.56.213.242.755.634.877.634.04 0 .1-.1.132-.224zm44.97-.66c.875-.362 1.7-.628 3.888-1.25 1.106-.313 2.347-.69 2.76-.84.95-.342 2.19-.934 2.826-1.35 1.563-1.024 2.516-2.676 2.71-4.7.025-.24.02-.434-.01-.434-.028 0-.698.16-1.488.355-1.758.435-3.08.81-7.046 2.002-2.644.794-4.004 1.185-5.123 1.474-.145.036-.256.1-.256.147 0 .045.066.36.146.7.08.34.244 1.132.365 1.758.186.968.306 1.543.48 2.296.018.08.063.128.105.11l.64-.266zm15.31-5.435c5.604-1.034 9.026-3.688 9.682-7.508a7.04 7.04 0 0 0 .097-.95v-.386l-.433.042c-1.656.16-3.175.77-5.972 2.402-1.76 1.027-2.78 1.56-3.616 1.89l-.654.256.05 1.02c.093 1.845.073 2.65-.074 3.043-.156.417-.224.403.92.19zm-62.65-1.3c.09-.14.22-.388.29-.552.138-.323.372-1.233.33-1.277-.07-.07-.75.907-.982 1.41l-.143.307.143.18c.08.1.156.183.172.185.016.002.103-.112.19-.252zm23.28 2.358c-.49-.158-.77-.318-1.418-.81-.71-.537-1.306-1.116-2.544-2.465-1.096-1.195-1.755-1.83-2.397-2.306l-.463-.344-.4.414c-.427.443-.882.715-1.196.715-.25 0-.366-.162-.715-.994a17.21 17.21 0 0 0-.298-.686c-.042-.068-.74.177-1.28.45-.245.122-.847.45-1.338.73-.49.28-1.072.59-1.292.687-.75.337-1.673.522-2.206.442l-.28-.043.534-.225c.84-.352 2.282-1.1 3.285-1.707 1.787-1.08 3.423-2.276 6.68-4.888 1.17-.937 2.43-1.94 2.8-2.23l.674-.528-.017-1.987-.016-1.986-.54-.282c-1.692-.885-3.4-1.22-8.38-1.635-2.252-.188-3.432-.334-4.59-.567-.857-.173-2.457-.655-2.648-.797-.087-.064-.08-.12.074-.56.527-1.515 1.968-2.743 3.78-3.22 3.24-.856 7.637-.23 11.3 1.604 1.278.64 2.492 1.6 3.05 2.41.184.267.246.32.348.286 1.708-.546 2.678-.62 3.477-.267l.28.122-.043.406c-.06.56-.175.815-.498 1.1-.347.305-.663.467-1.554.795-.91.335-1.165.47-1.518.8l-.29.27v5.236l-.315.296c-.398.375-.826.664-1.84 1.245-.988.564-1.49.897-1.898 1.257-.338.298-.78.928-.938 1.336l-.1.257.426.7c1.364 2.252 2.69 3.594 4.195 4.246.4.174.54.207.778.184.337-.032.757-.238 1.306-.638.215-.157.486-.342.603-.412l.212-.127.43.255c.237.14.446.27.465.29.047.047-.42 1.07-.712 1.56-.488.816-1.136 1.434-1.71 1.63-.348.12-.852.11-1.262-.022zm-11.53-22.13a25.71 25.71 0 0 1 1.76-.088c.725 0 .74-.003.64-.114-.055-.062-.268-.203-.472-.313-.345-.186-.417-.2-1.042-.223-.37-.012-.976.007-1.348.044-.372.037-1.047.084-1.5.106-.812.04-.822.04-.718.157.24.266.903.496 1.483.514.1.003.638-.033 1.197-.082zm68.5 21.42l-.355-.093.596-.133c1.61-.362 2.75-.954 3.654-1.897.56-.584.88-1.052 1.283-1.873.52-1.063.864-2.29 1.027-3.67l.07-.6.204.267c.192.25.203.287.164.578-.13.983-.73 4.074-.928 4.78-.056.2-.164.284-1.243.98-1.343.863-2.378 1.394-3.15 1.615-.6.17-.814.18-1.32.046zm-40.34-2.194c-.255-.074-.48-.153-.5-.173-.022-.02-.04-.26-.045-.533-.01-.702.11-.912.927-1.675.834-.777.98-1.043.966-1.75a6 6 0 0 0-.088-.838c-.073-.335-.09-.36-.316-.438-.433-.15-1.016-.25-2.19-.37-1.234-.127-1.822-.23-2.302-.41-.265-.097-.298-.13-.316-.307-.027-.273.233-.78.538-1.057.566-.51 1.44-.74 2.378-.625 1.528.187 2.686.573 3.6 1.197.744.508.836.77.837 2.393 0 1.925-.342 3.124-1.143 3.98-.69.74-1.334.905-2.344.606zm-45.37-.583c-.765-.522-1.52-.886-2.783-1.34-1.16-.416-1.9-.77-2.444-1.17-.465-.34-.59-.563-.964-1.722-.93-2.875-.776-6.034.41-8.48 1.09-2.25 3.223-4.253 5.542-5.208.57-.235.72-.246 1.586-.12 1.183.17 2.493.097 4.49-.253 1.124-.196 1.93-.207 2.47-.032.396.128.88.41 1.07.622l.113.127-.27-.037c-1.954-.27-4.448-.247-6.227.056-1.866.318-3.727 1.025-5.097 1.936-3.683 2.45-4.86 6.41-3.315 11.14.146.446.332.908.413 1.027.318.466 1.107.867 2.93 1.487 1.732.59 2.468.984 2.65 1.418.054.132.08.355.07.595l-.02.385-.627-.43zm85.71.257c-.1-.164-.214-.817-.214-1.24 0-.665.187-1.362.736-2.75.582-1.468.644-1.705.683-2.603.084-1.963-.78-4.095-2.183-5.392-.814-.752-1.75-1.268-2.967-1.637-1.036-.313-1.895-.407-3.513-.383l-1.347.02-.492.4c-1.272 1.038-2.51 1.688-4.385 2.306-2.524.832-5.43 1.222-8.128 1.092-1.623-.078-2.734-.258-3.926-.635-2.778-.88-4.29-2.518-4.455-4.83-.035-.504-.03-.53.078-.5.062.018.21.052.324.075.742.148 1.627.65 3.066 1.74.583.44 1.253.926 1.487 1.078 2.034 1.316 4.9 1.522 7.71.553.89-.307 1.597-.642 3.393-1.61 2.2-1.184 3.084-1.53 4.627-1.803.64-.114.978-.135 2.138-.136 1.513 0 2.313.1 3.497.44 3.71 1.07 6.44 3.79 7.22 7.2.256 1.12.233 2.642-.057 3.786-.382 1.507-1.285 3.022-2.562 4.3-.57.57-.662.64-.728.532zm-42.94-.816c-.875-.607-1.718-.712-3.85-.477-1.757.195-2.46.174-3.283-.098-.375-.124-.38-.13-.345-.31.124-.617.62-1.235 1.274-1.583.834-.446 2.584-.69 4.05-.564.9.077 2.015.28 2.696.49l.412.127-.03.76c-.023.547-.067.874-.164 1.177-.13.414-.295.754-.357.74a4.798 4.798 0 0 1-.403-.262zm-42.83-3.063c-1.75-.276-2.62-1.035-3.03-2.642-.078-.312-.143-.592-.143-.622 0-.13.503.26.635.492.23.406.594.805 1.157 1.27l1.132.936c.335.276.608.526.608.554 0 .053-.084.056-.36.013zm58-.776c-1.02-.43-1.787-.473-4.75-.268-1.97.135-3.178-.157-3.596-.87-.303-.516-.396-1.138-.225-1.498.15-.314.326-.38.718-.27.178.048.323.108.323.13 0 .025-.148.147-.33.272-.308.212-.33.242-.294.412.066.322.326.694.607.872.552.35 1.876.51 3.49.418 2.01-.113 3.858-.056 4.206.128.15.08.284.372.284.618 0 .245.016.243-.432.055zm34.27-1.124c-.192-.22-.193-.225-.148-.653.072-.687.047-4.366-.034-5.154-.07-.692-.084-.732-.434-1.42-1.063-2.084-2.566-3.443-4.586-4.146-1.333-.464-2.428-.61-5.488-.728-2.472-.095-2.966-.135-2.737-.22.076-.028.385-.09.685-.14.78-.127 4.25-.125 5.228.003 3.587.466 5.978 2.142 7.078 4.96.65 1.664.902 3.596.78 5.963-.035.708-.083 1.392-.106 1.52l-.04.235-.195-.22zm-95.3-1.775l-.224-.306.04-.7a203.7 203.7 0 0 1 .37-4.43l.035-.377.37-.27a9.355 9.355 0 0 1 1.775-1.014c.677-.298 2.22-.878 2.252-.846.012.012-.063.152-.17.31-.262.398-.742.732-1.814 1.264-1.294.643-1.716 1.044-1.98 1.882-.083.267-.11.69-.147 2.215-.035 1.407-.07 1.967-.14 2.206-.05.176-.102.333-.117.347-.015.015-.128-.11-.252-.28zm12.59-.27c-.024-.026-.044-.13-.044-.232 0-.293-.23-1.046-.44-1.438-.57-1.07-1.455-1.48-3.213-1.48-.973-.002-1.57.085-3.514.51-.815.18-1.672.355-1.903.39-.66.1-1.048.14-1.048.113 0-.12.298-.887.496-1.273.302-.59.976-1.29 1.51-1.57 1.08-.564 2.512-.783 4.01-.612 2.704.308 5.714 1.52 7.61 3.064l.483.394.263-.16c.145-.087.6-.384 1.012-.66.412-.275.87-.554 1.018-.62.366-.16.84-.117 1.268.114l.32.17-.02.27c-.05.72-.344 1.466-.753 1.903-.438.468-1.044.747-2.13.98-.495.107-.854.127-2.725.152-1.186.016-2.176.01-2.2-.017zm34.46-5.91c-.192-.16-.767-.55-1.275-.87-1.184-.744-1.766-1.29-2.065-1.937-.114-.246-.225-.585-.247-.754-.146-1.1 1.285-2.97 3.303-4.32 3.8-2.54 10.25-3.63 15.47-2.61 1.414.275 2.956.785 4.08 1.348 2.083 1.045 3.75 2.89 4.385 4.86.254.79.268.715-.187 1.02-.858.572-1.268.703-2.195.703-.812 0-1.37-.094-3.027-.51-1.575-.395-1.798-.432-3.098-.508-4.132-.242-8.736.854-13.46 3.204l-1.325.66-.352-.288zm1.618-2.856c.582-.15 1.196-.438 2.387-1.124 1.648-.95 2.434-1.205 3.862-1.256.722-.026.912-.05.912-.116 0-.046-.153-.547-.34-1.115-.31-.943-.34-1.08-.344-1.585 0-.304-.027-.554-.056-.554-.063 0-1.486.443-2.732.85-3.975 1.3-5.688 2.644-5.688 4.458v.376l.284.088c.414.127 1.168.117 1.714-.022zm19.19-2.34c-.043-.28-.087-.36-.308-.558-.573-.515-1.517-.804-2.404-.736-.26.02-.49.05-.506.068-.064.064.124.7.25.847.117.137.216.164.967.264.972.13 1.332.227 1.704.464.326.207.373.153.295-.35zm5.183 3.008c-.306-.106-.915-.48-1.053-.647-.115-.138.027-.2.454-.202.29 0 .42.035.667.176.264.15.547.434.705.705.066.113-.41.092-.772-.033zm.958-1.41c-.32-.106-.71-.31-.8-.418-.063-.077.036-.09.783-.11.744-.02.89-.04 1.108-.156.14-.073.282-.186.316-.25.07-.132.11-.12-.867-.242a9.23 9.23 0 0 1-.9-.157c-.444-.114-1.128-.447-1.406-.688l-.21-.18.66.024c.552.02.85.076 1.856.34 1.107.292 1.25.316 1.9.32.448.002.704.027.703.067 0 .193-.318.698-.59.944-.454.407-.85.542-1.654.565-.434.012-.742-.01-.9-.06zm-43.18-3.54a1.942 1.942 0 0 1-.284-.503c-.116-.34-.116-1.203 0-2.044.104-.76.11-1.097.027-1.487-.054-.252-.147-.388-.63-.917-.506-.556-1.043-1.257-1.043-1.363 0-.038.74-.247.875-.246.037 0 .208.25.38.554.174.305.448.72.61.923l.292.37-.016 2.472-.015 2.473-.193-.234zm39.59-3.51c-2.717-4.13-8.857-6.53-17.93-7.004-.82-.043-2.35-.06-3.92-.043l-2.575.028.45-.11c1.288-.316 6.054-.516 8.416-.354 3.055.21 5.62.705 8.207 1.587 2.545.867 4.35 1.877 5.73 3.204.776.748 1.35 1.55 1.713 2.4.133.31.31.837.283.837-.01 0-.174-.245-.37-.545zm-57.35.183a10.23 10.23 0 0 1 .947-3.13c.28-.588.36-.7.658-.938 1.246-.993 3.622-1.827 6.298-2.21 2.448-.35 5.08-.298 7.604.152l1.497.263c.824.145 1.134.225 1.437.374.477.233.545.403.35.886-.115.29-.034.296-1.158-.092-1.438-.495-2.78-.807-4.43-1.03-1.02-.137-3.99-.154-4.97-.028-3.466.446-6.08 1.87-7.32 3.99-.115.197-.363.722-.55 1.166-.186.444-.352.82-.368.836-.016.015-.012-.092.01-.24zm32.25-.55c-.246-.664-.335-1.496-.26-2.45l.05-.638.284-.318c.157-.176.505-.627.774-1.004.27-.377.642-.84.83-1.032.437-.445.616-.487 1.118-.262l.362.163-.35.226c-.456.296-1.132.937-1.506 1.43a8.02 8.02 0 0 0-.61 1.018l-.313.622-.04 1.054c-.053 1.492-.13 1.754-.34 1.19zm29.22-.053c-1.71-1.578-4.764-3.806-7.044-5.14-1.048-.614-3.402-1.79-4.43-2.214-3.574-1.47-7.14-2.298-11.11-2.576-1.117-.078-3.89-.08-5.12-.002-1.803.114-2.76.273-5.388.897-3.062.726-3.844.846-6.316.965-1.765.085-5.17.04-7.184-.094-2.46-.165-5.277-.445-8.785-.873-.798-.097-1.62-.177-1.83-.177-.417 0-.31-.057-1.81.967-.38.26-.816.503-1.033.576l-.375.128.106-.182c.18-.31.792-.94 1.177-1.213.495-.35.887-.542 1.516-.735.512-.157.57-.162 2.024-.165 1.662-.003 1.725.003 4.49.506 2.042.37 2.736.463 4.04.536 2.48.14 5.18.018 8.682-.393 1.14-.134 2.49-.324 6.944-.976 2.68-.393 4.54-.51 7.394-.47 2.195.033 3.28.114 5.115.38 6.043.877 11.37 3.16 15.62 6.683.726.604 1.948 1.764 2.54 2.412.517.568 1.162 1.392 1.12 1.433-.012.012-.167-.11-.342-.273z" class="troll"/>
<g class="ondes">
<path fill="#fff" stroke-width="0" d="M1201.44 480.12h162.93v93.86h-162.93z"/>
<path fill="none" stroke="#ff2d52" stroke-width="6.575" d="M1217 513.8s25.09-7.346 41-7.874c15.91-.53 40.35 10.38 55.37 9.882 15.02-.5 35.92-6.403 35.92-6.403" stroke-linecap="round"/>
<path fill="none" stroke="#ff2d52" stroke-width="6.575" d="M1217 546.2s25.09-7.346 41-7.874c15.91-.528 40.35 10.38 55.37 9.882 15.02-.5 35.92-6.403 35.92-6.403" stroke-linecap="round"/>
</g>
<g fill="none" stroke="#ff2d52" stroke-width="10" stroke-linecap="round">
<path stroke-width="6.575" d="M1399.318 561.142a8.22 8.22 0 0 1-8.22 8.22 8.22 8.22 0 0 1-8.218-8.22 8.22 8.22 0 0 1 8.22-8.218 8.22 8.22 0 0 1 8.218 8.218z"/>
<path stroke-width="6.575" d="M1399.318 527.097a8.22 8.22 0 0 1-8.22 8.22 8.22 8.22 0 0 1-8.218-8.22 8.22 8.22 0 0 1 8.22-8.22 8.22 8.22 0 0 1 8.218 8.22z"/>
<path stroke-width="6.575" d="M1399.318 493.052a8.22 8.22 0 0 1-8.22 8.22 8.22 8.22 0 0 1-8.218-8.22 8.22 8.22 0 0 1 8.22-8.22 8.22 8.22 0 0 1 8.218 8.22z"/>
</g>
<text x="1294.114" y="690.878" style="fill:#ff2d52;line-height:125%;font-size:80.73px;font-family:Just Another Hand">
<tspan x="1294.114" y="690.878" style="text-align:center" text-anchor="middle">Micro-ondes</tspan>
</text>
</g>
</g>
</svg>
