<svg xmlns="http://www.w3.org/2000/svg" version="1.1" viewBox="0 0 1920 1080" class="wifi-4g">
<style>
.wifi-4g .s0{fill:#ccc}
.wifi-4g .s1,.wifi-4g .s2{fill:#ff2d52}
svg.active:root .s2,.bespoke-active .wifi-4g .s2{animation:3s linear 0s infinite alternate wifi-4g-flux}
@keyframes wifi-4g-flux{0%,14.99%{opacity:1}15%,84.99%{opacity:0}85%,100%{opacity:1}}
</style>
<path class="s0" d="M1544.78 408.78l-47.31 47.314V671.22h47.31V408.78z"/>
<path class="s2" d="M1544.78 408.78l-47.31 47.314V671.22h47.31V408.78z"/>
<path class="s1" d="M1470.844 482.72l-43.97 43.967V671.22h43.97v-188.5z"/>
<path class="s1" d="M1400.25 553.312l-43.97 43.97v73.937h43.97V553.31z"/>
<path class="s1" d="M1329.656 623.937l-47.28 47.282h47.28v-47.283z"/>
<text x="1171.703" y="465.154" fill="#ff2d52" font-size="104.087" font-family="sans-serif" font-weight="700" transform="matrix(.97802 0 0 .97802 133.674 28.876)">
<tspan>4G</tspan>
</text>
<path class="s1" d="M465.764 607.362s12.29-16.063 35.24-16.063c22.95 0 35.24 16.062 35.24 16.062l-35.24 35.24z"/>
<path class="s1" d="M435.074 567.108c-3.02 3.012-4.53 5.016-4.53 5.016l21.125 21.125s17.212-22.474 49.342-22.474c32.13 0 49.32 22.495 49.32 22.495l21.148-21.146s-24.59-32.13-70.49-32.13c-34.425 0-56.85 18.08-65.916 27.114z"/>
<path class="s1" d="M402.127 529.344c-4.532 4.518-6.828 7.535-6.828 7.535l21.146 21.146s29.485-38.56 84.566-38.56c55.08 0 84.565 38.56 84.565 38.56l21.147-21.147s-36.86-48.173-105.712-48.173c-51.638 0-85.288 27.084-98.885 40.637z"/>
<path class="s0" d="M369.16 491.602c-6.044 6.024-9.105 10.032-9.105 10.032l21.147 21.147s41.757-54.6 119.788-54.6c78.03 0 119.832 54.6 119.832 54.6l21.147-21.146s-49.157-64.236-140.958-64.236c-68.85 0-113.724 36.133-131.853 54.204z"/>
<path class="s2" d="M369.16 491.602c-6.044 6.024-9.105 10.032-9.105 10.032l21.147 21.147s41.757-54.6 119.788-54.6c78.03 0 119.832 54.6 119.832 54.6l21.147-21.146s-49.157-64.236-140.958-64.236c-68.85 0-113.724 36.133-131.853 54.204z"/>
</svg>
