<svg xmlns="http://www.w3.org/2000/svg" version="1.1" viewBox="0 0 1920 1080">
<path fill="#ff2d52" d="M1544.78 408.78l-47.31 47.314V671.22h47.31V408.78zm-73.936 73.94l-43.97 43.967V671.22h43.97v-188.5zm-70.594 70.592l-43.97 43.97v73.937h43.97V553.31zm-70.594 70.625l-47.28 47.282h47.28v-47.283z"/>
<path d="M625.656 592.482v-26.24l-104.963-65.603v-72.164c0-10.89-8.79-19.68-19.68-19.68s-19.682 8.79-19.682 19.68v72.163l-104.962 65.6v26.242l104.963-32.8v72.16l-26.24 19.682v19.68l45.922-13.12 45.922 13.12v-19.68l-26.24-19.68V559.68l104.962 32.802z"/>
<g fill="#555">
<path d="M935.702 489.163h-28.477L885.63 564.08h-.383l-21.022-74.917H834.41l36.504 101.674h28.093l36.695-101.674"/>
<path d="M1034.44 520.124c-2.103-28.667-25.8-33.636-45.677-33.636-31.725 0-41.09 19.11-41.09 34.018 0 38.032 63.068 25.227 63.068 42.237 0 3.822-3.248 10.51-17.008 10.51-16.818 0-22.17-6.306-22.17-14.906h-27.52c.764 27.138 25.8 35.165 48.925 35.165 15.863 0 44.53-5.35 44.53-34.974 0-37.458-63.64-25.8-63.64-41.854 0-4.396 1.91-9.938 16.435-9.938 14.524 0 16.818 6.88 17.965 13.378h26.182"/>
<path d="M1085.59 562.934h-28.668v27.903h28.667v-27.903"/>
</g>
<g style="fill:#ff2d52;line-height:125%;font-family:sans-serif;font-weight:700">
<text x="1168.914" y="446.504" font-size="124.443" transform="translate(133.674 28.876) scale(.97802)">
<tspan x="1168.914" y="446.504">∞</tspan>
</text>
<text x="1274.336" y="434" font-size="67.515" transform="translate(133.674 28.876) scale(.97802)">
<tspan x="1274.336" y="434">G</tspan>
</text>
</g>
</svg>
