<?xml-stylesheet href="svg-fonts.css" type="text/css"?>
<svg xmlns="http://www.w3.org/2000/svg" version="1.1" viewBox="0 0 1920 1080">
<path fill="#333" d="M619.034 66.916A6.915 6.915 0 0 0 612.118 60H427.695a6.915 6.915 0 0 0-6.916 6.916v136.012a6.915 6.915 0 0 0 6.915 6.916h184.423a6.915 6.915 0 0 0 6.916-6.916V66.916zm-153.302-.385a4.996 4.996 0 1 1-.002 9.993 4.996 4.996 0 0 1 .002-9.992zm-13.832 0a4.997 4.997 0 1 1-.002 9.994 4.997 4.997 0 0 1 .002-9.993zm-13.83 0a4.997 4.997 0 1 1-.003 9.994 4.997 4.997 0 0 1 .002-9.993zm171.743 134.093H430V85.358h179.813v115.265z"/>
<text fill="#ff2d52" font-size="80.73" font-family="Just Another Hand" transform="translate(0 27.638)">
<tspan x="519.197" y="300.397" style="text-align:center" text-anchor="middle">Page</tspan>
</text>
<text x="455.591" y="247.608" fill="#666" transform="rotate(-13.096 120.392 13.82)" font-size="50" font-family="sans-serif" font-weight="bold">
<tspan>v1</tspan>
</text>
<path fill="#333" d="M519.9 556.276l-70.092 29.04-29.03 70.088 29.03 70.088 70.092 29.04 70.105-29.04 29.03-70.088-29.03-70.09-70.105-29.038zm14.532 44.918l34.083 26.146 5.6 42.583-26.15 34.08-42.585 5.61-34.082-26.146-5.6-42.583 26.15-34.08 42.584-5.61z"/>
<text fill="#ff2d52" font-size="80.73" font-family="Just Another Hand" transform="translate(0 27.638)">
<tspan x="519.197" y="845.084" style="text-align:center" text-anchor="middle">App Cache</tspan>
</text>
<text x="336.147" y="746.761" fill="#666" transform="rotate(-13.096 120.392 13.82)" font-size="50" font-family="sans-serif" font-weight="bold">
<tspan>v2</tspan>
</text>
</svg>
