<?xml-stylesheet href="svg-fonts.css" type="text/css"?>
<svg xmlns="http://www.w3.org/2000/svg" version="1.1" viewBox="0 0 1920 1080">
<g fill="#ff2d52">
<path d="M488.428 159.76l-24.713-11.732c-2.787-1.32-4.472-3.373-4.472-6.232v-.733c0-2.858 1.685-4.912 4.472-6.233l24.713-11.732c.878-.44 1.685-.733 2.713-.733 2.348-.072 4.473 1.98 4.473 4.62 0 2.125-1.173 3.594-3.08 4.472l-22.144 9.9 22.143 9.9c1.907.88 3.08 2.566 3.08 4.62 0 2.713-2.125 4.62-4.84 4.546-.805 0-1.612-.293-2.345-.662z"/>
<path d="M502.36 170.762l28.674-59.91c.807-1.685 2.126-2.565 3.887-2.565 2.347 0 4.325 1.98 4.325 4.18 0 .806-.292 1.613-.51 2.127l-28.674 59.908c-.806 1.685-2.125 2.565-3.886 2.565-2.347 0-4.325-1.978-4.325-4.18 0-.806.288-1.61.51-2.125z"/>
<path d="M553.69 123.098l24.713 11.732c2.785 1.32 4.472 3.375 4.472 6.233v.733c0 2.86-1.685 4.913-4.472 6.232L553.69 159.76c-.878.442-1.685.735-2.713.735-2.347.07-4.472-1.98-4.472-4.62 0-2.128 1.173-3.594 3.08-4.473l22.144-9.9-22.145-9.9c-1.907-.878-3.08-2.565-3.08-4.62 0-2.713 2.128-4.62 4.84-4.548.805.002 1.612.298 2.345.664z"/>
</g>
<path fill="#333" d="M619.034 66.916A6.915 6.915 0 0 0 612.118 60H427.695a6.915 6.915 0 0 0-6.916 6.916v136.012a6.915 6.915 0 0 0 6.915 6.916h184.423a6.915 6.915 0 0 0 6.916-6.916V66.916zm-153.302-.385a4.996 4.996 0 1 1-.002 9.993 4.996 4.996 0 0 1 .002-9.992zm-13.832 0a4.997 4.997 0 1 1-.002 9.994 4.997 4.997 0 0 1 .002-9.993zm-13.83 0a4.997 4.997 0 1 1-.003 9.994 4.997 4.997 0 0 1 .002-9.993zm171.743 134.093H430V85.358h179.813v115.265z"/>
<text fill="#ff2d52" font-size="28.504" font-family="Just Another Hand" transform="matrix(2.83222 0 0 2.83222 -2336.593 720.8)">
<tspan x="1008.324" y="-138.678" style="text-align:center" text-anchor="middle">Page</tspan>
</text>
<path fill="#333" d="M1420.878 321.03c-5.108 0-10.126.387-15.026 1.133l-.426-.187c-.042.09-.076.187-.12.278-47.35 7.47-83.56 48.45-83.56 97.9 0 54.748 44.38 99.126 99.128 99.126 54.745 0 99.126-44.378 99.126-99.126 0-54.742-44.378-99.123-99.123-99.123zm-20.645 109.377a20.716 20.716 0 0 0-4.98-1.75c.13-12.66 1.12-25.256 2.97-37.625 5.824-1.208 10.742-4.855 13.685-9.812 14.21 4.103 27.864 10.572 40.7 19.114a20.79 20.79 0 0 0-.745 3.133c-18.308 5.568-35.695 14.655-51.63 26.94zm-20.384 36.353a20.84 20.84 0 0 0 5.816 2.512 274.038 274.038 0 0 0 6.455 33.03 86.968 86.968 0 0 1-27.144-15.49c4.66-7.13 9.63-13.82 14.873-20.052zm113.354-57.638c.63-.008 1.258-.033 1.893-.033 4.06 0 8.13.25 12.18.615.415 3.43.65 6.914.65 10.452 0 5.25-.49 10.386-1.388 15.385-4.983-6.666-10.24-12.92-15.75-18.727a20.803 20.803 0 0 0 2.414-7.693zm11.674-11.762c-3.26-.218-6.527-.347-9.78-.347-1.396 0-2.788.036-4.177.075-3.5-6.627-10.454-11.15-18.467-11.15-4.858 0-9.32 1.676-12.867 4.46-14.08-9.408-29.128-16.47-44.803-20.932-.34-6.337-3.49-11.91-8.24-15.51a245.717 245.717 0 0 1 7.186-20.53 87.53 87.53 0 0 1 7.148-.316c40.11-.002 73.953 27.275 84 64.25zm-104.95-61.69a260.968 260.968 0 0 0-4.733 14.1c-.414-.026-.82-.064-1.238-.064-9.154 0-16.916 5.9-19.733 14.096-7 .006-13.994.56-20.93 1.564 11.743-14.452 28.013-25.076 46.634-29.696zm-66.103 84.487a86.507 86.507 0 0 1 10.154-40.743c9.793-2.258 19.783-3.475 29.8-3.517a20.898 20.898 0 0 0 12.403 14.066 285.032 285.032 0 0 0-3.026 39.755c-7.677 3.083-13.105 10.588-13.105 19.37 0 3 .646 5.85 1.784 8.424-5.528 6.455-10.763 13.396-15.693 20.775-13.86-15.428-22.318-35.807-22.318-58.13zm87.053 87.05c-5.21 0-10.304-.487-15.264-1.368a260.463 260.463 0 0 1-7.83-37.045c8.165-2.835 14.034-10.58 14.034-19.706 0-3.724-.987-7.217-2.696-10.245 13.818-10.4 28.748-18.223 44.408-23.23 3.324 7.132 10.53 12.087 18.92 12.087a20.75 20.75 0 0 0 9.655-2.38c7.246 7.642 14.033 16.098 20.295 25.322-12.382 33.005-44.248 56.563-81.522 56.563z"/>
<text fill="#ff2d52" font-size="28.504" font-family="Just Another Hand" transform="matrix(2.83222 0 0 2.83222 -2093.9 1030.236)">
<tspan x="1240.748" y="-138.678" style="text-align:center" text-anchor="middle">Réseau</tspan>
</text>
<path fill="#333" d="M519.9 556.276l-70.092 29.04-29.03 70.087 29.03 70.09L519.9 754.53l70.105-29.038 29.03-70.09-29.03-70.087-70.105-29.04zm14.532 44.917l34.083 26.147 5.6 42.583-26.15 34.08-42.585 5.61-34.082-26.146-5.6-42.583 26.15-34.08 42.584-5.61z"/>
<text fill="#ff2d52" font-size="80.73" font-family="Just Another Hand" transform="translate(1323.158 1022.157)">
<tspan x="-803.961" y="-149.435" style="text-align:center" text-anchor="middle">App Cache</tspan>
</text>
<path fill="none" stroke="#ff2d52" stroke-width="8" d="M377.844 602.34c-205.495-183.705-8.067-370.505-8.067-370.505" stroke-linejoin="round" stroke-linecap="round"/>
<path fill="#ff2d52" d="M368.98 256.67l-26.15-18.19 31.872-24.102s2.616-1.59 4.494-.283c1.878 1.306 1.186 4.235 1.186 4.235z"/>
<text x="322.032" y="407.111" fill="#333" font-size="50" font-family="sans-serif" font-weight="bold" transform="translate(0 27.638)">
<tspan>1</tspan>
</text>
<path fill="none" stroke="#ff2d52" stroke-width="8" d="M723.393 517.742c264.644-138.52 468.922-115.598 468.922-115.598" stroke-linejoin="round" stroke-linecap="round"/>
<path fill="#ff2d52" d="M1173.33 416.942l3.406-31.672 36.442 16.39s2.65 1.532 2.406 3.806c-.244 2.275-3.146 3.074-3.146 3.074z"/>
<text x="954.186" y="463.88" fill="#333" font-size="50" font-family="sans-serif" font-weight="bold" transform="translate(0 27.638)">
<tspan>2</tspan>
</text>
<text x="688.148" y="563.292" fill="#666" transform="rotate(-13.096 120.392 13.82)" font-size="50" font-family="sans-serif" font-weight="bold">
<tspan>manifest v2 ?</tspan>
</text>
</svg>
