<?xml-stylesheet href="svg-fonts.css" type="text/css"?>
<svg xmlns="http://www.w3.org/2000/svg" version="1.1" viewBox="0 0 1920 1080" class="sw-explained">
<defs>
<filter id="sw-explained-a" width="1.24" height="1.24" x="-.12" y="-.12">
<feGaussianBlur stdDeviation="13"/>
</filter>
</defs>
<g class="build step-0">
<g class="build step-3">
<path fill="#eee" d="M0 0h1180.213v1080H0z"/>
<text x="823.061" y="74.399" style="fill:#777;font-weight:700;font-family:Raleway;font-size:57.982px" transform="translate(0 27.638)">
<tspan x="823.061" y="74.399">Navigateur</tspan>
</text>
</g>
<g fill="#ff2d52">
<path d="M350.37 302.292l-24.712-11.734c-2.787-1.32-4.472-3.373-4.472-6.23v-.734c0-2.86 1.685-4.913 4.472-6.234l24.713-11.73c.88-.442 1.686-.735 2.714-.735 2.347-.07 4.473 1.98 4.473 4.62 0 2.126-1.174 3.594-3.08 4.473l-22.145 9.898 22.145 9.902c1.906.878 3.08 2.565 3.08 4.62 0 2.713-2.126 4.62-4.84 4.546-.806 0-1.613-.293-2.346-.662z"/>
<path d="M364.304 313.293l28.674-59.91c.806-1.685 2.125-2.566 3.886-2.566 2.347 0 4.325 1.98 4.325 4.18 0 .806-.294 1.613-.513 2.127l-28.673 59.908c-.807 1.685-2.125 2.566-3.887 2.566-2.347 0-4.325-1.978-4.325-4.18 0-.807.29-1.61.512-2.125z"/>
<path d="M415.634 265.63l24.713 11.73c2.785 1.32 4.472 3.375 4.472 6.234v.733c0 2.858-1.686 4.912-4.473 6.23l-24.713 11.735c-.878.44-1.685.733-2.713.733-2.346.072-4.472-1.98-4.472-4.62 0-2.128 1.174-3.594 3.08-4.472l22.145-9.9-22.145-9.9c-1.906-.88-3.08-2.566-3.08-4.62 0-2.713 2.128-4.62 4.84-4.548.806.002 1.613.297 2.346.664z"/>
</g>
<path fill="#333" d="M480.977 209.446a6.915 6.915 0 0 0-6.915-6.916H289.638a6.915 6.915 0 0 0-6.916 6.916v136.012a6.915 6.915 0 0 0 6.916 6.916h184.424a6.915 6.915 0 0 0 6.915-6.916V209.446zm-153.3-.385a4.996 4.996 0 1 1-.003 9.994 4.996 4.996 0 0 1 .002-9.993zm-13.833 0a4.997 4.997 0 1 1-.002 9.994 4.997 4.997 0 0 1 .002-9.993zm-13.832 0a4.997 4.997 0 1 1-.002 9.994 4.997 4.997 0 0 1 .002-9.993zm171.744 134.093H291.944V227.89h179.812v115.263z"/>
<g fill="#ff2d52">
<path d="M350.37 490.863L325.66 479.13c-2.787-1.32-4.472-3.373-4.472-6.232v-.733c0-2.858 1.685-4.912 4.472-6.233L350.37 454.2c.88-.44 1.686-.733 2.714-.733 2.347-.072 4.473 1.98 4.473 4.62 0 2.125-1.174 3.594-3.08 4.472l-22.145 9.898 22.145 9.9c1.906.88 3.08 2.567 3.08 4.62 0 2.714-2.126 4.62-4.84 4.547-.806 0-1.613-.293-2.346-.662z"/>
<path d="M364.304 501.864l28.674-59.91c.806-1.685 2.125-2.566 3.886-2.566 2.347 0 4.325 1.98 4.325 4.18 0 .807-.294 1.614-.513 2.128l-28.673 59.907c-.807 1.686-2.125 2.566-3.887 2.566-2.347 0-4.325-1.98-4.325-4.18 0-.807.29-1.612.512-2.126z"/>
<path d="M415.634 454.2l24.713 11.732c2.785 1.32 4.472 3.375 4.472 6.233v.733c0 2.86-1.686 4.913-4.473 6.23l-24.713 11.735c-.878.44-1.685.733-2.713.733-2.346.072-4.472-1.98-4.472-4.62 0-2.127 1.174-3.593 3.08-4.472l22.145-9.9-22.145-9.9c-1.906-.878-3.08-2.566-3.08-4.62 0-2.713 2.128-4.62 4.84-4.548.806.002 1.613.298 2.346.664z"/>
</g>
<path fill="#333" d="M480.977 398.018a6.915 6.915 0 0 0-6.915-6.916H289.638a6.915 6.915 0 0 0-6.916 6.916V534.03a6.915 6.915 0 0 0 6.916 6.916h184.424a6.915 6.915 0 0 0 6.915-6.916V398.018zm-153.3-.385a4.996 4.996 0 1 1-.003 9.992 4.996 4.996 0 0 1 .002-9.992zm-13.833 0a4.997 4.997 0 1 1-.002 9.993 4.997 4.997 0 0 1 .002-9.993zm-13.832 0a4.997 4.997 0 1 1-.002 9.993 4.997 4.997 0 0 1 .002-9.993zm171.744 134.092H291.944V416.46h179.812v115.265z"/>
<g fill="#ff2d52">
<path d="M350.37 679.435L325.66 667.7c-2.787-1.318-4.472-3.372-4.472-6.23v-.734c0-2.858 1.685-4.912 4.472-6.233l24.713-11.732c.88-.44 1.686-.732 2.714-.732 2.347-.07 4.473 1.98 4.473 4.62 0 2.126-1.174 3.594-3.08 4.472l-22.145 9.9 22.145 9.9c1.906.88 3.08 2.566 3.08 4.62 0 2.714-2.126 4.62-4.84 4.546-.806 0-1.613-.293-2.346-.66z"/>
<path d="M364.304 690.436l28.674-59.91c.806-1.686 2.125-2.566 3.886-2.566 2.347 0 4.325 1.98 4.325 4.18 0 .806-.294 1.613-.513 2.127l-28.673 59.908c-.807 1.685-2.125 2.566-3.887 2.566-2.347 0-4.325-1.977-4.325-4.18 0-.806.29-1.61.512-2.124z"/>
<path d="M415.634 642.77l24.713 11.733c2.785 1.32 4.472 3.375 4.472 6.233v.734c0 2.858-1.686 4.912-4.473 6.23l-24.713 11.735c-.878.44-1.685.733-2.713.733-2.346.07-4.472-1.98-4.472-4.62 0-2.128 1.174-3.594 3.08-4.472l22.145-9.902-22.145-9.898c-1.906-.88-3.08-2.566-3.08-4.62 0-2.714 2.128-4.62 4.84-4.55.806.003 1.613.3 2.346.665z"/>
</g>
<path fill="#333" d="M480.977 586.59a6.915 6.915 0 0 0-6.915-6.917H289.638a6.915 6.915 0 0 0-6.916 6.916V722.6a6.915 6.915 0 0 0 6.916 6.917h184.424a6.915 6.915 0 0 0 6.915-6.916V586.59zm-153.3-.386a4.996 4.996 0 1 1-.003 9.993 4.996 4.996 0 0 1 .002-9.993zm-13.833 0a4.997 4.997 0 1 1-.002 9.993 4.997 4.997 0 0 1 .002-9.993zm-13.832 0a4.997 4.997 0 1 1-.002 9.993 4.997 4.997 0 0 1 .002-9.993zm171.744 134.092H291.944V605.03h179.812v115.266z"/>
<text x="402.766" y="821.994" style="fill:#ff2d52;font-size:80.73px;font-family:Just Another Hand" transform="translate(-22 25.714)">
<tspan x="402.766" y="821.994" style="text-align:center" text-anchor="middle">Pages</tspan>
</text>
<g class="build step-1">
<path fill="#333" d="M1540.878 321.03c-5.108 0-10.126.387-15.026 1.133l-.426-.187c-.042.09-.076.187-.12.278-47.35 7.47-83.56 48.45-83.56 97.9 0 54.748 44.38 99.126 99.128 99.126 54.745 0 99.126-44.378 99.126-99.126 0-54.742-44.378-99.123-99.123-99.123zm-20.645 109.377a20.716 20.716 0 0 0-4.98-1.75c.13-12.66 1.12-25.256 2.97-37.625 5.824-1.208 10.742-4.855 13.685-9.812 14.21 4.102 27.864 10.572 40.7 19.113a20.79 20.79 0 0 0-.745 3.134c-18.308 5.567-35.695 14.655-51.63 26.94zm-20.384 36.353a20.84 20.84 0 0 0 5.816 2.512 274.038 274.038 0 0 0 6.455 33.028 86.968 86.968 0 0 1-27.144-15.488c4.66-7.13 9.63-13.82 14.873-20.052zm113.354-57.638c.63-.008 1.258-.033 1.893-.033 4.06 0 8.13.25 12.18.615.415 3.43.65 6.913.65 10.452 0 5.25-.49 10.386-1.388 15.385-4.983-6.666-10.24-12.922-15.75-18.727a20.803 20.803 0 0 0 2.414-7.693zm11.674-11.762c-3.26-.218-6.527-.348-9.78-.348-1.396 0-2.788.037-4.177.076-3.5-6.627-10.454-11.15-18.467-11.15-4.858 0-9.32 1.676-12.867 4.46-14.08-9.408-29.128-16.47-44.803-20.932-.34-6.337-3.49-11.91-8.24-15.51a245.717 245.717 0 0 1 7.186-20.53 87.53 87.53 0 0 1 7.148-.316c40.11-.002 73.953 27.275 84 64.25zm-104.95-61.69a260.968 260.968 0 0 0-4.733 14.1c-.414-.026-.82-.064-1.238-.064-9.154 0-16.916 5.9-19.733 14.096-7 .006-13.994.56-20.93 1.564 11.743-14.452 28.013-25.076 46.634-29.696zm-66.103 84.487a86.507 86.507 0 0 1 10.154-40.743c9.793-2.258 19.783-3.475 29.8-3.517a20.898 20.898 0 0 0 12.403 14.066 285.032 285.032 0 0 0-3.026 39.755c-7.677 3.083-13.105 10.588-13.105 19.37 0 3 .646 5.85 1.784 8.424-5.528 6.455-10.763 13.396-15.693 20.775-13.86-15.428-22.318-35.807-22.318-58.13zm87.053 87.05c-5.21 0-10.304-.487-15.264-1.368a260.463 260.463 0 0 1-7.83-37.046c8.165-2.834 14.034-10.578 14.034-19.705 0-3.724-.987-7.217-2.696-10.245 13.818-10.4 28.748-18.223 44.408-23.23 3.324 7.132 10.53 12.087 18.92 12.087a20.75 20.75 0 0 0 9.655-2.38c7.246 7.642 14.033 16.098 20.295 25.322-12.382 33.004-44.248 56.562-81.522 56.562z"/>
<text x="1240.748" y="-138.678" style="fill:#ff2d52;font-size:28.504px;font-family:Just Another Hand" transform="matrix(2.83222 0 0 2.83222 -1973.9 1030.236)">
<tspan x="1240.748" y="-138.678" style="text-align:center" text-anchor="middle">Réseau</tspan>
</text>
<path fill="none" stroke="#ff2d52" stroke-width="8" d="M1392.106 394.685C920.442 366.587 520.762 270.31 520.762 270.31" stroke-linejoin="round" stroke-linecap="round"/>
<path fill="#ff2d52" d="M541.565 260.146l-9.792 30.312-32.334-23.476s-2.284-2.04-1.58-4.217c.703-2.177 3.706-2.368 3.706-2.368z"/>
<path fill="#ff2d52" d="M1384.842 412.1l1.49-31.818 37.363 14.162s2.738 1.37 2.63 3.655c-.106 2.284-2.954 3.256-2.954 3.256z"/>
<g>
<path fill="none" stroke="#ff2d52" stroke-width="8" d="M1397.915 480.392c-455.017 127.337-860.81 164.285-860.81 164.285" stroke-linejoin="round" stroke-linecap="round"/>
<path fill="#ff2d52" d="M549.843 626.227l6.444 31.196-39.708-4.46s-2.994-.647-3.457-2.888c-.462-2.24 2.056-3.888 2.056-3.888z"/>
<path fill="#ff2d52" d="M1392.977 499.087l-9.31-30.464 39.95.757s3.04.368 3.71 2.556c.67 2.188-1.686 4.062-1.686 4.062z"/>
</g>
<g>
<path fill="none" stroke="#ff2d52" stroke-width="8" d="M1397.338 437.938c-462.16 61.623-863.683 26.393-863.683 26.393" stroke-linejoin="round" stroke-linecap="round"/>
<path fill="#ff2d52" d="M549.57 449.78l-.89 31.84-37.624-13.456s-2.764-1.318-2.7-3.604c.064-2.287 2.894-3.313 2.894-3.313z"/>
<path fill="#ff2d52" d="M1391.33 456.17l-2.064-31.788 38.71 9.912s2.873 1.056 3.02 3.34c.15 2.282-2.573 3.565-2.573 3.565z"/>
</g>
</g>
<g class="build step-2">
<path fill="#ff2d52" d="M932.467 856.797h81.104V937.9h-81.103v-81.103z"/>
<path fill="#333" d="M1067.64 856.797a4.513 4.513 0 0 0 4.506-4.506 4.513 4.513 0 0 0-4.505-4.505h-18.023v-9.01h18.024a4.513 4.513 0 0 0 4.506-4.507 4.513 4.513 0 0 0-4.505-4.506h-18.023v-4.506a4.513 4.513 0 0 0-4.505-4.506h-4.506v-18.023c0-2.487-2.028-4.506-4.506-4.506s-4.506 2.02-4.506 4.507v18.023h-9.01v-18.023a4.513 4.513 0 0 0-4.507-4.506 4.513 4.513 0 0 0-4.506 4.507v18.023h-9.01v-18.023c0-2.487-2.028-4.506-4.506-4.506s-4.506 2.02-4.506 4.507v18.023h-9.012v-18.023a4.513 4.513 0 0 0-4.505-4.506 4.513 4.513 0 0 0-4.505 4.507v18.023h-9.012v-18.023a4.507 4.507 0 0 0-4.506-4.506 4.507 4.507 0 0 0-4.506 4.507v18.023h-9.01v-18.023a4.507 4.507 0 0 0-4.506-4.506 4.507 4.507 0 0 0-4.506 4.507v18.023h-9.01v-18.023a4.507 4.507 0 0 0-4.507-4.506 4.507 4.507 0 0 0-4.505 4.507v18.023h-9.01v-18.023a4.507 4.507 0 0 0-4.507-4.506 4.507 4.507 0 0 0-4.506 4.507v18.023h-4.506a4.507 4.507 0 0 0-4.506 4.506v4.506h-18.023a4.507 4.507 0 0 0-4.506 4.506 4.507 4.507 0 0 0 4.507 4.506h18.023v9.01h-18.023a4.507 4.507 0 0 0-4.506 4.507 4.507 4.507 0 0 0 4.507 4.507h18.023v9.01h-18.023a4.507 4.507 0 0 0-4.506 4.507 4.507 4.507 0 0 0 4.507 4.506h18.023v9.012h-18.023a4.507 4.507 0 0 0-4.506 4.505 4.507 4.507 0 0 0 4.507 4.506h18.023v9.012h-18.023c-2.487 0-4.506 2.027-4.506 4.506s2.02 4.506 4.507 4.506h18.023v9.012h-18.023a4.513 4.513 0 0 0-4.506 4.506 4.513 4.513 0 0 0 4.507 4.506h18.023v9.01h-18.023a4.513 4.513 0 0 0-4.506 4.507 4.513 4.513 0 0 0 4.507 4.506h18.023v9.01h-18.023c-2.487 0-4.506 2.03-4.506 4.507s2.02 4.506 4.507 4.506h18.023v4.506a4.513 4.513 0 0 0 4.506 4.506h4.506v18.023a4.513 4.513 0 0 0 4.506 4.507 4.513 4.513 0 0 0 4.506-4.506V973.95h9.01v18.023a4.513 4.513 0 0 0 4.507 4.507 4.513 4.513 0 0 0 4.507-4.506V973.95h9.01v18.023a4.513 4.513 0 0 0 4.507 4.507 4.513 4.513 0 0 0 4.506-4.506V973.95h9.01v18.023a4.513 4.513 0 0 0 4.507 4.507 4.513 4.513 0 0 0 4.506-4.506V973.95h9.012v18.023a4.52 4.52 0 0 0 4.506 4.507 4.52 4.52 0 0 0 4.506-4.506V973.95h9.012v18.023c0 2.48 2.027 4.507 4.506 4.507s4.506-2.028 4.506-4.506V973.95h9.01v18.023a4.52 4.52 0 0 0 4.507 4.507 4.52 4.52 0 0 0 4.506-4.506V973.95h9.01v18.023c0 2.48 2.03 4.507 4.507 4.507s4.506-2.028 4.506-4.506V973.95h4.506a4.52 4.52 0 0 0 4.505-4.506v-4.506h18.024c2.48 0 4.506-2.028 4.506-4.506s-2.027-4.506-4.505-4.506h-18.023v-9.01h18.024a4.52 4.52 0 0 0 4.506-4.507 4.52 4.52 0 0 0-4.505-4.506h-18.023v-9.01h18.024a4.52 4.52 0 0 0 4.506-4.506 4.52 4.52 0 0 0-4.505-4.506h-18.023v-9.012h18.024c2.48 0 4.506-2.027 4.506-4.505s-2.027-4.505-4.505-4.505h-18.023v-9.012h18.024a4.513 4.513 0 0 0 4.506-4.506 4.513 4.513 0 0 0-4.505-4.505h-18.023v-9.012h18.024a4.513 4.513 0 0 0 4.506-4.506 4.513 4.513 0 0 0-4.505-4.506h-18.023v-9.01h18.024zm-45.057 85.61a4.52 4.52 0 0 1-4.506 4.506H927.96a4.513 4.513 0 0 1-4.505-4.506V852.29a4.507 4.507 0 0 1 4.506-4.505h90.117a4.513 4.513 0 0 1 4.506 4.506v90.117z"/>
<text x="972.309" y="707.03" style="fill:#ff2d52;font-size:80.73px;font-family:Just Another Hand" transform="translate(0 27.638)">
<tspan x="972.309" y="707.03" style="text-align:center" text-anchor="middle">Service Worker</tspan>
</text>
</g>
<path fill="#333" d="M654.74 853.555l32.058 119.647 119.647-32.06-32.06-119.646-119.646 32.06zm105.61 29.892c7.15-1.916 12.953-.803 18.402 4.72l-7.248 7.965c-2.854-2.94-5.296-3.74-8.525-2.875-3.294.882-4.825 3.526-4.094 6.256.904 3.372 3.36 4.18 8.745 4.978l3.13.454c10.65 1.536 17.167 4.266 19.683 13.656 2.712 10.122-3.752 17.798-14.43 20.66-10.443 2.797-18.528-.374-23.576-6.01l7.718-7.756c3.464 3.29 7.375 5.34 12.92 3.853 4.66-1.248 7.01-4.37 6.148-7.588-1.033-3.856-4.456-4.405-10.185-5.274l-3.136-.45c-9.04-1.284-15.587-4.168-18.04-13.32-2.26-8.434 2.448-16.58 12.49-19.27zm-36.978 10.6l11.24-3.01 10.284 38.38c3.12 11.642-2.282 18.766-12.245 21.436-9 2.412-15.462-.848-19.617-5.748l7.667-7.996c2.605 2.66 4.922 4.882 8.785 3.847 3.694-.99 5.635-3.062 4.13-8.682l-10.243-38.226z" class="build step-4"/>
<g class="build step-5">
<path fill="#fff" d="M1176.587 348.17h256.82v200h-256.82z"/>
<path fill="#eee" d="M495.714 247.143h684.5V1010h-684.5z"/>
<path fill="none" stroke="#ff2d52" stroke-width="8" d="M1392.106 394.685C673.966 469.622 520.762 270.31 520.762 270.31" stroke-linejoin="round" stroke-linecap="round"/>
<path fill="#ff2d52" d="M546.02 271.494l-22.266 22.78-18.495-35.42s-1.136-2.844.463-4.48c1.6-1.636 4.373-.47 4.373-.47z"/>
<path fill="#ff2d52" d="M1384.842 412.1l1.49-31.818 37.363 14.162s2.738 1.37 2.63 3.655c-.106 2.284-2.954 3.256-2.954 3.256z"/>
<path fill="none" stroke="#ff2d52" stroke-width="8" d="M1397.915 480.392c-802.51-94.897-860.81 164.285-860.81 164.285" stroke-linejoin="round" stroke-linecap="round"/>
<path fill="#ff2d52" d="M532.582 620.17l27.965 15.252-29.072 27.41s-2.43 1.866-4.438.77c-2.008-1.095-1.638-4.082-1.638-4.082z"/>
<path fill="#ff2d52" d="M1392.977 499.087l-9.31-30.464 39.95.757s3.04.368 3.71 2.556c.67 2.188-1.686 4.062-1.686 4.062z"/>
<g>
<path fill="none" stroke="#ff2d52" stroke-width="8" d="M1397.338 437.938c-585.4-11.108-863.683 26.393-863.683 26.393" stroke-linejoin="round" stroke-linecap="round"/>
<path fill="#ff2d52" d="M547.89 447.815l2.27 31.773-38.772-9.66s-2.88-1.038-3.044-3.32c-.163-2.282 2.55-3.583 2.55-3.583z"/>
<path fill="#ff2d52" d="M1391.33 456.17l-2.064-31.788 38.71 9.912s2.873 1.056 3.02 3.34c.15 2.282-2.573 3.565-2.573 3.565z"/>
</g>
<g>
<path fill="#fffaff" d="M1152.857 445.714a130 130 0 0 1-130 130 130 130 0 0 1-130-130 130 130 0 0 1 130-130 130 130 0 0 1 130 130z" opacity=".7" transform="matrix(1.21003 0 0 1.21003 -262.826 -109.61)" filter="url(#sw-explained-a)"/>
<path fill="#ff2d52" d="M932.467 393.606h81.104v81.105h-81.103v-81.104z"/>
<path fill="#333" d="M1067.64 393.606a4.513 4.513 0 0 0 4.506-4.505 4.513 4.513 0 0 0-4.505-4.505h-18.023v-9.012h18.024a4.513 4.513 0 0 0 4.506-4.506 4.513 4.513 0 0 0-4.505-4.505h-18.023v-4.506a4.513 4.513 0 0 0-4.505-4.506h-4.506v-18.023a4.513 4.513 0 0 0-4.506-4.506 4.513 4.513 0 0 0-4.506 4.507v18.023h-9.01v-18.023a4.513 4.513 0 0 0-4.507-4.506 4.513 4.513 0 0 0-4.506 4.507v18.023h-9.01v-18.023c0-2.487-2.028-4.506-4.506-4.506s-4.506 2.02-4.506 4.507v18.023h-9.012v-18.023a4.513 4.513 0 0 0-4.506-4.506 4.513 4.513 0 0 0-4.505 4.507v18.023h-9.012v-18.023a4.507 4.507 0 0 0-4.506-4.506 4.507 4.507 0 0 0-4.506 4.507v18.023h-9.01v-18.023a4.507 4.507 0 0 0-4.506-4.506 4.507 4.507 0 0 0-4.506 4.507v18.023h-9.01v-18.023a4.507 4.507 0 0 0-4.507-4.506 4.507 4.507 0 0 0-4.505 4.507v18.023h-9.01v-18.023a4.508 4.508 0 0 0-9.012 0v18.024h-4.507a4.507 4.507 0 0 0-4.506 4.506v4.506h-18.023a4.507 4.507 0 0 0-4.506 4.505 4.507 4.507 0 0 0 4.507 4.506h18.023v9.012h-18.023a4.507 4.507 0 0 0-4.506 4.506 4.507 4.507 0 0 0 4.507 4.506h18.023v9.012h-18.023c-2.487 0-4.506 2.02-4.506 4.506s2.02 4.506 4.507 4.506h18.023v9.01h-18.023a4.507 4.507 0 0 0-4.506 4.507 4.507 4.507 0 0 0 4.507 4.506h18.023v9.01h-18.023c-2.487 0-4.506 2.03-4.506 4.507s2.02 4.506 4.507 4.506h18.023v9.01h-18.023a4.513 4.513 0 0 0-4.506 4.507 4.513 4.513 0 0 0 4.507 4.506h18.023v9.01h-18.023a4.513 4.513 0 0 0-4.506 4.506 4.513 4.513 0 0 0 4.507 4.506h18.023v9.012h-18.023c-2.487 0-4.506 2.027-4.506 4.506s2.02 4.505 4.507 4.505h18.023v4.506a4.513 4.513 0 0 0 4.506 4.507h4.506v18.023c0 2.478 2.018 4.506 4.506 4.506s4.506-2.028 4.506-4.506v-18.023h9.01v18.023a4.513 4.513 0 0 0 4.507 4.506 4.513 4.513 0 0 0 4.507-4.506v-18.023h9.01v18.023a4.513 4.513 0 0 0 4.507 4.506 4.513 4.513 0 0 0 4.506-4.506v-18.023h9.01v18.023a4.513 4.513 0 0 0 4.507 4.506 4.513 4.513 0 0 0 4.506-4.506v-18.023h9.012v18.023a4.52 4.52 0 0 0 4.505 4.506 4.52 4.52 0 0 0 4.506-4.506v-18.023h9.012v18.023c0 2.478 2.027 4.506 4.506 4.506s4.505-2.028 4.505-4.506v-18.023h9.01v18.023a4.52 4.52 0 0 0 4.507 4.506 4.52 4.52 0 0 0 4.506-4.506v-18.023h9.01v18.023a4.52 4.52 0 0 0 4.507 4.506 4.52 4.52 0 0 0 4.506-4.506v-18.023h4.506a4.52 4.52 0 0 0 4.505-4.506v-4.505h18.024c2.48 0 4.506-2.027 4.506-4.505s-2.027-4.506-4.505-4.506h-18.023v-9.012h18.024a4.52 4.52 0 0 0 4.506-4.506 4.52 4.52 0 0 0-4.505-4.505h-18.023v-9.01h18.024a4.52 4.52 0 0 0 4.506-4.507 4.52 4.52 0 0 0-4.505-4.506h-18.023v-9.01h18.024c2.48 0 4.506-2.03 4.506-4.507s-2.027-4.506-4.505-4.506h-18.023v-9.01h18.024a4.513 4.513 0 0 0 4.506-4.507 4.513 4.513 0 0 0-4.505-4.506h-18.023v-9.01h18.024c2.48 0 4.506-2.02 4.506-4.506s-2.027-4.506-4.505-4.506h-18.023v-9.012h18.024zm-45.057 85.61a4.52 4.52 0 0 1-4.506 4.506H927.96a4.513 4.513 0 0 1-4.505-4.506V389.1a4.507 4.507 0 0 1 4.506-4.505h90.117a4.513 4.513 0 0 1 4.506 4.506v90.116z"/>
<text x="427.263" y="-272.848" style="fill:#ff2d52;font-size:28.504px;font-family:Just Another Hand" transform="matrix(2.83222 0 0 2.83222 -237.79 1044.242)">
<tspan x="427.263" y="-272.848" style="text-align:center" text-anchor="middle">Service Worker</tspan>
</text>
</g>
</g>
<g class="build step-6">
<path fill="none" stroke="#ff2d52" stroke-width="8" d="M974.53 567.98c18.572 62.856-6.428 103.57-6.428 103.57" stroke-linejoin="round" stroke-linecap="round"/>
<path fill="#ff2d52" d="M960.683 644.784l30.155 10.265-23.98 31.962s-2.075 2.25-4.24 1.513c-2.166-.737-2.31-3.743-2.31-3.743z"/>
<path fill="#ff2d52" d="M964.965 590.62l30.155-10.266-23.98-31.963s-2.075-2.25-4.24-1.513c-2.166.738-2.31 3.744-2.31 3.744z"/>
<path fill="#333" d="M1067.427 757.024l-39.488-39.584a22.464 22.464 0 0 0-15.9-6.597H898.186c-12.402 0-22.457 10.056-22.457 22.458v178.255c0 12.402 10.055 22.457 22.457 22.457h153.34c12.403 0 22.458-10.055 22.458-22.457v-138.67a22.47 22.47 0 0 0-6.558-15.86zm-15.902 154.53H898.187V733.302h113.855l39.486 39.587v138.668z"/>
<g fill="#ff2d52">
<path d="M921.28 742.472c-6.202 0-11.23 5.027-11.23 11.228v29.475c0 6.2 5.028 11.23 11.23 11.23 6.2 0 11.227-5.03 11.227-11.23V753.7c0-6.2-5.027-11.228-11.228-11.228z"/>
<path d="M955.433 742.472c-6.2 0-11.228 5.027-11.228 11.228v29.475c0 6.2 5.027 11.23 11.228 11.23s11.23-5.03 11.23-11.23V753.7c0-6.2-5.03-11.228-11.23-11.228z"/>
<path d="M989.585 742.472c-6.2 0-11.23 5.027-11.23 11.228v29.475c0 6.2 5.03 11.23 11.23 11.23s11.23-5.03 11.23-11.23V753.7c0-6.2-5.03-11.228-11.23-11.228z"/>
<path d="M1023.74 794.407c6.2 0 11.228-5.028 11.228-11.23v-9.824c0-6.2-5.027-11.23-11.23-11.23-6.2 0-11.227 5.03-11.227 11.23v9.825c0 6.2 5.03 11.23 11.23 11.23z"/>
<text x="1124.536" y="-138.678" style="font-size:28.504px;font-family:Just Another Hand" transform="matrix(2.83222 0 0 2.83222 -2210.78 1444.968)">
<tspan x="1124.536" y="-138.678" style="text-align:center" text-anchor="middle">Cache</tspan>
</text>
</g>
</g>
</g>
</svg>
