<?xml-stylesheet href="svg-fonts.css" type="text/css"?>
<svg xmlns="http://www.w3.org/2000/svg" version="1.1" viewBox="0 0 1920 1080" class="sw-lifecycle-final">
<path fill="#ff2d52" d="M374.85 439.11h81.106v81.105H374.85V439.11z"/>
<path fill="#333" d="M510.025 439.11a4.513 4.513 0 0 0 4.506-4.505 4.513 4.513 0 0 0-4.505-4.506h-18.023v-9.013h18.023a4.513 4.513 0 0 0 4.506-4.505 4.513 4.513 0 0 0-4.505-4.506h-18.023v-4.506a4.513 4.513 0 0 0-4.506-4.506h-4.506V385.04a4.513 4.513 0 0 0-4.505-4.505 4.513 4.513 0 0 0-4.506 4.506v18.024h-9.013V385.04a4.513 4.513 0 0 0-4.506-4.505 4.513 4.513 0 0 0-4.504 4.506v18.024h-9.012V385.04c0-2.486-2.028-4.505-4.506-4.505s-4.506 2.02-4.506 4.506v18.024h-9.01V385.04a4.513 4.513 0 0 0-4.507-4.505 4.513 4.513 0 0 0-4.506 4.506v18.024h-9.012V385.04a4.507 4.507 0 0 0-4.506-4.505 4.507 4.507 0 0 0-4.506 4.506v18.024h-9.01V385.04a4.507 4.507 0 0 0-4.507-4.505 4.507 4.507 0 0 0-4.507 4.506v18.024h-9.012V385.04a4.507 4.507 0 0 0-4.504-4.505 4.507 4.507 0 0 0-4.506 4.506v18.024h-9.012V385.04a4.507 4.507 0 0 0-9.012 0v18.024h-4.505a4.507 4.507 0 0 0-4.505 4.506v4.506h-18.023a4.507 4.507 0 0 0-4.506 4.506 4.507 4.507 0 0 0 4.506 4.505h18.023v9.012h-18.023a4.507 4.507 0 0 0-4.506 4.505 4.507 4.507 0 0 0 4.506 4.506h18.023v9.012h-18.023c-2.487 0-4.506 2.02-4.506 4.506s2.02 4.506 4.506 4.506h18.023v9.01h-18.023a4.507 4.507 0 0 0-4.506 4.507 4.507 4.507 0 0 0 4.506 4.507h18.023v9.012h-18.023c-2.487 0-4.506 2.026-4.506 4.504s2.02 4.506 4.506 4.506h18.023v9.012h-18.023a4.513 4.513 0 0 0-4.506 4.505 4.513 4.513 0 0 0 4.506 4.506h18.023v9.012h-18.023a4.513 4.513 0 0 0-4.506 4.506 4.513 4.513 0 0 0 4.506 4.506h18.023v9.012h-18.023c-2.487 0-4.506 2.028-4.506 4.506s2.02 4.506 4.506 4.506h18.023v4.505a4.513 4.513 0 0 0 4.506 4.506h4.507v18.024c0 2.48 2.018 4.506 4.505 4.506s4.506-2.027 4.506-4.506V556.26h9.012v18.024a4.513 4.513 0 0 0 4.506 4.506 4.513 4.513 0 0 0 4.505-4.506V556.26h9.013v18.024a4.513 4.513 0 0 0 4.506 4.506 4.513 4.513 0 0 0 4.505-4.506V556.26h9.01v18.024a4.513 4.513 0 0 0 4.507 4.506 4.513 4.513 0 0 0 4.506-4.506V556.26h9.01v18.024a4.52 4.52 0 0 0 4.507 4.506 4.52 4.52 0 0 0 4.506-4.506V556.26h9.012v18.024c0 2.48 2.028 4.506 4.506 4.506s4.506-2.027 4.506-4.506V556.26h9.012v18.024a4.52 4.52 0 0 0 4.505 4.506 4.52 4.52 0 0 0 4.507-4.506V556.26h9.012v18.024a4.52 4.52 0 0 0 4.505 4.506 4.52 4.52 0 0 0 4.505-4.506V556.26h4.506a4.52 4.52 0 0 0 4.506-4.505v-4.505h18.023c2.478 0 4.506-2.028 4.506-4.506s-2.027-4.506-4.505-4.506h-18.023v-9.012h18.023a4.52 4.52 0 0 0 4.506-4.505 4.52 4.52 0 0 0-4.505-4.505h-18.023v-9.012h18.023a4.52 4.52 0 0 0 4.506-4.506 4.52 4.52 0 0 0-4.505-4.505h-18.023v-9.012h18.023c2.478 0 4.506-2.028 4.506-4.506s-2.027-4.505-4.505-4.505h-18.023v-9.013h18.023a4.513 4.513 0 0 0 4.506-4.506 4.513 4.513 0 0 0-4.505-4.505h-18.023v-9.01h18.023c2.478 0 4.506-2.02 4.506-4.507s-2.027-4.506-4.505-4.506h-18.023v-9.01h18.023zm-45.058 85.61a4.52 4.52 0 0 1-4.506 4.506h-90.114a4.513 4.513 0 0 1-4.506-4.505v-90.115a4.507 4.507 0 0 1 4.506-4.506h90.115a4.513 4.513 0 0 1 4.507 4.505v90.116z"/>
<text x="427.263" y="-138.678" fill="#ff2d52" style="line-height:125%" font-size="28.504" font-family="Just Another Hand" transform="matrix(2.83222 0 0 2.83222 -795.407 1089.746)">
<tspan x="427.263" y="-138.678" style="text-align:center" text-anchor="middle">Service Worker</tspan>
</text>
<path fill="#333" d="M897.148 433.13v120.152c0 16.337 13.228 29.565 29.552 29.565h139.127c16.334 0 29.577-13.226 29.577-29.565V433.13c0-16.313-13.243-29.55-29.577-29.55h-6.064v-17.787c0-4.97-4.033-9-9-9-4.97 0-9.01 4.03-9.01 9v36.218a8.03 8.03 0 0 1-8.034 8.034c-4.418 0-7.997-3.59-7.997-8.033v-18.43h-15.596v-17.787c0-4.97-4.028-9-8.997-9a8.99 8.99 0 0 0-9.002 9v36.218a8.02 8.02 0 0 1-8.033 8.034c-4.417 0-7.997-3.59-7.997-8.033v-18.43h-15.394v-17.787c0-4.97-4.04-9-9-9-4.98 0-9.008 4.03-9.008 9v36.218a8.017 8.017 0 0 1-8.02 8.034c-4.43 0-8.01-3.59-8.01-8.033v-18.43c-16.302.023-29.518 13.24-29.518 29.55zm176.748 116.5c0 5.256-4.263 9.516-9.52 9.516H929.422c-5.253 0-9.528-4.26-9.528-9.516v-77.47h154.002v77.47z"/>
<text x="541.601" y="-187.911" fill="#ff2d52" style="line-height:125%" transform="matrix(2.7178 0 0 2.95144 -543.672 1093.803)" font-size="21.221" font-family="Impact">
<tspan x="541.601" y="-187.911">EVENT</tspan>
</text>
<text x="543.475" y="-138.678" fill="#ff2d52" style="line-height:125%" font-size="28.504" font-family="Just Another Hand" transform="matrix(2.83222 0 0 2.83222 -543.672 1093.803)">
<tspan x="543.475" y="-138.678" style="text-align:center" text-anchor="middle">install</tspan>
</text>
<path fill="#333" d="M1441.745 433.13v120.152c0 16.337 13.228 29.565 29.55 29.565h139.128c16.334 0 29.577-13.226 29.577-29.565V433.13c0-16.313-13.243-29.55-29.577-29.55h-6.064v-17.787c0-4.97-4.033-9-9-9-4.97 0-9.012 4.03-9.012 9v36.218a8.03 8.03 0 0 1-8.033 8.034c-4.417 0-7.995-3.59-7.995-8.033v-18.43h-15.597v-17.787c0-4.97-4.028-9-8.997-9a8.99 8.99 0 0 0-9 9v36.218a8.02 8.02 0 0 1-8.034 8.034c-4.417 0-7.998-3.59-7.998-8.033v-18.43H1505.3v-17.787c0-4.97-4.04-9-8.998-9-4.982 0-9.01 4.03-9.01 9v36.218a8.017 8.017 0 0 1-8.02 8.034c-4.43 0-8.01-3.59-8.01-8.033v-18.43c-16.302.023-29.517 13.24-29.517 29.55zm176.747 116.5c0 5.256-4.262 9.516-9.52 9.516h-134.954c-5.253 0-9.528-4.26-9.528-9.516v-77.47h154.002v77.47z"/>
<text x="541.601" y="-187.911" fill="#ff2d52" style="line-height:125%" transform="matrix(2.7178 0 0 2.95144 .924 1093.803)" font-size="21.221" font-family="Impact">
<tspan x="541.601" y="-187.911">EVENT</tspan>
</text>
<text x="543.475" y="-138.678" fill="#ff2d52" style="line-height:125%" font-size="28.504" font-family="Just Another Hand" transform="matrix(2.83222 0 0 2.83222 .924 1093.803)">
<tspan x="543.475" y="-138.678" style="text-align:center" text-anchor="middle">activate</tspan>
</text>
<path fill="none" stroke="#ff2d52" stroke-width="8" d="M605.578 486.464c142.857-67.143 222.142 5 222.142 5" stroke-linejoin="round" stroke-linecap="round"/>
<path fill="#ff2d52" d="M803.008 496.003l17.24-26.785 25.23 30.984s1.684 2.558.445 4.482c-1.238 1.924-4.19 1.337-4.19 1.337z"/>
<path fill="none" stroke="#ff2d52" stroke-width="8" d="M1150.174 486.464c142.857-67.143 222.143 5 222.143 5" stroke-linejoin="round" stroke-linecap="round"/>
<path fill="#ff2d52" d="M1347.605 496.003l17.24-26.785 25.23 30.984s1.683 2.558.445 4.482c-1.238 1.924-4.19 1.337-4.19 1.337z"/>
<g font-family="Raleway" font-size="88.771" font-weight="700">
<text x="1472.371" y="250.732" fill="#666" style="line-height:125%" transform="translate(0 27.638)">
<tspan x="1472.371" y="250.732">OK</tspan>
</text>
<text x="927.774" y="250.732" fill="#666" style="line-height:125%" transform="translate(0 27.638)">
<tspan x="927.774" y="250.732">OK</tspan>
</text>
<text x="1175.901" y="1203.718" fill="#666" style="line-height:125%" transform="rotate(-15 104.965 13.82)" font-size="54.1">
<tspan x="1175.901" y="1203.718">Ménage</tspan>
</text>
</g>
</svg>
