<svg xmlns="http://www.w3.org/2000/svg" version="1.1" viewBox="0 0 1920 1080">
<defs>
<filter id="toilet-wifi-a">
<feGaussianBlur stdDeviation="10.171429"/>
</filter>
<radialGradient id="toilet-wifi-b" gradientUnits="userSpaceOnUse" cy="668.57141" cx="2477.1428" gradientTransform="matrix(1.6555027,0,0,1.6555027,-1623.7737,-438.25034)" r="254.28572">
<stop stop-color="#ff2d52" offset="0"/>
<stop stop-color="#ff2d52" stop-opacity="0" offset="1"/>
</radialGradient>
</defs>
<g transform="translate(0,60)" class="build">
<g stroke="#555" stroke-linecap="square">
<path d="m333.35034 612.9458a78.791901 97.984795 0 0 1 -78.7919 97.9848 78.791901 97.984795 0 0 1 -78.7919 -97.9848 78.791901 97.984795 0 0 1 78.7919 -97.98479 78.791901 97.984795 0 0 1 78.7919 97.98479z" transform="matrix(.91842682 0 0 .91842682 223.36802 -99.469921)" stroke-width="5.4440918" fill="none"/>
<rect ry="18.555023" height="99.269371" width="198.53874" y="295.45508" x="357.89194" stroke-width="5" fill="#fff"/>
<path d="m333.35034 612.9458a78.791901 97.984795 0 0 1 -78.7919 97.9848 78.791901 97.984795 0 0 1 -78.7919 -97.9848 78.791901 97.984795 0 0 1 78.7919 -97.98479 78.791901 97.984795 0 0 1 78.7919 97.98479z" transform="matrix(.54099585 0 0 .5441402 319.44627 129.9475)" stroke-width="9.2154732" fill="none"/>
<path d="m533.93607 722.72299h88.54209v-485.44598h-330.63366v485.44598h88.57079v-18.36854h-70.20225v-448.7089h293.89658v448.7089h-70.17355z" stroke-width="5" fill="#eee"/>
<path d="m333.35034 612.9458a78.791901 97.984795 0 0 1 -78.7919 97.9848 78.791901 97.984795 0 0 1 -78.7919 -97.9848 78.791901 97.984795 0 0 1 78.7919 -97.98479 78.791901 97.984795 0 0 1 78.7919 97.98479z" transform="matrix(.91842682 0 0 .91842682 558.59382 -99.469921)" stroke-width="5.4440918" fill="none"/>
<rect ry="18.555023" height="99.269371" width="198.53874" y="295.45508" x="693.11774" stroke-width="5" fill="#fff"/>
<path d="m333.35034 612.9458a78.791901 97.984795 0 0 1 -78.7919 97.9848 78.791901 97.984795 0 0 1 -78.7919 -97.9848 78.791901 97.984795 0 0 1 78.7919 -97.98479 78.791901 97.984795 0 0 1 78.7919 97.98479z" transform="matrix(.54099585 0 0 .5441402 654.67206 129.9475)" stroke-width="9.2154732" fill="none"/>
<path d="m869.16186 722.72299h88.54209v-485.44598h-330.63366v485.44598h88.57079v-18.36854h-70.20225v-448.7089h293.89658v448.7089h-70.17355z" stroke-width="5" fill="#eee"/>
<path d="m333.35034 612.9458a78.791901 97.984795 0 0 1 -78.7919 97.9848 78.791901 97.984795 0 0 1 -78.7919 -97.9848 78.791901 97.984795 0 0 1 78.7919 -97.98479 78.791901 97.984795 0 0 1 78.7919 97.98479z" transform="matrix(.91842682 0 0 .91842682 893.8196 -99.469921)" stroke-width="5.4440918" fill="none"/>
<rect ry="18.555023" height="99.269371" width="198.53874" y="295.45508" x="1028.3435" stroke-width="5" fill="#fff"/>
<path d="m333.35034 612.9458a78.791901 97.984795 0 0 1 -78.7919 97.9848 78.791901 97.984795 0 0 1 -78.7919 -97.9848 78.791901 97.984795 0 0 1 78.7919 -97.98479 78.791901 97.984795 0 0 1 78.7919 97.98479z" transform="matrix(.54099585 0 0 .5441402 989.89785 129.9475)" stroke-width="9.2154732" fill="none"/>
<path d="m1204.3877 722.72299h88.542v-485.44598h-330.63362v485.44598h88.57082v-18.36854h-70.20228v-448.7089h293.89658v448.7089h-70.1735z" stroke-width="5" fill="#eee"/>
<path d="m333.35034 612.9458a78.791901 97.984795 0 0 1 -78.7919 97.9848 78.791901 97.984795 0 0 1 -78.7919 -97.9848 78.791901 97.984795 0 0 1 78.7919 -97.98479 78.791901 97.984795 0 0 1 78.7919 97.98479z" transform="matrix(.91842682 0 0 .91842682 1229.0454 -99.469921)" stroke-width="5.4440918" fill="none"/>
<rect ry="18.555023" height="99.269371" width="198.53874" y="295.45508" x="1363.5693" stroke-width="5" fill="#fff"/>
<path d="m333.35034 612.9458a78.791901 97.984795 0 0 1 -78.7919 97.9848 78.791901 97.984795 0 0 1 -78.7919 -97.9848 78.791901 97.984795 0 0 1 78.7919 -97.98479 78.791901 97.984795 0 0 1 78.7919 97.98479z" transform="matrix(.54099585 0 0 .5441402 1325.1236 129.9475)" stroke-width="9.2154732" fill="none"/>
<path d="m1539.6134 722.72299h88.5421v-485.44598h-330.6336v485.44598h88.5708v-18.36854h-70.2023v-448.7089h293.8966v448.7089h-70.1736z" stroke-width="5" fill="#eee"/>
</g>
<rect transform="matrix(-.81915204 .57357644 -.57357644 -.81915204 0 0)" height="220.21326" width="38.385799" y="-943.18134" x="-409.41104"/>
<rect transform="matrix(-.81915204 .57357644 -.57357644 -.81915204 0 0)" height="220.21326" width="38.385799" y="-1132.5378" x="-679.84015"/>
<rect transform="matrix(-.81915204 .57357644 -.57357644 -.81915204 0 0)" height="220.21326" width="38.385799" y="-1321.8943" x="-950.26923"/>
</g>
<g transform="translate(0,27.637817)" class="build">
<path opacity=".5" d="m2731.4285 668.57141a254.28572 254.28572 0 0 1 -254.2857 254.28572 254.28572 254.28572 0 0 1 -254.2857 -254.28572 254.28572 254.28572 0 0 1 254.2857 -254.28572 254.28572 254.28572 0 0 1 254.2857 254.28572z" transform="matrix(2.8598778,0,0,2.8598778,-5677.5499,-1399.6704)" filter="url(#toilet-wifi-a)" fill="url(#toilet-wifi-b)"/>
<path opacity=".5" d="m2731.4285 668.57141a254.28572 254.28572 0 0 1 -254.2857 254.28572 254.28572 254.28572 0 0 1 -254.2857 -254.28572 254.28572 254.28572 0 0 1 254.2857 -254.28572 254.28572 254.28572 0 0 1 254.2857 254.28572z" transform="matrix(3.0870957,0,0,3.0870957,-6240.401,-1551.5817)" stroke="#ff2d52" stroke-dasharray="34.01255102, 11.33751701" stroke-width="11.337517" fill="none"/>
</g>
</svg>
